<svg version="1.1" viewBox="0.0 0.0 960.0 540.0" fill="none" stroke="none" stroke-linecap="square" stroke-miterlimit="10" xmlns:xlink="http://www.w3.org/1999/xlink" xmlns="http://www.w3.org/2000/svg"><clipPath id="p.0"><path d="m0 0l960.0 0l0 540.0l-960.0 0l0 -540.0z" clip-rule="nonzero"/></clipPath><g clip-path="url(#p.0)"><path fill="#00fdc8" d="m0 0l960.0 0l0 540.0l-960.0 0z" fill-rule="evenodd"/><path fill="#ffffff" d="m0 0l960.0 0l0 360.0l-960.0 0z" fill-rule="evenodd"/><path fill="#000000" fill-opacity="0.0" d="m32.72441 41.170605l894.55115 0l0 282.4567l-894.55115 0z" fill-rule="evenodd"/><path fill="#212121" d="m73.95766 158.3927q-1.390625 0 -2.078125 -1.015625q-0.6875 -1.0 -0.6875 -2.5q0 -22.296875 -0.859375 -37.640633q-2.5625 -0.4375 -3.625 -0.4375q-4.375 0 -6.296875 0.75q0 5.96875 0.96875 18.031258q0.84375 12.796875 0.84375 18.125q0 1.0625 -0.640625 1.96875q-0.640625 0.90625 -1.59375 0.90625q-1.390625 0 -2.5625 -4.90625q-1.703125 -7.25 -2.765625 -30.390633q-0.75 -15.671875 -0.75 -33.703125q-0.109375 -3.3125 -0.109375 -9.390625q0 -1.921875 1.8125 -1.921875q1.0625 0 2.1875 0.546875q1.125 0.53125 1.65625 1.171875q-0.4375 3.40625 -0.4375 8.0q0 4.46875 0.4375 10.875q0.3125 7.359375 0.3125 11.09375l0 1.921875q-0.109375 0.84375 -0.109375 2.015625q0 1.078125 0.21875 2.78125q0.640625 0 2.125 -0.109375q1.5 -0.109375 3.0 -0.328125q3.515625 -0.3125 5.21875 -0.3125q0 -9.28125 -0.203125 -17.171875l-0.21875 -17.8125l0 -2.875q1.390625 0 2.453125 0.484375q1.0625 0.46875 1.59375 1.21875q0.96875 1.171875 1.171875 4.046875l0 2.453125q0 9.171875 1.078125 35.09375q0.953125 23.468758 0.953125 35.203133q0 1.484375 -0.90625 2.65625q-0.90625 1.171875 -2.1875 1.171875zm21.540329 -0.203125q-1.375 0 -2.5 -0.96875q-1.125 -0.953125 -1.234375 -2.34375l0 -2.765625l0 -2.140625q-0.09375 -0.953125 -0.09375 -2.234375q0 -2.25 -0.328125 -6.828125l-0.203125 -6.828125q0 -5.21875 0.3125 -15.578133q0.421875 -9.265625 0.421875 -15.5625q0 -1.5 -0.3125 -4.484375q-0.328125 -3.09375 -0.328125 -4.484375q0 -7.5625 4.484375 -7.5625q3.515625 0 8.15625 1.390625q4.640625 1.375 4.640625 3.296875q0 1.0625 -0.90625 1.96875q-0.90625 0.90625 -2.1875 1.453125q-4.46875 -1.609375 -8.109375 -2.140625q0.109375 1.59375 0.109375 4.59375q0 4.265625 -0.109375 7.671875q-0.3125 5.125 -0.3125 7.6875l0.3125 1.703125l1.71875 -0.109375q0.84375 -0.109375 2.125 -0.109375q5.125 0 5.125 2.984375q0 1.171875 -0.96875 1.984375q-0.953125 0.796875 -2.453125 0.796875q-1.90625 0 -2.984375 -0.21875l-2.65625 0q0.203125 2.78125 0.203125 8.109375q0 5.3281326 -0.109375 9.593758q-0.3125 6.515625 -0.3125 9.703125q0 5.984375 0.21875 5.984375l3.515625 -0.109375q1.8125 -0.109375 4.375 -0.109375q4.046875 0 4.046875 2.5625q0 1.484375 -1.34375 2.28125q-1.328125 0.8125 -3.234375 0.8125l-9.078125 0zm41.82164 0.3125q-3.84375 -1.28125 -9.5 -1.28125q-1.703125 1.078125 -3.625 1.078125q-1.28125 0 -2.1875 -1.125q-0.90625 -1.125 -0.90625 -2.40625q0 -8.953125 0.75 -23.890625q0.640625 -15.890633 0.640625 -23.781258l0 -0.75q-0.640625 -6.71875 -0.640625 -10.015625q0 -10.140625 3.734375 -10.140625q1.0625 0 1.859375 0.8125q0.796875 0.796875 0.796875 1.859375q0 1.28125 -0.3125 4.046875q-0.328125 2.671875 -0.328125 4.0625q0 7.140625 0.109375 12.90625q0.109375 5.640625 0.109375 12.796875q-0.53125 1.59375 -0.53125 4.46875l0 1.2812576l-0.21875 8.4375q-0.203125 3.71875 -0.203125 8.53125q0 7.359375 3.515625 7.359375q0.21875 0 0.6875 -0.046875q0.484375 -0.0625 1.34375 -0.0625q0.953125 -0.109375 2.453125 -0.109375q5.75 0 5.75 3.203125q0 1.0625 -0.96875 1.8125q-0.953125 0.75 -2.328125 0.953125zm14.505768 -0.953125q-1.390625 -5.65625 -1.390625 -15.6875l0.203125 -9.484375q0.21875 -4.265625 0.21875 -9.500008q-0.640625 -1.484375 -0.640625 -2.65625l0 -0.328125q1.0625 -2.015625 1.0625 -9.171875l0.109375 -4.90625q0.109375 -2.34375 0.109375 -5.21875q0 -6.296875 -0.859375 -9.921875q0.328125 -1.5 1.078125 -2.609375q0.75 -1.125 1.8125 -1.125l4.6875 0q2.984375 0 5.21875 1.34375q2.25 1.328125 3.421875 3.78125q2.140625 4.359375 2.140625 10.34375q0 4.265625 -0.109375 6.71875q-0.21875 3.09375 -1.078125 5.65625q-0.3125 1.375 -0.90625 2.28125q-0.578125 0.90625 -1.640625 2.1875q-1.5 1.8125 -4.90625 3.421875q-1.390625 0.734375 -3.625 1.375l0 11.421883l0.203125 6.828125l0.21875 3.296875q0.421875 5.984375 0.421875 10.140625q0 1.28125 -1.0625 2.1875q-1.0625 0.90625 -2.453125 0.90625l-2.234375 -1.28125zm5.0 -37.859383q6.296875 -0.96875 6.296875 -18.03125q0 -3.09375 -0.3125 -4.796875q-0.328125 -1.28125 -0.859375 -2.078125q-0.53125 -0.8125 -1.59375 -1.34375q-1.171875 -0.640625 -2.5625 -0.640625q0 -0.09375 -1.171875 -0.09375l0 6.078125q0 6.28125 0.109375 11.1875q0 5.546875 0.09375 7.265625l0 2.234375l0 0.21875zm48.11354 39.453133q-3.84375 0 -6.625 -1.390625q-1.703125 -0.953125 -1.703125 -2.234375q0 -1.28125 0.640625 -2.078125q0.640625 -0.796875 1.8125 -0.796875q1.0625 0 3.09375 0.84375q2.25 0.859375 2.78125 0.859375q2.015625 0 3.671875 -1.75q1.65625 -1.765625 2.609375 -4.65625q1.921875 -5.328125 1.921875 -9.59375q0 -4.578125 -1.4375 -9.640625q-1.4375 -5.0781326 -3.890625 -9.875008l-1.703125 -3.40625q-2.671875 -5.34375 -4.109375 -8.4375q-1.4375 -3.09375 -2.5 -6.71875q-1.609375 -5.109375 -1.609375 -9.921875q0 -3.828125 1.328125 -7.234375q1.34375 -3.421875 4.0 -5.765625q2.671875 -2.5625 6.625 -2.5625q1.921875 0 3.734375 1.125q1.8125 1.109375 2.546875 2.8125l-1.8125 2.25q-2.765625 0 -4.15625 -1.078125q-1.921875 0.21875 -3.359375 1.875q-1.4375 1.65625 -2.1875 3.78125q-0.640625 2.03125 -0.640625 4.0625q0 4.046875 1.125 8.265625q1.125 4.203125 2.9375 7.9375l7.453125 14.9375q1.8125 3.84375 2.875 8.640633q1.078125 4.796875 1.078125 9.59375q0 7.046875 -3.40625 13.21875q-1.8125 3.203125 -4.703125 5.0625q-2.875 1.875 -6.390625 1.875zm32.743484 -4.046875l-0.109375 -4.15625q-0.109375 -1.8125 -0.109375 -4.0625l0.109375 -3.625q-0.328125 -1.171875 -1.609375 -23.359383q-1.265625 -22.1875 -1.484375 -28.46875q-6.1875 -0.21875 -7.890625 -1.28125q-1.171875 -0.859375 -1.171875 -1.921875q0 -0.859375 1.109375 -1.546875q1.125 -0.6875 2.296875 -0.6875q2.984375 0 7.25 0.421875q4.0625 0.53125 7.25 0.53125l0.859375 0l0.859375 0q3.296875 0 3.296875 2.5625q0 1.28125 -1.0625 2.078125q-1.0625 0.796875 -2.453125 0.796875q-0.953125 0 -2.765625 -0.3125l-2.140625 -0.4375l-0.109375 0.53125l-0.109375 0.546875q0 9.484375 1.8125 30.28125q1.71875 19.515633 1.71875 30.296883q0 1.28125 -1.125 2.25q-1.125 0.953125 -2.5 0.953125l-1.921875 -1.390625zm32.7415 3.296875q-2.5625 0 -4.59375 -1.125q-2.015625 -1.109375 -3.296875 -3.234375q-2.5625 -4.484375 -3.3125 -10.140625q-0.75 -4.90625 -0.75 -11.734375q-0.3125 -11.515633 -0.3125 -28.156258l-0.109375 -8.203125q-0.109375 -0.640625 -0.109375 -2.140625q-0.21875 -4.046875 -0.21875 -4.90625q0.96875 -2.234375 2.25 -2.234375q1.28125 0 2.28125 1.921875q1.015625 1.90625 1.015625 4.15625l0 29.0q0 4.265625 0.75 11.312508q0.75 8.75 0.75 11.3125q0 7.890625 6.71875 7.890625q7.6875 0 7.6875 -57.390633l0 -5.96875l0 -0.953125q-0.109375 -0.328125 -0.109375 -0.859375q0 -1.28125 0.578125 -1.859375q0.59375 -0.59375 2.296875 -0.59375q1.390625 0 2.1875 0.796875q0.796875 0.796875 1.015625 1.875q0.109375 0.640625 0.109375 2.453125q0 1.703125 -0.328125 5.4375q-0.421875 3.09375 -0.421875 5.328125q0 2.453125 -0.21875 4.375l-0.21875 4.484375l0 0.84375q0.109375 0.4375 0.109375 0.96875q0 47.343758 -13.75 47.343758zm30.50293 -0.953125q-2.78125 0 -2.78125 -13.96875l0.21875 -16.859383q0.109375 -7.46875 0.109375 -16.734375q0 -3.421875 -0.640625 -10.5625q-0.53125 -7.796875 -0.53125 -9.5q0 -1.375 1.171875 -2.4375q1.171875 -1.078125 2.5625 -1.078125q3.734375 0 7.1875 1.65625q3.46875 1.65625 6.140625 4.640625q5.65625 6.5 7.46875 14.28125q0.953125 3.953125 0.953125 7.796875q0 1.375 -0.109375 2.5625l-0.109375 2.875l0 5.859375q0 6.8281326 -0.421875 10.781258q-0.640625 5.328125 -2.453125 9.484375q-2.125 4.484375 -6.1875 8.0q-1.921875 1.609375 -4.90625 3.203125l-7.671875 0zm4.6875 -5.4375q2.140625 0 3.953125 -1.125q1.8125 -1.125 3.09375 -3.03125q1.0625 -1.71875 1.96875 -4.328125q0.90625 -2.609375 1.328125 -5.0625q0.96875 -4.796875 1.171875 -9.8125q0.109375 -1.2812576 0.109375 -3.7343826q0 -32.203125 -12.46875 -33.59375q-0.75 4.796875 -0.75 11.09375q0 6.71875 0.84375 23.453125q0.75 14.828133 0.75 23.578133l0 2.5625zm33.69998 6.1875q-1.375 0 -2.5 -0.96875q-1.125 -0.953125 -1.234375 -2.34375l0 -2.765625l0 -2.140625q-0.09375 -0.953125 -0.09375 -2.234375q0 -2.25 -0.328125 -6.828125l-0.203125 -6.828125q0 -5.21875 0.3125 -15.578133q0.421875 -9.265625 0.421875 -15.5625q0 -1.5 -0.3125 -4.484375q-0.328125 -3.09375 -0.328125 -4.484375q0 -7.5625 4.484375 -7.5625q3.515625 0 8.15625 1.390625q4.640625 1.375 4.640625 3.296875q0 1.0625 -0.90625 1.96875q-0.90625 0.90625 -2.1875 1.453125q-4.46875 -1.609375 -8.109375 -2.140625q0.109375 1.59375 0.109375 4.59375q0 4.265625 -0.109375 7.671875q-0.3125 5.125 -0.3125 7.6875l0.3125 1.703125l1.71875 -0.109375q0.84375 -0.109375 2.125 -0.109375q5.125 0 5.125 2.984375q0 1.171875 -0.96875 1.984375q-0.953125 0.796875 -2.453125 0.796875q-1.90625 0 -2.984375 -0.21875l-2.65625 0q0.203125 2.78125 0.203125 8.109375q0 5.3281326 -0.109375 9.593758q-0.3125 6.515625 -0.3125 9.703125q0 5.984375 0.21875 5.984375l3.515625 -0.109375q1.8125 -0.109375 4.375 -0.109375q4.046875 0 4.046875 2.5625q0 1.484375 -1.34375 2.28125q-1.328125 0.8125 -3.234375 0.8125l-9.078125 0zm54.509155 -1.078125q-1.28125 0 -1.921875 -0.6875q-0.640625 -0.6875 -0.953125 -2.390625l-0.640625 -2.03125l0 -0.21875l0 -0.3125q0 -3.53125 -7.3125 -24.000008q-7.3125 -20.484375 -11.46875 -30.296875l0 53.656258l0.4375 0.75q0.09375 0.203125 0.40625 0.734375q0.328125 0.53125 0.328125 1.078125q0 1.375 -0.96875 2.34375q-0.953125 0.953125 -2.328125 0.953125q-3.421875 0 -3.421875 -6.5l-0.109375 -18.234375q-0.09375 -8.218758 -0.09375 -18.359383q0 -3.40625 0.3125 -9.90625q0.328125 -6.71875 0.328125 -9.921875q0 -5.015625 3.828125 -7.890625l0 0.640625q0.640625 -0.21875 0.859375 -0.21875q2.453125 0 6.1875 8.53125q2.984375 6.828125 5.375 14.40625q2.40625 7.5625 6.359375 21.531258l1.0625 3.84375q2.453125 8.640625 3.734375 12.375q2.125 -22.937508 2.125 -54.187508l0 -1.375q-0.09375 -0.640625 -0.09375 -1.390625q0 -3.203125 2.546875 -3.203125q1.5 0 2.296875 1.171875q0.796875 1.171875 0.796875 2.984375l0 8.0q-0.203125 16.4375 -1.28125 35.640633q-1.0625 19.1875 -2.546875 21.640625q-3.09375 0.84375 -3.84375 0.84375zm27.947754 -2.015625l-0.109375 -4.15625q-0.109375 -1.8125 -0.109375 -4.0625l0.109375 -3.625q-0.328125 -1.171875 -1.609375 -23.359383q-1.265625 -22.1875 -1.484375 -28.46875q-6.1875 -0.21875 -7.890625 -1.28125q-1.171875 -0.859375 -1.171875 -1.921875q0 -0.859375 1.109375 -1.546875q1.125 -0.6875 2.296875 -0.6875q2.984375 0 7.25 0.421875q4.0625 0.53125 7.25 0.53125l0.859375 0l0.859375 0q3.296875 0 3.296875 2.5625q0 1.28125 -1.0625 2.078125q-1.0625 0.796875 -2.453125 0.796875q-0.953125 0 -2.765625 -0.3125l-2.140625 -0.4375l-0.109375 0.53125l-0.109375 0.546875q0 9.484375 1.8125 30.28125q1.71875 19.515633 1.71875 30.296883q0 1.28125 -1.125 2.25q-1.125 0.953125 -2.5 0.953125l-1.921875 -1.390625zm23.241516 3.203125q-1.921875 -0.328125 -3.25 -1.390625q-1.328125 -1.0625 -1.546875 -2.78125l1.171875 -1.8125q0.640625 0 2.03125 0.4375q1.59375 0.3125 2.453125 0.3125q1.921875 0 3.46875 -1.703125q1.546875 -1.703125 2.28125 -4.484375q1.390625 -5.109375 1.390625 -9.171875q0 -7.03125 -4.46875 -14.828133l-1.1875 -2.015625q-2.015625 -3.53125 -3.40625 -6.296875q-1.390625 -2.78125 -2.34375 -5.96875q-1.28125 -4.171875 -1.28125 -8.328125q0 -4.6875 2.125 -9.8125q1.078125 -2.453125 3.046875 -4.0q1.96875 -1.546875 4.421875 -1.546875q1.921875 0 3.578125 1.234375q1.65625 1.21875 1.65625 2.921875q0 0.96875 -0.75 1.5q-0.75 0.53125 -1.8125 0.53125q-1.171875 0 -2.234375 -0.640625q-2.359375 0.109375 -3.734375 4.15625q-1.171875 3.734375 -1.171875 6.1875q0 3.09375 0.953125 6.25q0.953125 3.140625 2.453125 5.703125l2.34375 4.265625l3.734375 7.03125q1.5 3.0 2.40625 6.9531326q0.90625 3.9375 0.90625 7.984375q0 6.5 -2.984375 12.375q-1.5 2.984375 -4.21875 4.796875q-2.71875 1.8125 -6.03125 1.8125l0 0.328125zm51.84662 -0.75q-1.609375 0 -2.515625 -1.546875q-0.90625 -1.546875 -0.90625 -3.796875q0 -3.515625 0.421875 -8.625l0.21875 -2.78125l0.21875 -5.65625q0 -3.734375 -0.75 -16.640633q-0.75 -12.890625 -0.75 -16.625q0 -0.328125 0.046875 -1.234375q0.0625 -0.90625 0.0625 -2.828125q0.109375 -2.125 0.109375 -5.21875q0 -7.796875 -1.0625 -9.921875q-0.640625 0 -2.78125 0.3125l-2.984375 0.21875q-1.390625 0 -2.453125 -0.796875q-1.0625 -0.796875 -1.0625 -2.078125q0 -1.28125 2.546875 -2.25q3.734375 -1.28125 12.703125 -1.8125q3.625 -0.203125 4.375 -0.203125q1.28125 0 2.34375 0.859375q1.0625 0.84375 1.0625 2.125q0 1.28125 -0.90625 2.078125q-0.90625 0.796875 -2.296875 0.796875l-1.921875 -0.109375q-0.84375 -0.109375 -1.90625 -0.109375l-1.078125 0q0.75 7.265625 0.75 13.125l-0.109375 6.828125q-0.109375 3.09375 -0.109375 6.9375q0 5.109375 0.4375 12.265625q0.53125 8.843758 0.53125 12.265633q0 4.046875 0.421875 9.59375q0.421875 5.65625 0.421875 9.59375q0 5.234375 -3.078125 5.234375zm38.81897 -0.75q-3.625 0 -3.625 -17.59375l0.109375 -6.078125l0.09375 -4.90625l0 -0.32813263l0 -1.0625q0.109375 -0.859375 0.109375 -2.03125q0 -0.203125 -0.3125 -0.53125q-0.328125 -0.3125 -0.328125 -0.53125l0 -0.109375q-0.53125 0.21875 -1.921875 0.21875q-1.375 0 -3.40625 -0.4375q-0.640625 -0.09375 -3.421875 -0.53125l0 12.265633q0 2.78125 0.328125 8.75q0.3125 5.859375 0.3125 8.75q0 1.59375 -0.859375 2.765625q-0.84375 1.171875 -2.234375 1.171875q-2.015625 0 -2.875 -3.9375q-0.84375 -4.0625 -0.84375 -10.5625l0.203125 -8.640625q0.109375 -3.625 0.109375 -7.6718826l0 -1.8125l0 -1.5q0 -1.703125 -0.109375 -2.234375l0 -0.53125l0.328125 -6.1875q0 -4.0625 -0.328125 -12.0625q-0.3125 -8.0 -0.3125 -12.046875q0 -1.28125 0.84375 -2.234375q0.859375 -0.96875 2.140625 -0.96875q3.40625 0 3.40625 6.40625l-0.203125 13.21875q-0.21875 5.96875 -0.21875 13.328125q1.59375 0.546875 5.765625 0.546875l3.9375 0q0.21875 -0.640625 0.21875 -1.28125q0 -5.125 -0.640625 -15.15625q-0.75 -9.375 -0.75 -15.25q0 -1.171875 0.90625 -1.96875q0.90625 -0.796875 2.1875 -0.796875q0.75 0 2.140625 0.53125l0.953125 0.421875q0 15.140625 1.0625 40.421875l0.96875 26.984383q0 1.5 -1.125 2.359375q-1.125 0.84375 -2.609375 0.84375zm35.19391 1.8125q-2.34375 0 -4.265625 -5.125q-2.234375 -5.546875 -3.3125 -11.40625l-0.734375 -3.625q-3.09375 -15.250008 -3.953125 -17.390633l-1.28125 0q0 3.09375 -0.109375 5.65625l0 5.8593826q0 14.296875 2.03125 22.296875l-1.171875 2.875l-2.984375 0l-1.390625 -1.59375l0.109375 -7.140625q0 -9.609375 -0.96875 -29.125008q-0.84375 -20.796875 -0.84375 -29.109375q0 -5.125 3.515625 -5.125q5.765625 0 9.4375 2.984375q3.6875 2.984375 3.6875 8.328125l0 7.453125q0 1.609375 -0.546875 3.6875q-0.53125 2.078125 -1.171875 3.359375l-2.015625 3.84375l-1.71875 3.1875l0.546875 2.5625l1.484375 7.5781326q1.5 8.21875 2.875 13.34375q1.390625 5.109375 3.421875 9.265625l0.640625 1.28125q1.0625 2.125 1.0625 3.40625q0 1.078125 -0.640625 1.875q-0.640625 0.796875 -1.703125 0.796875zm-13.125 -42.765633q2.359375 -1.171875 4.0 -6.453125q1.65625 -5.28125 1.65625 -9.765625q0 -3.40625 -0.84375 -6.390625q-0.546875 -1.71875 -1.78125 -2.625q-1.21875 -0.90625 -3.03125 -0.90625l-0.203125 0.546875l-0.21875 0.953125l0.21875 12.578125q0.203125 5.546875 0.203125 12.0625zm31.260498 40.843758q-9.28125 0 -9.28125 -3.203125q0 -2.546875 3.296875 -2.546875l1.1875 0l1.0625 0.09375q0.84375 0 1.15625 -0.53125q0.328125 -0.53125 0.328125 -1.921875q0 -1.8125 -0.203125 -5.640625q-0.328125 -2.5625 -0.75 -9.171875q-0.96875 -16.328133 -0.96875 -24.640633q0 -2.984375 0.109375 -5.4375l0.109375 -5.4375q0 -3.53125 -0.3125 -5.875q-1.71875 0.421875 -2.453125 0.421875q-2.5625 0 -2.5625 -2.546875q0 -1.28125 1.59375 -2.234375q1.609375 -0.96875 4.0625 -1.40625q4.265625 -0.84375 7.5625 -0.84375q1.28125 0 2.1875 0.90625q0.90625 0.90625 0.90625 2.078125q0 1.171875 -0.703125 2.03125q-0.6875 0.84375 -1.75 0.84375q-0.640625 0 -1.0625 -0.109375l-0.859375 0q-1.0625 0 -1.546875 0.484375q-0.46875 0.484375 -0.46875 1.765625q0 10.34375 1.28125 31.140625q0.203125 3.8437576 0.84375 11.312508q0.53125 4.90625 0.53125 10.015625l0 4.0625q0.640625 -0.109375 2.140625 -0.109375q4.484375 0 4.484375 3.734375l0 0.640625l-2.671875 1.8125q-0.109375 0 -0.703125 0.0625q-0.578125 0.046875 -2.171875 0.046875q-3.421875 0.203125 -4.375 0.203125zm26.979248 -0.203125q0 -12.265625 -2.296875 -25.390625q-2.296875 -13.125008 -7.203125 -32.109383q-0.203125 -1.0625 -0.953125 -3.296875q-1.921875 -5.984375 -1.921875 -7.578125q0 -0.953125 0.796875 -1.703125q0.8125 -0.75 1.765625 -0.75q1.59375 0 2.984375 2.671875q1.390625 2.5625 2.5625 6.875q1.171875 4.3125 2.5625 10.71875q1.28125 6.078125 3.09375 18.671875l0.640625 4.1562576l1.28125 9.484375q0.421875 3.953125 0.734375 5.65625q2.25 -11.734375 5.765625 -33.921883q2.875 -18.984375 4.046875 -25.90625l2.359375 0q0.953125 0 1.703125 0.6875q0.75 0.6875 0.75 1.65625q0 3.84375 -0.921875 8.265625q-0.90625 4.421875 -2.71875 10.609375q-1.484375 5.328125 -1.96875 8.0q-0.484375 2.671875 -0.90625 8.421875q-0.84375 12.906258 -2.65625 23.140633q-1.1875 6.1875 -3.109375 9.71875q-1.90625 3.515625 -4.359375 3.515625l-2.03125 -1.59375zm34.23059 1.703125q-1.375 0 -2.5 -0.96875q-1.125 -0.953125 -1.234375 -2.34375l0 -2.765625l0 -2.140625q-0.09375 -0.953125 -0.09375 -2.234375q0 -2.25 -0.328125 -6.828125l-0.203125 -6.828125q0 -5.21875 0.3125 -15.578133q0.421875 -9.265625 0.421875 -15.5625q0 -1.5 -0.3125 -4.484375q-0.328125 -3.09375 -0.328125 -4.484375q0 -7.5625 4.484375 -7.5625q3.515625 0 8.15625 1.390625q4.640625 1.375 4.640625 3.296875q0 1.0625 -0.90625 1.96875q-0.90625 0.90625 -2.1875 1.453125q-4.46875 -1.609375 -8.109375 -2.140625q0.109375 1.59375 0.109375 4.59375q0 4.265625 -0.109375 7.671875q-0.3125 5.125 -0.3125 7.6875l0.3125 1.703125l1.71875 -0.109375q0.84375 -0.109375 2.125 -0.109375q5.125 0 5.125 2.984375q0 1.171875 -0.96875 1.984375q-0.953125 0.796875 -2.453125 0.796875q-1.90625 0 -2.984375 -0.21875l-2.65625 0q0.203125 2.78125 0.203125 8.109375q0 5.3281326 -0.109375 9.593758q-0.3125 6.515625 -0.3125 9.703125q0 5.984375 0.21875 5.984375l3.515625 -0.109375q1.8125 -0.109375 4.375 -0.109375q4.046875 0 4.046875 2.5625q0 1.484375 -1.34375 2.28125q-1.328125 0.8125 -3.234375 0.8125l-9.078125 0zm50.24597 -1.171875q-2.140625 0 -3.6875 -0.953125q-1.546875 -0.96875 -1.546875 -2.671875q2.34375 -2.359375 2.34375 -12.484375q0 -6.078125 -0.953125 -17.703133q-1.0625 -11.09375 -1.0625 -17.5l0.203125 -5.859375q0.109375 -2.5625 0.109375 -5.875q0 -2.984375 -1.0625 -7.5625q-1.28125 -4.796875 -1.28125 -6.71875q0 -3.734375 8.21875 -3.734375l1.59375 0q5.765625 0 10.03125 3.515625q3.40625 2.984375 5.75 8.640625q1.609375 3.84375 2.78125 10.671875q0.640625 5.96875 0.640625 9.375l0 3.421875l0 5.015625q-0.21875 0.421875 -0.21875 0.84375q0 0.859375 0.109375 1.28125q0.109375 0.421875 0.109375 1.0625q0 3.421875 -1.015625 8.171875q-1.015625 4.7343826 -2.9375 9.640633q-4.796875 11.734375 -10.765625 16.640625q-3.53125 2.78125 -7.359375 2.78125zm2.234375 -6.1875q3.953125 -2.453125 6.9375 -7.09375q2.984375 -4.640625 4.578125 -10.296875q2.890625 -10.453133 2.890625 -21.109383q0 -5.765625 -1.078125 -12.59375q-1.171875 -6.609375 -5.015625 -11.9375q-1.8125 -2.5625 -4.59375 -4.0q-2.765625 -1.453125 -6.28125 -1.453125l0 0.109375q0 9.609375 1.28125 29.015625q1.28125 19.296883 1.28125 29.218758l0 10.140625zm44.26648 7.5625q-2.5625 0 -4.59375 -1.125q-2.015625 -1.109375 -3.296875 -3.234375q-2.5625 -4.484375 -3.3125 -10.140625q-0.75 -4.90625 -0.75 -11.734375q-0.3125 -11.515633 -0.3125 -28.156258l-0.109375 -8.203125q-0.109375 -0.640625 -0.109375 -2.140625q-0.21875 -4.046875 -0.21875 -4.90625q0.96875 -2.234375 2.25 -2.234375q1.28125 0 2.28125 1.921875q1.015625 1.90625 1.015625 4.15625l0 29.0q0 4.265625 0.75 11.312508q0.75 8.75 0.75 11.3125q0 7.890625 6.71875 7.890625q7.6875 0 7.6875 -57.390633l0 -5.96875l0 -0.953125q-0.109375 -0.328125 -0.109375 -0.859375q0 -1.28125 0.578125 -1.859375q0.59375 -0.59375 2.296875 -0.59375q1.390625 0 2.1875 0.796875q0.796875 0.796875 1.015625 1.875q0.109375 0.640625 0.109375 2.453125q0 1.703125 -0.328125 5.4375q-0.421875 3.09375 -0.421875 5.328125q0 2.453125 -0.21875 4.375l-0.21875 4.484375l0 0.84375q0.109375 0.4375 0.109375 0.96875q0 47.343758 -13.75 47.343758zm45.75293 0.21875q-2.34375 0 -4.265625 -5.125q-2.234375 -5.546875 -3.3125 -11.40625l-0.734375 -3.625q-3.09375 -15.250008 -3.953125 -17.390633l-1.28125 0q0 3.09375 -0.109375 5.65625l0 5.8593826q0 14.296875 2.03125 22.296875l-1.171875 2.875l-2.984375 0l-1.390625 -1.59375l0.109375 -7.140625q0 -9.609375 -0.96875 -29.125008q-0.84375 -20.796875 -0.84375 -29.109375q0 -5.125 3.515625 -5.125q5.765625 0 9.4375 2.984375q3.6875 2.984375 3.6875 8.328125l0 7.453125q0 1.609375 -0.546875 3.6875q-0.53125 2.078125 -1.171875 3.359375l-2.015625 3.84375l-1.71875 3.1875l0.546875 2.5625l1.484375 7.5781326q1.5 8.21875 2.875 13.34375q1.390625 5.109375 3.421875 9.265625l0.640625 1.28125q1.0625 2.125 1.0625 3.40625q0 1.078125 -0.640625 1.875q-0.640625 0.796875 -1.703125 0.796875zm-13.125 -42.765633q2.359375 -1.171875 4.0 -6.453125q1.65625 -5.28125 1.65625 -9.765625q0 -3.40625 -0.84375 -6.390625q-0.546875 -1.71875 -1.78125 -2.625q-1.21875 -0.90625 -3.03125 -0.90625l-0.203125 0.546875l-0.21875 0.953125l0.21875 12.578125q0.203125 5.546875 0.203125 12.0625zm31.260498 40.843758q-9.28125 0 -9.28125 -3.203125q0 -2.546875 3.296875 -2.546875l1.1875 0l1.0625 0.09375q0.84375 0 1.15625 -0.53125q0.328125 -0.53125 0.328125 -1.921875q0 -1.8125 -0.203125 -5.640625q-0.328125 -2.5625 -0.75 -9.171875q-0.96875 -16.328133 -0.96875 -24.640633q0 -2.984375 0.109375 -5.4375l0.109375 -5.4375q0 -3.53125 -0.3125 -5.875q-1.71875 0.421875 -2.453125 0.421875q-2.5625 0 -2.5625 -2.546875q0 -1.28125 1.59375 -2.234375q1.609375 -0.96875 4.0625 -1.40625q4.265625 -0.84375 7.5625 -0.84375q1.28125 0 2.1875 0.90625q0.90625 0.90625 0.90625 2.078125q0 1.171875 -0.703125 2.03125q-0.6875 0.84375 -1.75 0.84375q-0.640625 0 -1.0625 -0.109375l-0.859375 0q-1.0625 0 -1.546875 0.484375q-0.46875 0.484375 -0.46875 1.765625q0 10.34375 1.28125 31.140625q0.203125 3.8437576 0.84375 11.312508q0.53125 4.90625 0.53125 10.015625l0 4.0625q0.640625 -0.109375 2.140625 -0.109375q4.484375 0 4.484375 3.734375l0 0.640625l-2.671875 1.8125q-0.109375 0 -0.703125 0.0625q-0.578125 0.046875 -2.171875 0.046875q-3.421875 0.203125 -4.375 0.203125zm47.88562 0.421875q-1.28125 0 -1.921875 -0.6875q-0.640625 -0.6875 -0.953125 -2.390625l-0.640625 -2.03125l0 -0.21875l0 -0.3125q0 -3.53125 -7.3125 -24.000008q-7.3125 -20.484375 -11.46875 -30.296875l0 53.656258l0.4375 0.75q0.09375 0.203125 0.40625 0.734375q0.328125 0.53125 0.328125 1.078125q0 1.375 -0.96875 2.34375q-0.953125 0.953125 -2.328125 0.953125q-3.421875 0 -3.421875 -6.5l-0.109375 -18.234375q-0.09375 -8.218758 -0.09375 -18.359383q0 -3.40625 0.3125 -9.90625q0.328125 -6.71875 0.328125 -9.921875q0 -5.015625 3.828125 -7.890625l0 0.640625q0.640625 -0.21875 0.859375 -0.21875q2.453125 0 6.1875 8.53125q2.984375 6.828125 5.375 14.40625q2.40625 7.5625 6.359375 21.531258l1.0625 3.84375q2.453125 8.640625 3.734375 12.375q2.125 -22.937508 2.125 -54.187508l0 -1.375q-0.09375 -0.640625 -0.09375 -1.390625q0 -3.203125 2.546875 -3.203125q1.5 0 2.296875 1.171875q0.796875 1.171875 0.796875 2.984375l0 8.0q-0.203125 16.4375 -1.28125 35.640633q-1.0625 19.1875 -2.546875 21.640625q-3.09375 0.84375 -3.84375 0.84375zm35.83838 0.546875q-2.984375 0 -5.4375 -1.125q-2.453125 -1.125 -4.171875 -2.9375q-1.375 -1.484375 -2.546875 -4.359375q-1.171875 -2.890625 -1.71875 -5.5625q-0.53125 -2.015625 -0.859375 -5.859375q-0.3125 -3.84375 -0.421875 -6.609375l0 -6.1875076l0 -4.265625q0 -6.1875 0.21875 -10.140625q0.21875 -4.796875 1.390625 -10.125q0.953125 -4.796875 3.296875 -8.421875q2.25 -3.625 6.296875 -5.015625q1.921875 -0.75 4.484375 -0.75q4.578125 0 4.578125 2.671875q0 1.28125 -1.015625 2.078125q-1.0 0.796875 -2.390625 0.796875q-0.640625 0 -1.171875 -0.109375q-0.421875 -0.109375 -1.0625 -0.109375q-1.8125 0 -3.203125 1.921875q-1.390625 1.921875 -2.34375 5.328125q-1.71875 6.625 -2.34375 14.40625q-0.4375 7.25 -0.4375 10.765625q0 3.640625 0.328125 9.921883q0.421875 5.875 1.8125 10.25q0.75 2.546875 1.75 4.09375q1.015625 1.546875 2.625 2.625q1.8125 1.171875 3.734375 1.171875q5.109375 0 5.109375 -17.078125l0 -4.90625q-0.75 -0.3125 -2.453125 -0.3125l-0.953125 0l-1.171875 0q-3.734375 0 -3.734375 -2.4531326q0 -1.5 1.0 -2.296875q1.015625 -0.796875 2.625 -0.796875l0 0.109375l1.484375 0q9.609375 0 9.609375 3.3125q0 0.9531326 -0.53125 3.8281326q-0.640625 2.5625 -0.640625 3.84375q0 1.8125 0.3125 5.65625l0.21875 5.65625q0 5.109375 -3.578125 8.046875q-3.578125 2.9375 -8.6875 2.9375z" fill-rule="nonzero"/><path fill="#212121" d="m365.24484 286.50208q-3.0 0 -5.5 -1.390625q-2.5 -1.375 -4.3125 -3.71875q-1.609375 -2.25 -2.890625 -5.703125q-1.28125 -3.46875 -1.921875 -7.203125q-1.28125 -6.296875 -1.703125 -16.53125q-0.109375 -2.453125 -0.109375 -8.4375l0 -6.71875q0.109375 -2.875 0.109375 -5.96875q0 -6.296875 0.75 -9.921875q-0.328125 -1.59375 -0.328125 -3.296875q0 -6.40625 4.796875 -10.34375q4.8125 -3.953125 12.171875 -3.953125q2.765625 0 5.109375 1.5q2.359375 1.484375 2.359375 3.71875q0 1.078125 -0.859375 1.71875q-0.859375 0.640625 -2.125 0.640625q-1.078125 0 -2.3125 -0.3125q-1.21875 -0.328125 -1.53125 -0.96875l-1.390625 0l0 -0.21875q-3.953125 0 -6.609375 1.703125q-1.921875 1.390625 -2.984375 4.59375q-0.4375 1.171875 -0.65625 2.984375q-0.203125 1.8125 -0.203125 3.296875q-0.109375 0.859375 -0.109375 3.421875l0.21875 3.734375l0.109375 3.625q0 1.59375 -0.4375 3.734375q-0.53125 2.65625 -0.53125 3.734375l0 2.5625q0 4.15625 0.328125 11.40625q0.109375 6.078125 1.390625 12.15625q0.953125 5.65625 3.625 9.59375q2.546875 4.0625 6.921875 4.0625q1.8125 0 4.484375 -1.921875q2.875 -1.921875 4.046875 -1.921875q1.5 0 3.09375 1.59375q0 3.953125 -2.984375 6.09375q-2.765625 1.90625 -6.609375 2.453125q-2.140625 0.203125 -3.40625 0.203125zm33.80255 0.328125q-2.765625 0 -5.125 -1.765625q-2.34375 -1.765625 -3.828125 -4.75q-3.09375 -6.5 -3.84375 -14.1875q-0.96875 -7.25 -0.96875 -13.96875q0 -1.28125 0.109375 -2.125l0 -1.921875q0 -0.53125 -0.109375 -0.53125l0 -1.921875l0.109375 -7.46875q0.109375 -3.40625 0.859375 -10.875q0.53125 -5.125 2.453125 -9.921875q0.75 -2.140625 1.921875 -3.25q1.171875 -1.125 2.65625 -1.125q4.265625 0 7.671875 1.546875q3.421875 1.546875 5.78125 4.328125q2.125 2.65625 3.609375 6.546875q1.5 3.890625 2.140625 8.265625q0.640625 4.484375 0.640625 9.5l0 0.84375q0 3.3125 0.109375 5.984375l0.109375 6.078125q0 30.71875 -14.296875 30.71875zm-0.421875 -4.484375q1.921875 0 3.515625 -1.546875q1.59375 -1.546875 2.453125 -4.21875q2.03125 -5.4375 2.453125 -11.71875q0.53125 -5.453125 0.53125 -9.390625q0 -4.796875 -0.75 -12.59375q-0.640625 -8.203125 -0.640625 -12.265625l0 -1.90625q-0.203125 -4.0625 -2.71875 -7.046875q-2.5 -2.984375 -6.125 -2.984375q-3.625 0 -4.796875 4.15625q-1.078125 3.3125 -1.078125 8.53125q0 2.03125 0.109375 3.421875l0 2.875l-0.203125 4.90625q-0.21875 2.234375 -0.21875 4.90625q0 5.765625 0.3125 11.40625q0.4375 8.0 2.140625 15.578125q1.703125 7.890625 5.015625 7.890625zm34.55252 2.140625q0 -12.265625 -2.296875 -25.390625q-2.296875 -13.125 -7.203125 -32.109375q-0.203125 -1.0625 -0.953125 -3.296875q-1.921875 -5.984375 -1.921875 -7.578125q0 -0.953125 0.796875 -1.703125q0.8125 -0.75 1.765625 -0.75q1.59375 0 2.984375 2.671875q1.390625 2.5625 2.5625 6.875q1.171875 4.3125 2.5625 10.71875q1.28125 6.078125 3.09375 18.671875l0.640625 4.15625l1.28125 9.484375q0.421875 3.953125 0.734375 5.65625q2.25 -11.734375 5.765625 -33.921875q2.875 -18.984375 4.046875 -25.90625l2.359375 0q0.953125 0 1.703125 0.6875q0.75 0.6875 0.75 1.65625q0 3.84375 -0.921875 8.265625q-0.90625 4.421875 -2.71875 10.609375q-1.484375 5.328125 -1.96875 8.0q-0.484375 2.671875 -0.90625 8.421875q-0.84375 12.90625 -2.65625 23.140625q-1.1875 6.1875 -3.109375 9.71875q-1.90625 3.515625 -4.359375 3.515625l-2.03125 -1.59375zm34.66803 0.203125q-9.28125 0 -9.28125 -3.203125q0 -2.546875 3.296875 -2.546875l1.1875 0l1.0625 0.09375q0.84375 0 1.15625 -0.53125q0.328125 -0.53125 0.328125 -1.921875q0 -1.8125 -0.203125 -5.640625q-0.328125 -2.5625 -0.75 -9.171875q-0.96875 -16.328125 -0.96875 -24.640625q0 -2.984375 0.109375 -5.4375l0.109375 -5.4375q0 -3.53125 -0.3125 -5.875q-1.71875 0.421875 -2.453125 0.421875q-2.5625 0 -2.5625 -2.546875q0 -1.28125 1.59375 -2.234375q1.609375 -0.96875 4.0625 -1.40625q4.265625 -0.84375 7.5625 -0.84375q1.28125 0 2.1875 0.90625q0.90625 0.90625 0.90625 2.078125q0 1.171875 -0.703125 2.03125q-0.6875 0.84375 -1.75 0.84375q-0.640625 0 -1.0625 -0.109375l-0.859375 0q-1.0625 0 -1.546875 0.484375q-0.46875 0.484375 -0.46875 1.765625q0 10.34375 1.28125 31.140625q0.203125 3.84375 0.84375 11.3125q0.53125 4.90625 0.53125 10.015625l0 4.0625q0.640625 -0.109375 2.140625 -0.109375q4.484375 0 4.484375 3.734375l0 0.640625l-2.671875 1.8125q-0.109375 0 -0.703125 0.0625q-0.578125 0.046875 -2.171875 0.046875q-3.421875 0.203125 -4.375 0.203125zm22.182465 0.75q-2.78125 0 -2.78125 -13.96875l0.21875 -16.859375q0.109375 -7.46875 0.109375 -16.734375q0 -3.421875 -0.640625 -10.5625q-0.53125 -7.796875 -0.53125 -9.5q0 -1.375 1.171875 -2.4375q1.171875 -1.078125 2.5625 -1.078125q3.734375 0 7.1875 1.65625q3.46875 1.65625 6.140625 4.640625q5.65625 6.5 7.46875 14.28125q0.953125 3.953125 0.953125 7.796875q0 1.375 -0.109375 2.5625l-0.109375 2.875l0 5.859375q0 6.828125 -0.421875 10.78125q-0.640625 5.328125 -2.453125 9.484375q-2.125 4.484375 -6.1875 8.0q-1.921875 1.609375 -4.90625 3.203125l-7.671875 0zm4.6875 -5.4375q2.140625 0 3.953125 -1.125q1.8125 -1.125 3.09375 -3.03125q1.0625 -1.71875 1.96875 -4.328125q0.90625 -2.609375 1.328125 -5.0625q0.96875 -4.796875 1.171875 -9.8125q0.109375 -1.28125 0.109375 -3.734375q0 -32.203125 -12.46875 -33.59375q-0.75 4.796875 -0.75 11.09375q0 6.71875 0.84375 23.453125q0.75 14.828125 0.75 23.578125l0 2.5625zm34.340607 -29.328125q-1.375 0 -2.453125 -0.90625q-1.0625 -0.90625 -1.0625 -2.1875q0 -1.28125 2.5625 -2.25q3.625 -1.375 12.578125 -1.90625q3.421875 -0.21875 4.375 -0.21875q1.390625 0 2.453125 0.90625q1.0625 0.90625 1.0625 2.1875q0 1.28125 -2.546875 2.234375q-3.625 1.390625 -12.59375 1.921875q-3.40625 0.21875 -4.375 0.21875zm39.36566 34.546875q-1.8125 0 -2.5625 -0.53125q-0.75 -0.53125 -0.75 -2.34375q0 -1.171875 0.53125 -1.59375q0.53125 -0.4375 2.25 -0.4375q2.34375 0 2.34375 -1.8125q0 -10.5625 -1.609375 -31.140625q-1.59375 -20.6875 -1.59375 -30.71875q0 -0.953125 0.109375 -1.8125l0 -2.03125q0 -5.0 -3.625 -5.0l-1.171875 0l-1.28125 0.09375q-3.09375 0 -3.09375 -2.34375q0 -2.765625 8.640625 -2.765625q4.578125 0 5.4375 1.8125q-0.640625 2.875 -0.640625 4.484375q0 2.875 0.84375 9.703125q0.75 6.078125 0.75 9.8125q0 7.5625 1.171875 25.171875q1.171875 15.5625 1.171875 25.375l0 0.640625q0.4375 0 1.171875 -0.09375q0.75 -0.109375 1.5 -0.109375q0.421875 -0.109375 1.28125 -0.109375q4.484375 0 4.484375 2.65625q0 3.09375 -12.15625 3.09375l-1.71875 0l-1.484375 0zm31.987427 -0.640625q1.609375 -5.0 1.609375 -35.515625q0 -4.046875 -0.109375 -6.921875l-0.109375 -5.875q-5.96875 -1.390625 -9.765625 -5.8125q-3.78125 -4.421875 -3.78125 -10.390625q0 -5.125 1.0625 -9.609375q0.75 -2.984375 1.875 -4.953125q1.125 -1.96875 2.9375 -3.359375q1.8125 -1.390625 4.46875 -1.390625q5.125 0 7.046875 2.296875q1.921875 2.296875 1.921875 7.84375q0 10.234375 -0.640625 30.703125q-0.640625 20.59375 -0.640625 30.828125q0 1.171875 -0.328125 3.734375q-0.421875 2.453125 -0.421875 3.953125q0 0.53125 0.109375 0.953125l0 1.171875q0 1.921875 -0.96875 3.140625q-0.953125 1.234375 -2.65625 1.234375l-1.609375 -2.03125zm1.5 -52.359375q0.53125 -8.859375 0.53125 -21.765625q0 -2.65625 -0.796875 -3.9375q-0.796875 -1.28125 -3.046875 -1.28125q-1.375 0 -2.5 1.765625q-1.125 1.75 -1.65625 4.421875q-0.953125 5.21875 -0.953125 8.421875q0 2.453125 0.3125 4.265625q0.21875 1.0625 0.53125 1.59375l0.53125 1.28125q0.21875 0.53125 0.859375 1.078125l0.953125 0.953125q0.546875 0.421875 1.28125 0.90625q0.75 0.484375 1.078125 0.6875q0.09375 0.109375 0.40625 0.28125q0.328125 0.15625 0.96875 0.46875l1.5 0.859375z" fill-rule="nonzero"/><path fill="#000000" fill-opacity="0.0" d="m32.72441 408.44095l894.55115 0l0 74.14172l-894.55115 0z" fill-rule="evenodd"/><path fill="#212121" d="m379.14334 455.73557q-1.84375 0 -3.65625 -0.65625q-1.796875 -0.671875 -3.28125 -1.984375l2.375 -2.828125q1.03125 0.84375 2.265625 1.375q1.234375 0.53125 2.578125 0.53125q1.34375 0 1.953125 -0.4375q0.625 -0.453125 0.625 -1.15625q0 -0.484375 -0.203125 -0.796875q-0.1875 -0.328125 -0.5625 -0.578125q-0.359375 -0.25 -0.890625 -0.46875q-0.53125 -0.234375 -1.171875 -0.515625l-2.359375 -1.0q-0.75 -0.28125 -1.46875 -0.734375q-0.703125 -0.453125 -1.25 -1.046875q-0.53125 -0.609375 -0.859375 -1.40625q-0.3125 -0.796875 -0.3125 -1.796875q0 -1.125 0.484375 -2.109375q0.5 -1.0 1.375 -1.734375q0.890625 -0.75 2.125 -1.171875q1.234375 -0.421875 2.703125 -0.421875q1.6875 0 3.25 0.625q1.578125 0.609375 2.828125 1.78125l-2.09375 2.609375q-0.953125 -0.703125 -1.90625 -1.078125q-0.953125 -0.375 -2.296875 -0.375q-1.03125 0 -1.671875 0.421875q-0.625 0.40625 -0.625 1.21875q0 0.8125 0.828125 1.25q0.828125 0.4375 2.171875 0.90625l2.21875 0.953125q1.8125 0.671875 2.859375 1.859375q1.046875 1.171875 1.046875 3.109375q0 1.140625 -0.484375 2.171875q-0.46875 1.015625 -1.359375 1.78125q-0.890625 0.765625 -2.21875 1.234375q-1.3125 0.46875 -3.015625 0.46875zm19.315674 0q-1.640625 0 -2.796875 -0.453125q-1.140625 -0.453125 -1.859375 -1.25q-0.71875 -0.796875 -1.03125 -1.90625q-0.296875 -1.125 -0.296875 -2.5l0 -4.90625l-3.5 0l0 -3.046875l3.6875 -0.171875l0.53125 -4.25l3.390625 0l0 4.25l5.890625 0l0 3.21875l-5.890625 0l0 4.875q0 1.59375 0.703125 2.25q0.703125 0.65625 2.234375 0.65625q0.796875 0 1.453125 -0.125q0.65625 -0.140625 1.296875 -0.375l0.734375 2.96875q-0.9375 0.28125 -2.046875 0.515625q-1.09375 0.25 -2.5 0.25zm9.190704 -0.34375l0 -13.890625l3.359375 0l0.328125 3.03125l0.09375 0q1.03125 -1.71875 2.484375 -2.53125q1.453125 -0.828125 3.140625 -0.828125q0.921875 0 1.5 0.140625q0.578125 0.140625 1.1875 0.421875l-0.84375 3.4375q-0.640625 -0.203125 -1.15625 -0.296875q-0.515625 -0.09375 -1.296875 -0.09375q-1.296875 0 -2.546875 0.765625q-1.234375 0.75 -2.140625 2.625l0 7.21875l-4.109375 0zm19.815704 0.34375q-1.0625 0 -1.90625 -0.328125q-0.828125 -0.328125 -1.421875 -0.890625q-0.578125 -0.578125 -0.90625 -1.328125q-0.328125 -0.765625 -0.328125 -1.65625q0 -1.1875 0.5 -2.0625q0.515625 -0.875 1.609375 -1.484375q1.109375 -0.625 2.84375 -1.0q1.75 -0.390625 4.203125 -0.53125q-0.109375 -0.953125 -0.828125 -1.484375q-0.703125 -0.53125 -2.140625 -0.53125q-1.0 0 -2.03125 0.359375q-1.015625 0.34375 -2.1875 0.9375l-1.453125 -2.6875q1.421875 -0.8125 3.0625 -1.34375q1.640625 -0.53125 3.421875 -0.53125q2.921875 0 4.59375 1.546875q1.6875 1.53125 1.6875 4.71875l0 7.953125l-3.359375 0l-0.3125 -1.5625l-0.109375 0q-1.0625 0.8125 -2.328125 1.359375q-1.265625 0.546875 -2.609375 0.546875zm1.328125 -3.203125q0.921875 0 1.734375 -0.375q0.8125 -0.375 1.53125 -0.9375l0 -2.296875q-1.53125 0.078125 -2.546875 0.28125q-1.0 0.203125 -1.59375 0.5q-0.59375 0.28125 -0.828125 0.671875q-0.234375 0.390625 -0.234375 0.84375q0 0.671875 0.515625 1.0q0.515625 0.3125 1.421875 0.3125zm11.221924 2.859375l0 -13.890625l3.359375 0l0.3125 1.84375l0.109375 0q0.890625 -0.890625 2.046875 -1.53125q1.171875 -0.640625 2.734375 -0.640625q2.359375 0 3.453125 1.515625q1.09375 1.5 1.09375 4.140625l0 8.5625l-4.125 0l0 -8.03125q0 -1.40625 -0.453125 -2.046875q-0.4375 -0.640625 -1.59375 -0.640625q-0.828125 0 -1.46875 0.359375q-0.625 0.359375 -1.359375 1.09375l0 9.265625l-4.109375 0zm22.534424 5.90625q-1.34375 0 -2.5 -0.21875q-1.15625 -0.203125 -2.0 -0.640625q-0.84375 -0.421875 -1.328125 -1.09375q-0.46875 -0.671875 -0.46875 -1.59375q0 -1.71875 2.15625 -2.78125l0 -0.109375q-0.578125 -0.359375 -0.984375 -0.921875q-0.40625 -0.5625 -0.40625 -1.453125q0 -0.703125 0.453125 -1.40625q0.46875 -0.703125 1.1875 -1.203125l0 -0.109375q-0.75 -0.5 -1.28125 -1.40625q-0.53125 -0.921875 -0.53125 -2.15625q0 -1.25 0.484375 -2.1875q0.5 -0.9375 1.296875 -1.5625q0.8125 -0.640625 1.890625 -0.953125q1.078125 -0.328125 2.265625 -0.328125q1.28125 0 2.296875 0.328125l5.625 0l0 3.03125l-2.796875 0q0.21875 0.296875 0.40625 0.796875q0.203125 0.484375 0.203125 1.015625q0 1.203125 -0.453125 2.078125q-0.4375 0.859375 -1.21875 1.4375q-0.765625 0.578125 -1.8125 0.859375q-1.046875 0.28125 -2.25 0.28125q-0.90625 0 -1.90625 -0.28125q-0.3125 0.21875 -0.46875 0.453125q-0.15625 0.21875 -0.15625 0.578125q0 0.5625 0.5625 0.796875q0.5625 0.234375 1.796875 0.234375l2.578125 0q2.734375 0 4.171875 0.8125q1.453125 0.8125 1.453125 2.6875q0 1.09375 -0.59375 2.015625q-0.578125 0.9375 -1.640625 1.59375q-1.0625 0.65625 -2.609375 1.03125q-1.546875 0.375 -3.421875 0.375zm0.234375 -12.796875q0.859375 0 1.46875 -0.5625q0.625 -0.578125 0.625 -1.734375q0 -1.09375 -0.625 -1.671875q-0.609375 -0.59375 -1.46875 -0.59375q-0.875 0 -1.484375 0.59375q-0.59375 0.578125 -0.59375 1.671875q0 1.15625 0.59375 1.734375q0.609375 0.5625 1.484375 0.5625zm0.359375 10.1875q1.6875 0 2.71875 -0.46875q1.03125 -0.46875 1.03125 -1.203125q0 -0.671875 -0.625 -0.875q-0.609375 -0.1875 -1.8125 -0.1875l-1.734375 0q-0.75 0 -1.25 -0.046875q-0.484375 -0.046875 -0.875 -0.15625q-0.53125 0.34375 -0.765625 0.65625q-0.21875 0.328125 -0.21875 0.71875q0 0.78125 0.9375 1.171875q0.9375 0.390625 2.59375 0.390625zm17.690704 -2.953125q-1.625 0 -3.046875 -0.484375q-1.40625 -0.5 -2.4375 -1.421875q-1.03125 -0.921875 -1.625 -2.28125q-0.578125 -1.359375 -0.578125 -3.09375q0 -1.71875 0.59375 -3.078125q0.609375 -1.359375 1.609375 -2.296875q1.015625 -0.9375 2.3125 -1.421875q1.296875 -0.484375 2.703125 -0.484375q1.59375 0 2.828125 0.5q1.234375 0.5 2.046875 1.40625q0.828125 0.890625 1.25 2.109375q0.421875 1.21875 0.421875 2.640625q0 0.5625 -0.078125 1.078125q-0.0625 0.515625 -0.109375 0.765625l-9.46875 0q0.3125 1.515625 1.375 2.21875q1.0625 0.703125 2.765625 0.703125q0.953125 0 1.796875 -0.25q0.859375 -0.25 1.796875 -0.734375l1.359375 2.5q-1.203125 0.75 -2.65625 1.1875q-1.453125 0.4375 -2.859375 0.4375zm-0.328125 -11.4375q-1.234375 0 -2.0625 0.65625q-0.828125 0.640625 -1.125 1.953125l5.921875 0q-0.296875 -2.609375 -2.734375 -2.609375zm35.553284 11.4375q-1.640625 0 -2.796875 -0.453125q-1.140625 -0.453125 -1.8594055 -1.25q-0.71875 -0.796875 -1.03125 -1.90625q-0.296875 -1.125 -0.296875 -2.5l0 -4.90625l-3.5 0l0 -3.046875l3.6875 -0.171875l0.53125 -4.25l3.3906555 0l0 4.25l5.890625 0l0 3.21875l-5.890625 0l0 4.875q0 1.59375 0.703125 2.25q0.703125 0.65625 2.234375 0.65625q0.796875 0 1.453125 -0.125q0.65625 -0.140625 1.296875 -0.375l0.734375 2.96875q-0.9375 0.28125 -2.046875 0.515625q-1.09375 0.25 -2.5 0.25zm13.721924 -0.34375l0 -10.671875l-5.5625 0l0 -3.21875l9.6875 0l0 13.890625l-4.125 0zm1.625 -16.078125q-1.203125 0 -1.984375 -0.671875q-0.765625 -0.671875 -0.765625 -1.8125q0 -1.15625 0.765625 -1.859375q0.78125 -0.71875 1.984375 -0.71875q1.203125 0 1.96875 0.71875q0.765625 0.703125 0.765625 1.859375q0 1.140625 -0.765625 1.8125q-0.765625 0.671875 -1.96875 0.671875zm8.378174 16.078125l0 -13.890625l3.109375 0l0.28125 1.703125l0.109375 0q0.390625 -0.828125 1.078125 -1.421875q0.703125 -0.609375 1.90625 -0.609375q0.90625 0 1.53125 0.578125q0.625 0.5625 0.890625 1.6875q0.390625 -0.953125 1.125 -1.609375q0.75 -0.65625 1.953125 -0.65625q1.5 0 2.296875 1.1875q0.8125 1.1875 0.8125 3.28125l0 9.75l-3.921875 0l0 -9.46875q0 -0.640625 -0.171875 -0.9375q-0.171875 -0.3125 -0.59375 -0.3125q-0.390625 0 -0.671875 0.34375q-0.28125 0.328125 -0.578125 1.0l0 9.375l-3.21875 0l0 -9.46875q0 -1.25 -0.796875 -1.25q-0.390625 0 -0.671875 0.34375q-0.265625 0.328125 -0.546875 1.0l0 9.375l-3.921875 0zm25.05011 0.34375q-1.625 0 -3.046875 -0.484375q-1.40625 -0.5 -2.4375 -1.421875q-1.03125 -0.921875 -1.625 -2.28125q-0.578125 -1.359375 -0.578125 -3.09375q0 -1.71875 0.59375 -3.078125q0.609375 -1.359375 1.609375 -2.296875q1.015625 -0.9375 2.3125 -1.421875q1.296875 -0.484375 2.703125 -0.484375q1.59375 0 2.828125 0.5q1.234375 0.5 2.046875 1.40625q0.828125 0.890625 1.25 2.109375q0.421875 1.21875 0.421875 2.640625q0 0.5625 -0.078125 1.078125q-0.0625 0.515625 -0.109375 0.765625l-9.46875 0q0.3125 1.515625 1.375 2.21875q1.0625 0.703125 2.765625 0.703125q0.953125 0 1.796875 -0.25q0.859375 -0.25 1.796875 -0.734375l1.359375 2.5q-1.203125 0.75 -2.65625 1.1875q-1.453125 0.4375 -2.859375 0.4375zm-0.328125 -11.4375q-1.234375 0 -2.0625 0.65625q-0.828125 0.640625 -1.125 1.953125l5.921875 0q-0.296875 -2.609375 -2.734375 -2.609375zm16.175049 11.4375q-1.875 0 -3.671875 -0.609375q-1.78125 -0.625 -3.125 -1.53125l1.765625 -2.578125q1.28125 0.8125 2.6875 1.234375q1.40625 0.421875 2.90625 0.421875q1.15625 0 1.6875 -0.328125q0.53125 -0.34375 0.53125 -0.84375q0 -0.28125 -0.15625 -0.5q-0.15625 -0.234375 -0.53125 -0.40625q-0.375 -0.1875 -1.046875 -0.34375q-0.671875 -0.171875 -1.6875 -0.40625q-2.828125 -0.609375 -4.0625 -1.65625q-1.21875 -1.0625 -1.21875 -2.6875q0 -0.953125 0.4375 -1.75q0.453125 -0.8125 1.28125 -1.375q0.828125 -0.5625 2.0 -0.875q1.171875 -0.328125 2.65625 -0.328125q1.875 0 3.390625 0.609375q1.53125 0.59375 2.625 1.296875l-1.84375 2.453125q-1.0625 -0.640625 -2.21875 -0.96875q-1.140625 -0.34375 -2.3125 -0.34375q-0.984375 0 -1.46875 0.3125q-0.46875 0.296875 -0.46875 0.78125q0 0.59375 0.71875 0.84375q0.734375 0.25 2.5 0.640625q1.59375 0.359375 2.65625 0.78125q1.078125 0.421875 1.6875 0.953125q0.609375 0.53125 0.859375 1.203125q0.265625 0.671875 0.265625 1.515625q0 0.953125 -0.453125 1.765625q-0.453125 0.8125 -1.3125 1.421875q-0.84375 0.59375 -2.125 0.953125q-1.265625 0.34375 -2.953125 0.34375z" fill-rule="nonzero"/></g></svg>