<svg version="1.1" viewBox="0.0 0.0 960.0 540.0" fill="none" stroke="none" stroke-linecap="square" stroke-miterlimit="10" xmlns:xlink="http://www.w3.org/1999/xlink" xmlns="http://www.w3.org/2000/svg"><clipPath id="g753dc8fe9c_0_76.0"><path d="m0 0l960.0 0l0 540.0l-960.0 0l0 -540.0z" clip-rule="nonzero"/></clipPath><g clip-path="url(#g753dc8fe9c_0_76.0)"><path fill="#ffffff" d="m0 0l960.0 0l0 540.0l-960.0 0z" fill-rule="evenodd"/><path fill="#00fdc8" d="m480.0 -0.002624672l480.0 0l0 540.0l-480.0 0z" fill-rule="evenodd"/><path fill="#000000" fill-opacity="0.0" d="m528.04987 471.9685l49.165344 0" fill-rule="evenodd"/><path stroke="#ffffff" stroke-width="3.0" stroke-linejoin="round" stroke-linecap="butt" d="m528.04987 471.9685l49.165344 0" fill-rule="evenodd"/><path fill="#000000" fill-opacity="0.0" d="m27.874016 113.53283l424.6929 0l0 179.55905l-424.6929 0z" fill-rule="evenodd"/><path fill="#212121" d="m74.0424 269.2275q-1.9375 0 -3.53125 -1.296875q-1.578125 -1.296875 -2.734375 -3.53125q-2.078125 -3.890625 -3.09375 -10.656265q-0.71875 -4.671875 -1.078125 -10.796875l-0.078125 -3.8125l0 -3.890625q-0.0625 -1.875 -0.0625 -4.53125q0 -4.328125 0.359375 -7.640625q0.28125 -3.453125 1.4375 -6.828125q1.15625 -2.953125 3.3125 -4.1875q1.296875 -0.578125 2.59375 -0.578125q3.8125 0 6.046875 3.03125q2.453125 3.390625 3.234375 7.5625q1.15625 5.03125 1.296875 9.640625q0.296875 5.109375 0.296875 9.65625l0 4.09375q0 1.234375 -0.359375 4.609375q-0.296875 2.671875 -0.296875 4.546875l0 0.28125q-0.4375 2.0156403 -0.4375 4.7500153q0 2.015625 -0.859375 4.1875q-0.859375 2.15625 -2.4375 3.65625q-1.59375 1.734375 -3.609375 1.734375zm0.140625 -3.953125q1.453125 0 2.453125 -2.671875q0.859375 -2.375 1.25 -5.796875q0.40625 -3.4218903 0.6875 -7.7343903q0.15625 -1.875 0.15625 -4.828125l-0.078125 -6.625q-0.140625 -3.890625 -0.859375 -9.71875q-0.578125 -4.96875 -2.15625 -8.78125q-0.734375 -1.796875 -1.8125 -2.796875q-1.078125 -1.015625 -2.296875 -1.015625q-1.796875 0 -2.671875 2.796875q-1.078125 2.953125 -1.4375 6.484375q-0.421875 3.8125 -0.5 7.265625l-0.078125 2.390625q-0.0625 1.0 -0.0625 2.734375l0 0.28125q0 4.828125 1.0 11.875q1.15625 9.57814 3.390625 13.60939q1.4375 2.53125 3.015625 2.53125zm35.716263 2.15625q-0.859375 0 -1.296875 -0.46875q-0.4375 -0.46875 -0.640625 -1.625l-0.4375 -1.359375l0 -0.15625l0 -0.203125q0 -2.375 -4.9375 -16.20314q-4.921875 -13.828125 -7.734375 -20.453125l0 36.218765l0.28125 0.5q0.078125 0.140625 0.296875 0.515625q0.21875 0.359375 0.21875 0.71875q0 0.921875 -0.65625 1.578125q-0.640625 0.640625 -1.578125 0.640625q-2.3125 0 -2.3125 -4.390625l-0.0625 -12.312515q-0.078125 -5.53125 -0.078125 -12.375q0 -2.3125 0.21875 -6.703125q0.21875 -4.53125 0.21875 -6.6875q0 -3.390625 2.59375 -5.328125l0 0.421875q0.421875 -0.140625 0.578125 -0.140625q1.65625 0 4.171875 5.765625q2.015625 4.609375 3.625 9.71875q1.625 5.109375 4.296875 14.546875l0.71875 2.59375q1.65625 5.8281403 2.515625 8.343765q1.4375 -15.48439 1.4375 -36.57814l0 -0.9375q-0.0625 -0.421875 -0.0625 -0.9375q0 -2.15625 1.71875 -2.15625q1.015625 0 1.546875 0.796875q0.546875 0.796875 0.546875 2.015625l0 5.390625q-0.140625 11.09375 -0.875 24.0625q-0.71875 12.95314 -1.71875 14.60939q-2.09375 0.578125 -2.59375 0.578125zm18.144249 0.71875q-0.9374924 0 -1.7031174 -0.65625q-0.75 -0.640625 -0.8125 -1.578125l0 -1.875l0 -1.4375q-0.078125 -0.640625 -0.078125 -1.515625q0 -1.5 -0.21875 -4.609375l-0.140625 -4.6093903q0 -3.515625 0.21875 -10.5q0.28125 -6.265625 0.28125 -10.515625q0 -1.015625 -0.203125 -3.03125q-0.21875 -2.078125 -0.21875 -3.015625q0 -5.109375 3.0156174 -5.109375q2.375 0 5.5 0.9375q3.140625 0.9375 3.140625 2.21875q0 0.734375 -0.609375 1.34375q-0.609375 0.609375 -1.46875 0.96875q-3.03125 -1.078125 -5.484375 -1.4375q0.078125 1.078125 0.078125 3.09375q0 2.875 -0.078125 5.1875q-0.203125 3.453125 -0.203125 5.171875l0.203125 1.15625l1.15625 -0.0625q0.578125 -0.078125 1.4375 -0.078125q3.453125 0 3.453125 2.015625q0 0.796875 -0.640625 1.34375q-0.640625 0.53125 -1.65625 0.53125q-1.296875 0 -2.015625 -0.140625l-1.796875 0q0.140625 1.859375 0.140625 5.46875q0 3.59375 -0.078125 6.484375q-0.203125 4.3906403 -0.203125 6.5468903q0 4.03125 0.140625 4.03125l2.375 -0.078125q1.21875 -0.0625 2.953125 -0.0625q2.734375 0 2.734375 1.71875q0 1.015625 -0.90625 1.546875q-0.890625 0.546875 -2.1875 0.546875l-6.125 0zm33.905273 -0.796875q-1.4375 0 -2.484375 -0.640625q-1.03125 -0.65625 -1.03125 -1.796875q1.578125 -1.59375 1.578125 -8.4375q0 -4.0937653 -0.640625 -11.95314q-0.71875 -7.484375 -0.71875 -11.796875l0.140625 -3.96875q0.0625 -1.71875 0.0625 -3.953125q0 -2.015625 -0.71875 -5.109375q-0.859375 -3.25 -0.859375 -4.546875q0 -2.515625 5.546875 -2.515625l1.078125 0q3.890625 0 6.765625 2.375q2.3125 2.015625 3.890625 5.828125q1.078125 2.59375 1.875 7.203125q0.421875 4.03125 0.421875 6.34375l0 2.296875l0 3.390625q-0.140625 0.28125 -0.140625 0.578125q0 0.578125 0.078125 0.859375q0.0625 0.28125 0.0625 0.71875q0 2.296875 -0.6875 5.515625q-0.671875 3.203125 -1.96875 6.515625q-3.25 7.9062653 -7.28125 11.218765q-2.375 1.875 -4.96875 1.875zm1.515625 -4.171875q2.671875 -1.65625 4.6875 -4.78125q2.015625 -3.1406403 3.09375 -6.9531403q1.9375 -7.0625 1.9375 -14.265625q0 -3.875 -0.71875 -8.484375q-0.78125 -4.46875 -3.375 -8.0625q-1.234375 -1.734375 -3.109375 -2.703125q-1.859375 -0.96875 -4.234375 -0.96875l0 0.0625q0 6.484375 0.859375 19.59375q0.859375 13.03125 0.859375 19.718765l0 6.84375zm36.366135 4.671875q-1.65625 0 -2.453125 -0.5q-0.78125 -0.5 -0.78125 -1.875q0 -2.15625 -0.734375 -7.34375l-0.28125 -1.5l-7.125 -1.0781403q-0.4375 1.6406403 -1.234375 6.6875153q-0.421875 3.53125 -1.359375 4.6875q-0.5 0.640625 -1.4375 0.640625q-0.875 0 -1.59375 -0.53125q-0.71875 -0.546875 -0.71875 -1.34375l0.15625 -0.359375l0.0625 -0.28125q4.75 -18.500015 7.203125 -36.500015q0 -0.296875 0.0625 -0.96875q0.078125 -0.6875 0.15625 -1.984375q0.21875 -2.671875 0.46875 -4.25q0.25 -1.59375 0.828125 -2.375l2.4375 0q1.015625 0 1.734375 0.46875q0.71875 0.46875 0.71875 1.328125q0 5.46875 1.515625 16.265625q1.4375 11.09375 1.4375 15.5625q0 0.421875 0.359375 2.21875q0.359375 1.6562653 0.359375 2.1718903q0 0.5 0.71875 4.3125q0.65625 3.453125 0.65625 4.46875l0 0.0625q0 1.59375 -1.15625 2.015625zm-4.75 -13.812515q-0.21875 -1.078125 -0.21875 -2.671875q0 -6.46875 -1.15625 -16.5625l-0.71875 -7.484375q-3.09375 16.921875 -4.25 25.5625q1.078125 0.71875 6.34375 1.15625zm17.996765 14.187515q-1.21875 0 -2.015625 -1.59375q0.796875 -1.515625 0.796875 -12.23439q0 -2.53125 -0.359375 -5.46875l-0.21875 -2.09375q-0.21875 -1.9375 -0.21875 -2.953125l0 -1.875q-0.71875 -1.796875 -2.625 -6.6875q-1.90625 -4.90625 -3.0625 -8.21875q-1.375 -3.8125 -1.375 -5.171875l0 -0.359375l1.65625 -1.234375q1.234375 0.140625 2.59375 3.171875q1.15625 2.65625 2.5625 7.625q1.40625 4.96875 1.40625 5.265625q0.28125 -0.796875 1.140625 -5.40625q0.875 -4.609375 1.953125 -8.140625q1.21875 -3.515625 2.515625 -3.515625q0.71875 0 1.25 0.4375q0.546875 0.421875 0.546875 1.0625q0 3.671875 -2.015625 10.375q-2.15625 7.265625 -2.15625 10.515625l0 21.67189q0 4.828125 -2.375 4.828125zm41.833267 -0.375q-1.65625 0 -2.453125 -0.5q-0.78125 -0.5 -0.78125 -1.875q0 -2.15625 -0.734375 -7.34375l-0.28125 -1.5l-7.125 -1.0781403q-0.4375 1.6406403 -1.234375 6.6875153q-0.421875 3.53125 -1.359375 4.6875q-0.5 0.640625 -1.4375 0.640625q-0.875 0 -1.59375 -0.53125q-0.71875 -0.546875 -0.71875 -1.34375l0.15625 -0.359375l0.0625 -0.28125q4.75 -18.500015 7.203125 -36.500015q0 -0.296875 0.0625 -0.96875q0.078125 -0.6875 0.15625 -1.984375q0.21875 -2.671875 0.46875 -4.25q0.25 -1.59375 0.828125 -2.375l2.4375 0q1.015625 0 1.734375 0.46875q0.71875 0.46875 0.71875 1.328125q0 5.46875 1.515625 16.265625q1.4375 11.09375 1.4375 15.5625q0 0.421875 0.359375 2.21875q0.359375 1.6562653 0.359375 2.1718903q0 0.5 0.71875 4.3125q0.65626526 3.453125 0.65626526 4.46875l0 0.0625q0 1.59375 -1.1562653 2.015625zm-4.75 -13.812515q-0.21875 -1.078125 -0.21875 -2.671875q0 -6.46875 -1.15625 -16.5625l-0.71875 -7.484375q-3.09375 16.921875 -4.25 25.5625q1.078125 0.71875 6.34375 1.15625zm16.12178 12.01564l-0.0625 -2.796875q-0.078125 -1.234375 -0.078125 -2.75l0.078125 -2.4375q-0.21875 -0.796875 -1.09375 -15.76564q-0.859375 -14.984375 -1.0 -19.234375q-4.171875 -0.140625 -5.328125 -0.859375q-0.796875 -0.578125 -0.796875 -1.296875q0 -0.578125 0.75 -1.046875q0.765625 -0.46875 1.5625 -0.46875q2.015625 0 4.890625 0.296875q2.734375 0.359375 4.890625 0.359375l0.578125 0l0.578125 0q2.234375 0 2.234375 1.71875q0 0.875 -0.71875 1.421875q-0.71875 0.53125 -1.65625 0.53125q-0.65625 0 -1.875 -0.21875l-1.4375 -0.28125l-0.078125 0.359375l-0.0625 0.359375q0 6.40625 1.21875 20.4375q1.15625 13.187515 1.15625 20.45314q0 0.859375 -0.765625 1.515625q-0.75 0.640625 -1.6875 0.640625l-1.296875 -0.9375zm41.76425 1.796875q-1.65625 0 -2.453125 -0.5q-0.78125 -0.5 -0.78125 -1.875q0 -2.15625 -0.734375 -7.34375l-0.28125 -1.5l-7.125 -1.0781403q-0.4375 1.6406403 -1.234375 6.6875153q-0.421875 3.53125 -1.359375 4.6875q-0.5 0.640625 -1.4375 0.640625q-0.875 0 -1.59375 -0.53125q-0.71875 -0.546875 -0.71875 -1.34375l0.15625 -0.359375l0.0625 -0.28125q4.75 -18.500015 7.203125 -36.500015q0 -0.296875 0.0625 -0.96875q0.078125 -0.6875 0.15625 -1.984375q0.21875 -2.671875 0.46875 -4.25q0.25 -1.59375 0.828125 -2.375l2.4375 0q1.015625 0 1.734375 0.46875q0.71875 0.46875 0.71875 1.328125q0 5.46875 1.515625 16.265625q1.4375 11.09375 1.4375 15.5625q0 0.421875 0.359375 2.21875q0.359375 1.6562653 0.359375 2.1718903q0 0.5 0.71875 4.3125q0.65625 3.453125 0.65625 4.46875l0 0.0625q0 1.59375 -1.15625 2.015625zm-4.75 -13.812515q-0.21875 -1.078125 -0.21875 -2.671875q0 -6.46875 -1.15625 -16.5625l-0.71875 -7.484375q-3.09375 16.921875 -4.25 25.5625q1.078125 0.71875 6.34375 1.15625zm30.594666 13.67189q-1.078125 0 -1.6875 -1.03125q-0.609375 -1.046875 -0.609375 -2.5625q0 -2.375 0.28125 -5.828125l0.140625 -1.875l0.140625 -3.8125153q0 -2.53125 -0.5 -11.234375q-0.5 -8.71875 -0.5 -11.234375q0 -0.21875 0.03125 -0.828125q0.046875 -0.609375 0.046875 -1.90625q0.0625 -1.4375 0.0625 -3.53125q0 -5.25 -0.71875 -6.703125q-0.4375 0 -1.875 0.21875l-2.015625 0.140625q-0.9375 0 -1.65625 -0.53125q-0.71875 -0.546875 -0.71875 -1.40625q0 -0.859375 1.734375 -1.515625q2.515625 -0.859375 8.5625 -1.21875q2.453125 -0.140625 2.953125 -0.140625q0.859375 0 1.578125 0.578125q0.734375 0.5625 0.734375 1.4375q0 0.859375 -0.625 1.40625q-0.609375 0.53125 -1.546875 0.53125l-1.296875 -0.0625q-0.578125 -0.078125 -1.296875 -0.078125l-0.71875 0q0.515625 4.890625 0.515625 8.859375l-0.078125 4.609375q-0.078125 2.078125 -0.078125 4.671875q0 3.453125 0.296875 8.28125q0.359375 5.984375 0.359375 8.28125q0 2.734375 0.28125 6.4843903q0.296875 3.8125 0.296875 6.46875q0 3.53125 -2.09375 3.53125zm17.129639 -0.578125q-6.25 0 -6.25 -2.15625q0 -1.71875 2.21875 -1.71875l0.796875 0l0.71875 0.0625q0.578125 0 0.796875 -0.359375q0.21875 -0.359375 0.21875 -1.296875q0 -1.21875 -0.140625 -3.8125q-0.21875 -1.734375 -0.515625 -6.1875153q-0.640625 -11.015625 -0.640625 -16.640625q0 -2.015625 0.0625 -3.671875l0.078125 -3.671875q0 -2.375 -0.21875 -3.953125q-1.15625 0.28125 -1.65625 0.28125q-1.71875 0 -1.71875 -1.71875q0 -0.875 1.078125 -1.515625q1.078125 -0.65625 2.734375 -0.9375q2.875 -0.578125 5.109375 -0.578125q0.859375 0 1.46875 0.609375q0.625 0.609375 0.625 1.40625q0 0.796875 -0.46875 1.375q-0.46875 0.578125 -1.1875 0.578125q-0.4375 0 -0.71875 -0.078125l-0.578125 0q-0.71875 0 -1.046875 0.328125q-0.328125 0.3125 -0.328125 1.1875q0 6.984375 0.859375 21.015625q0.15625 2.59375 0.578125 7.640625q0.359375 3.3125153 0.359375 6.7656403l0 2.734375q0.4375 -0.078125 1.4375 -0.078125q3.03125 0 3.03125 2.53125l0 0.421875l-1.796875 1.234375q-0.078125 0 -0.46875 0.03125q-0.390625 0.03125 -1.484375 0.03125q-2.296875 0.140625 -2.953125 0.140625zm41.693848 3.828125q-2.234375 0 -2.234375 -4.46875l0 -4.609375l0 -4.609375q0 -3.5937653 -0.5 -9.437515q-0.578125 -6.546875 -0.578125 -9.0l0.140625 -4.453125q0.15625 -1.953125 0.15625 -4.390625q-0.296875 0.9375 -2.375 9.9375q-2.09375 8.703125 -4.328125 16.125015q-2.15625 7.125 -3.53125 7.125q-1.359375 0 -2.1875 -0.828125q-0.828125 -0.828125 -0.828125 -2.265625q0 -3.171875 -2.5625 -13.468765q-2.546875 -10.296875 -4.640625 -16.84375l-0.4375 8.140625q-0.578125 10.28125 -0.78125 17.125q-0.15625 6.6250153 -0.15625 9.07814q0 0.578125 0.078125 1.078125l0 1.0q0 1.234375 -0.515625 1.84375q-0.5 0.609375 -1.859375 0.609375q-0.71875 0 -1.375 -0.546875q-0.640625 -0.53125 -0.640625 -1.171875q0 -7.34375 1.078125 -22.031265q1.078125 -14.703125 1.078125 -22.046875q-0.4375 -0.640625 -0.4375 -1.359375q0 -0.859375 0.828125 -1.328125q0.828125 -0.46875 1.984375 -0.46875q0.9375 0 3.453125 6.765625q2.53125 6.765625 5.046875 15.34375q2.515625 8.5625 3.234375 12.375q0.578125 -1.9375 0.9375 -3.59375l0.4375 -1.734375q2.296875 -10.078125 4.609375 -18.21875q1.359375 -4.96875 2.65625 -7.78125q1.296875 -3.015625 2.375 -3.015625q1.015625 0 1.84375 0.546875q0.828125 0.53125 0.828125 1.390625q0 5.1875 0.421875 15.5625q0.515625 9.640625 0.515625 14.96875l-0.078125 3.8125153l-0.140625 3.828125q0 0.859375 0.21875 2.578125l0.21875 2.53125q0.0625 0.640625 0.09375 1.0q0.046875 0.359375 0.046875 0.4375q0.359375 0.9375 0.359375 1.359375q0 1.234375 -0.71875 2.171875q-0.71875 0.9375 -1.734375 0.9375zm14.688904 -2.8125q-0.9375 0 -1.703125 -0.65625q-0.75 -0.640625 -0.8125 -1.578125l0 -1.875l0 -1.4375q-0.078125 -0.640625 -0.078125 -1.515625q0 -1.5 -0.21875 -4.609375l-0.140625 -4.6093903q0 -3.515625 0.21875 -10.5q0.28125 -6.265625 0.28125 -10.515625q0 -1.015625 -0.203125 -3.03125q-0.21875 -2.078125 -0.21875 -3.015625q0 -5.109375 3.015625 -5.109375q2.375 0 5.5 0.9375q3.140625 0.9375 3.140625 2.21875q0 0.734375 -0.609375 1.34375q-0.609375 0.609375 -1.46875 0.96875q-3.03125 -1.078125 -5.484375 -1.4375q0.078125 1.078125 0.078125 3.09375q0 2.875 -0.078125 5.1875q-0.203125 3.453125 -0.203125 5.171875l0.203125 1.15625l1.15625 -0.0625q0.578125 -0.078125 1.4375 -0.078125q3.453125 0 3.453125 2.015625q0 0.796875 -0.640625 1.34375q-0.640625 0.53125 -1.65625 0.53125q-1.296875 0 -2.015625 -0.140625l-1.796875 0q0.140625 1.859375 0.140625 5.46875q0 3.59375 -0.078125 6.484375q-0.203125 4.3906403 -0.203125 6.5468903q0 4.03125 0.140625 4.03125l2.375 -0.078125q1.21875 -0.0625 2.953125 -0.0625q2.734375 0 2.734375 1.71875q0 1.015625 -0.90625 1.546875q-0.890625 0.546875 -2.1875 0.546875l-6.125 0z" fill-rule="nonzero"/><path fill="#000000" fill-opacity="0.0" d="m27.874016 298.71106l424.6929 0l0 141.25986l-424.6929 0z" fill-rule="evenodd"/><path fill="#666666" d="m74.733406 331.03232q-1.71875 0 -3.171875 -0.609375q-1.453125 -0.625 -2.53125 -1.71875l1.203125 -1.390625q0.890625 0.890625 2.0625 1.4375q1.171875 0.53125 2.546875 0.53125q1.625 0 2.515625 -0.6875q0.90625 -0.703125 0.90625 -1.796875q0 -0.625 -0.21875 -1.0625q-0.203125 -0.4375 -0.59375 -0.75q-0.390625 -0.3125 -0.90625 -0.546875q-0.515625 -0.234375 -1.109375 -0.5l-2.25 -0.984375q-0.609375 -0.25 -1.21875 -0.578125q-0.59375 -0.34375 -1.09375 -0.8125q-0.484375 -0.484375 -0.796875 -1.140625q-0.296875 -0.65625 -0.296875 -1.53125q0 -0.890625 0.375 -1.65625q0.390625 -0.765625 1.0625 -1.328125q0.6875 -0.5625 1.640625 -0.875q0.953125 -0.3125 2.078125 -0.3125q1.484375 0 2.734375 0.546875q1.25 0.53125 2.109375 1.390625l-1.0625 1.296875q-0.765625 -0.6875 -1.703125 -1.078125q-0.9375 -0.40625 -2.15625 -0.40625q-1.359375 0 -2.203125 0.609375q-0.84375 0.609375 -0.84375 1.703125q0 0.5625 0.25 0.96875q0.25 0.390625 0.640625 0.6875q0.40625 0.296875 0.90625 0.515625q0.515625 0.21875 1.015625 0.4375l2.203125 0.953125q0.71875 0.296875 1.359375 0.671875q0.640625 0.359375 1.109375 0.859375q0.46875 0.484375 0.734375 1.15625q0.28125 0.65625 0.28125 1.515625q0 0.9375 -0.390625 1.765625q-0.375 0.8125 -1.09375 1.421875q-0.71875 0.609375 -1.765625 0.953125q-1.03125 0.34375 -2.328125 0.34375zm16.853088 0q-1.875 0 -2.859375 -1.046875q-0.984375 -1.0625 -0.984375 -3.140625l0 -11.578125l-4.140625 0l0 -1.609375l6.109375 0l0 13.328125q0 1.296875 0.625 1.859375q0.625 0.5625 1.6875 0.5625q1.03125 0 2.1875 -0.53125l0.5 1.46875q-0.8125 0.328125 -1.484375 0.5q-0.671875 0.1875 -1.640625 0.1875zm11.837463 0q-1.15625 0 -2.203125 -0.40625q-1.046875 -0.40625 -1.84375 -1.1875q-0.78125 -0.78125 -1.25 -1.921875q-0.46875 -1.140625 -0.46875 -2.578125q0 -1.453125 0.46875 -2.59375q0.46875 -1.140625 1.25 -1.9375q0.796875 -0.796875 1.84375 -1.203125q1.046875 -0.40625 2.203125 -0.40625q1.15625 0 2.1875 0.40625q1.046875 0.40625 1.84375 1.203125q0.796875 0.796875 1.25 1.9375q0.46875 1.140625 0.46875 2.59375q0 1.4375 -0.46875 2.578125q-0.453125 1.140625 -1.25 1.921875q-0.796875 0.78125 -1.84375 1.1875q-1.03125 0.40625 -2.1875 0.40625zm0 -1.625q0.84375 0 1.515625 -0.3125q0.6875 -0.328125 1.171875 -0.921875q0.5 -0.59375 0.765625 -1.40625q0.265625 -0.8125 0.265625 -1.828125q0 -1.0 -0.265625 -1.828125q-0.265625 -0.828125 -0.765625 -1.421875q-0.484375 -0.609375 -1.171875 -0.921875q-0.671875 -0.328125 -1.515625 -0.328125q-0.84375 0 -1.53125 0.328125q-0.6875 0.3125 -1.171875 0.921875q-0.484375 0.59375 -0.75 1.421875q-0.265625 0.828125 -0.265625 1.828125q0 1.015625 0.265625 1.828125q0.265625 0.8125 0.75 1.40625q0.484375 0.59375 1.171875 0.921875q0.6875 0.3125 1.53125 0.3125zm9.931213 1.34375l-2.546875 -11.65625l1.96875 0l1.390625 6.765625q0.171875 0.828125 0.28125 1.609375q0.125 0.765625 0.25 1.59375l0.09375 0q0.125 -0.828125 0.296875 -1.609375q0.1875 -0.78125 0.375 -1.59375l1.4375 -6.046875l1.96875 0l1.390625 6.046875q0.203125 0.828125 0.40625 1.609375q0.203125 0.765625 0.328125 1.59375l0.09375 0q0.140625 -0.828125 0.25 -1.59375q0.109375 -0.78125 0.265625 -1.609375l1.40625 -6.765625l1.8125 0l-2.484375 11.65625l-2.546875 0l-1.34375 -5.5625q-0.296875 -1.234375 -0.578125 -3.46875l-0.09375 0q-0.296875 2.234375 -0.578125 3.46875l-1.296875 5.5625l-2.546875 0zm31.971794 0.28125q-0.8125 0 -1.546875 -0.234375q-0.71875 -0.21875 -1.265625 -0.640625q-0.53125 -0.421875 -0.84375 -1.03125q-0.3125 -0.609375 -0.3125 -1.40625q0 -0.984375 0.46875 -1.703125q0.46875 -0.734375 1.484375 -1.265625q1.03125 -0.53125 2.640625 -0.859375q1.609375 -0.34375 3.859375 -0.53125q-0.015625 -0.59375 -0.1875 -1.125q-0.171875 -0.53125 -0.53125 -0.921875q-0.359375 -0.40625 -0.953125 -0.640625q-0.578125 -0.234375 -1.421875 -0.234375q-1.15625 0 -2.21875 0.4375q-1.046875 0.4375 -1.859375 0.953125l-0.765625 -1.34375q0.421875 -0.296875 1.015625 -0.59375q0.59375 -0.296875 1.25 -0.53125q0.65625 -0.25 1.390625 -0.40625q0.75 -0.15625 1.515625 -0.15625q2.40625 0 3.5625 1.3125q1.171875 1.296875 1.171875 3.484375l0 7.15625l-1.609375 0l-0.171875 -1.578125l-0.0625 0q-0.984375 0.765625 -2.171875 1.3125q-1.1875 0.546875 -2.4375 0.546875zm0.53125 -1.578125q1.0 0 1.96875 -0.4375q0.984375 -0.453125 1.984375 -1.296875l0 -3.0625q-1.875 0.140625 -3.140625 0.40625q-1.25 0.265625 -2.015625 0.640625q-0.75 0.359375 -1.0625 0.828125q-0.3125 0.46875 -0.3125 1.046875q0 0.515625 0.21875 0.859375q0.21875 0.34375 0.5625 0.578125q0.34375 0.21875 0.8125 0.328125q0.46875 0.109375 0.984375 0.109375zm10.196838 1.296875l0 -11.65625l1.625 0l0.171875 1.984375l0.09375 0q0.921875 -0.984375 1.96875 -1.625q1.0625 -0.65625 2.421875 -0.65625q2.09375 0 3.0625 1.1875q0.96875 1.1875 0.96875 3.515625l0 7.25l-1.96875 0l0 -6.984375q0 -1.65625 -0.625 -2.453125q-0.609375 -0.8125 -2.0625 -0.8125q-0.515625 0 -0.96875 0.140625q-0.4375 0.125 -0.875 0.390625q-0.4375 0.265625 -0.890625 0.671875q-0.453125 0.390625 -0.953125 0.90625l0 8.140625l-1.96875 0zm18.665588 0.28125q-1.140625 0 -2.078125 -0.40625q-0.921875 -0.40625 -1.59375 -1.1875q-0.671875 -0.78125 -1.03125 -1.90625q-0.359375 -1.125 -0.359375 -2.59375q0 -1.40625 0.4375 -2.546875q0.453125 -1.140625 1.1875 -1.9375q0.734375 -0.796875 1.6875 -1.21875q0.96875 -0.4375 2.0 -0.4375q1.046875 0 1.875 0.40625q0.828125 0.390625 1.59375 1.109375l0.078125 0l-0.09375 -2.15625l0 -4.5l1.96875 0l0 17.09375l-1.640625 0l-0.15625 -1.53125l-0.078125 0q-0.71875 0.734375 -1.71875 1.28125q-1.0 0.53125 -2.078125 0.53125zm0.40625 -1.65625q1.734375 0 3.296875 -1.75l0 -5.796875q-0.796875 -0.75 -1.5625 -1.0625q-0.75 -0.3125 -1.515625 -0.3125q-0.765625 0 -1.421875 0.328125q-0.65625 0.328125 -1.15625 0.921875q-0.484375 0.578125 -0.78125 1.390625q-0.28125 0.8125 -0.28125 1.828125q0 2.109375 0.890625 3.28125q0.90625 1.171875 2.53125 1.171875zm29.331177 1.65625q-1.71875 0 -3.1875 -0.53125q-1.46875 -0.546875 -2.546875 -1.28125l0.90625 -1.296875q1.015625 0.71875 2.21875 1.15625q1.21875 0.421875 2.859375 0.421875q1.484375 0 2.203125 -0.53125q0.734375 -0.546875 0.734375 -1.296875q0 -0.328125 -0.125 -0.609375q-0.109375 -0.296875 -0.515625 -0.5625q-0.390625 -0.265625 -1.109375 -0.5q-0.71875 -0.234375 -1.890625 -0.484375q-2.28125 -0.484375 -3.421875 -1.28125q-1.140625 -0.796875 -1.140625 -2.125q0 -0.703125 0.3125 -1.3125q0.3125 -0.609375 0.921875 -1.046875q0.609375 -0.453125 1.515625 -0.703125q0.90625 -0.25 2.09375 -0.25q1.34375 0 2.59375 0.453125q1.25 0.4375 2.109375 1.03125l-0.953125 1.28125q-0.8125 -0.5625 -1.796875 -0.890625q-0.984375 -0.34375 -2.109375 -0.34375q-1.5 0 -2.09375 0.515625q-0.59375 0.5 -0.59375 1.171875q0 0.765625 0.78125 1.171875q0.796875 0.390625 2.59375 0.765625q1.46875 0.3125 2.40625 0.671875q0.9375 0.34375 1.46875 0.78125q0.546875 0.421875 0.75 0.953125q0.203125 0.53125 0.203125 1.203125q0 0.71875 -0.34375 1.34375q-0.328125 0.625 -1.0 1.109375q-0.65625 0.46875 -1.625 0.734375q-0.96875 0.28125 -2.21875 0.28125zm16.415588 0q-1.265625 0 -2.140625 -0.34375q-0.859375 -0.34375 -1.390625 -0.984375q-0.515625 -0.640625 -0.75 -1.515625q-0.234375 -0.890625 -0.234375 -1.96875l0 -5.53125l-3.28125 0l0 -1.484375l3.359375 -0.109375l0.265625 -3.75l1.625 0l0 3.75l5.734375 0l0 1.59375l-5.734375 0l0 5.546875q0 0.796875 0.140625 1.390625q0.15625 0.578125 0.484375 0.984375q0.34375 0.40625 0.921875 0.625q0.578125 0.203125 1.40625 0.203125q0.84375 0 1.515625 -0.140625q0.671875 -0.15625 1.296875 -0.390625l0.4375 1.4375q-0.796875 0.28125 -1.671875 0.484375q-0.875 0.203125 -1.984375 0.203125zm12.868713 0q-1.328125 0 -2.46875 -0.40625q-1.140625 -0.40625 -2.0 -1.1875q-0.84375 -0.796875 -1.34375 -1.9375q-0.484375 -1.140625 -0.484375 -2.609375q0 -1.40625 0.484375 -2.53125q0.5 -1.140625 1.328125 -1.921875q0.828125 -0.796875 1.890625 -1.21875q1.078125 -0.421875 2.25 -0.421875q1.25 0 2.25 0.40625q1.0 0.390625 1.671875 1.109375q0.6875 0.71875 1.046875 1.734375q0.359375 1.0 0.359375 2.21875q0 0.34375 -0.03125 0.65625q-0.015625 0.3125 -0.0625 0.546875l-9.1875 0q0.1875 2.0 1.453125 3.0q1.265625 0.984375 3.078125 0.984375q1.0625 0 1.90625 -0.296875q0.859375 -0.296875 1.65625 -0.8125l0.71875 1.296875q-0.875 0.578125 -1.984375 0.984375q-1.109375 0.40625 -2.53125 0.40625zm-0.296875 -10.671875q-0.71875 0 -1.375 0.25q-0.65625 0.234375 -1.1875 0.671875q-0.53125 0.4375 -0.890625 1.109375q-0.359375 0.671875 -0.5 1.546875l7.4375 0q-0.125 -1.796875 -1.046875 -2.6875q-0.921875 -0.890625 -2.4375 -0.890625zm12.681213 10.671875q-0.8125 0 -1.546875 -0.234375q-0.71875 -0.21875 -1.265625 -0.640625q-0.53125 -0.421875 -0.84375 -1.03125q-0.3125 -0.609375 -0.3125 -1.40625q0 -0.984375 0.46875 -1.703125q0.46875 -0.734375 1.484375 -1.265625q1.03125 -0.53125 2.640625 -0.859375q1.609375 -0.34375 3.859375 -0.53125q-0.015625 -0.59375 -0.1875 -1.125q-0.171875 -0.53125 -0.53125 -0.921875q-0.359375 -0.40625 -0.953125 -0.640625q-0.578125 -0.234375 -1.421875 -0.234375q-1.15625 0 -2.21875 0.4375q-1.046875 0.4375 -1.859375 0.953125l-0.765625 -1.34375q0.421875 -0.296875 1.015625 -0.59375q0.59375 -0.296875 1.25 -0.53125q0.65625 -0.25 1.390625 -0.40625q0.75 -0.15625 1.515625 -0.15625q2.40625 0 3.5625 1.3125q1.171875 1.296875 1.171875 3.484375l0 7.15625l-1.609375 0l-0.171875 -1.578125l-0.0625 0q-0.984375 0.765625 -2.171875 1.3125q-1.1875 0.546875 -2.4375 0.546875zm0.53125 -1.578125q1.0 0 1.96875 -0.4375q0.984375 -0.453125 1.984375 -1.296875l0 -3.0625q-1.875 0.140625 -3.140625 0.40625q-1.25 0.265625 -2.015625 0.640625q-0.75 0.359375 -1.0625 0.828125q-0.3125 0.46875 -0.3125 1.046875q0 0.515625 0.21875 0.859375q0.21875 0.34375 0.5625 0.578125q0.34375 0.21875 0.8125 0.328125q0.46875 0.109375 0.984375 0.109375zm14.462463 1.578125q-1.140625 0 -2.078125 -0.40625q-0.921875 -0.40625 -1.59375 -1.1875q-0.671875 -0.78125 -1.03125 -1.90625q-0.359375 -1.125 -0.359375 -2.59375q0 -1.40625 0.4375 -2.546875q0.453125 -1.140625 1.1875 -1.9375q0.734375 -0.796875 1.6875 -1.21875q0.96875 -0.4375 2.0 -0.4375q1.046875 0 1.875 0.40625q0.828125 0.390625 1.59375 1.109375l0.078125 0l-0.09375 -2.15625l0 -4.5l1.96875 0l0 17.09375l-1.640625 0l-0.15625 -1.53125l-0.078125 0q-0.71875 0.734375 -1.71875 1.28125q-1.0 0.53125 -2.078125 0.53125zm0.40625 -1.65625q1.734375 0 3.296875 -1.75l0 -5.796875q-0.796875 -0.75 -1.5625 -1.0625q-0.75 -0.3125 -1.515625 -0.3125q-0.765625 0 -1.421875 0.328125q-0.65625 0.328125 -1.15625 0.921875q-0.484375 0.578125 -0.78125 1.390625q-0.28125 0.8125 -0.28125 1.828125q0 2.109375 0.890625 3.28125q0.90625 1.171875 2.53125 1.171875zm10.634338 6.390625q-0.859375 0 -1.53125 -0.234375l0.40625 -1.5625q0.234375 0.0625 0.515625 0.109375q0.28125 0.0625 0.546875 0.0625q1.21875 0 1.984375 -0.71875q0.765625 -0.703125 1.203125 -1.78125l0.359375 -0.859375l-5.453125 -11.6875l2.0 0l2.859375 6.453125q0.328125 0.765625 0.703125 1.65625q0.375 0.890625 0.734375 1.71875l0.09375 0q0.3125 -0.828125 0.625 -1.703125q0.328125 -0.890625 0.625 -1.671875l2.546875 -6.453125l1.859375 0l-5.125 12.609375q-0.34375 0.875 -0.78125 1.609375q-0.421875 0.75 -1.03125 1.28125q-0.59375 0.546875 -1.375 0.859375q-0.78125 0.3125 -1.765625 0.3125zm28.393677 -5.015625l-2.546875 -11.65625l1.96875 0l1.390625 6.765625q0.171875 0.828125 0.28125 1.609375q0.125 0.765625 0.25 1.59375l0.09375 0q0.125 -0.828125 0.296875 -1.609375q0.1875 -0.78125 0.375 -1.59375l1.4375 -6.046875l1.96875 0l1.390625 6.046875q0.203125 0.828125 0.40625 1.609375q0.203125 0.765625 0.328125 1.59375l0.09375 0q0.140625 -0.828125 0.25 -1.59375q0.109375 -0.78125 0.265625 -1.609375l1.40625 -6.765625l1.8125 0l-2.484375 11.65625l-2.546875 0l-1.34375 -5.5625q-0.296875 -1.234375 -0.578125 -3.46875l-0.09375 0q-0.296875 2.234375 -0.578125 3.46875l-1.296875 5.5625l-2.546875 0zm19.243713 0l0 -10.0625l-5.421875 0l0 -1.59375l7.390625 0l0 11.65625l-1.96875 0zm0.625 -14.109375q-0.671875 0 -1.140625 -0.421875q-0.453125 -0.421875 -0.453125 -1.109375q0 -0.703125 0.453125 -1.125q0.46875 -0.421875 1.140625 -0.421875q0.671875 0 1.125 0.421875q0.453125 0.421875 0.453125 1.125q0 0.6875 -0.453125 1.109375q-0.453125 0.421875 -1.125 0.421875zm8.431213 14.109375l0 -11.65625l1.625 0l0.171875 1.984375l0.09375 0q0.921875 -0.984375 1.96875 -1.625q1.0625 -0.65625 2.421875 -0.65625q2.09375 0 3.0625 1.1875q0.96875 1.1875 0.96875 3.515625l0 7.25l-1.96875 0l0 -6.984375q0 -1.65625 -0.625 -2.453125q-0.609375 -0.8125 -2.0625 -0.8125q-0.515625 0 -0.96875 0.140625q-0.4375 0.125 -0.875 0.390625q-0.4375 0.265625 -0.890625 0.671875q-0.453125 0.390625 -0.953125 0.90625l0 8.140625l-1.96875 0zm19.603088 0.28125q-1.71875 0 -3.1875 -0.53125q-1.46875 -0.546875 -2.546875 -1.28125l0.90625 -1.296875q1.015625 0.71875 2.21875 1.15625q1.21875 0.421875 2.859375 0.421875q1.484375 0 2.203125 -0.53125q0.734375 -0.546875 0.734375 -1.296875q0 -0.328125 -0.125 -0.609375q-0.109375 -0.296875 -0.515625 -0.5625q-0.390625 -0.265625 -1.109375 -0.5q-0.71875 -0.234375 -1.890625 -0.484375q-2.28125 -0.484375 -3.421875 -1.28125q-1.140625 -0.796875 -1.140625 -2.125q0 -0.703125 0.3125 -1.3125q0.3125 -0.609375 0.921875 -1.046875q0.609375 -0.453125 1.515625 -0.703125q0.90625 -0.25 2.09375 -0.25q1.34375 0 2.59375 0.453125q1.25 0.4375 2.109375 1.03125l-0.953125 1.28125q-0.8125 -0.5625 -1.796875 -0.890625q-0.984375 -0.34375 -2.109375 -0.34375q-1.5 0 -2.09375 0.515625q-0.59375 0.5 -0.59375 1.171875q0 0.765625 0.78125 1.171875q0.796875 0.390625 2.59375 0.765625q1.46875 0.3125 2.40625 0.671875q0.9375 0.34375 1.46875 0.78125q0.546875 0.421875 0.75 0.953125q0.203125 0.53125 0.203125 1.203125q0 0.71875 -0.34375 1.34375q-0.328125 0.625 -1.0 1.109375q-0.65625 0.46875 -1.625 0.734375q-0.96875 0.28125 -2.21875 0.28125zm30.815552 0q-1.265625 0 -2.140625 -0.34375q-0.859375 -0.34375 -1.390625 -0.984375q-0.515625 -0.640625 -0.75 -1.515625q-0.234375 -0.890625 -0.234375 -1.96875l0 -5.53125l-3.28125 0l0 -1.484375l3.359375 -0.109375l0.265625 -3.75l1.625 0l0 3.75l5.734375 0l0 1.59375l-5.734375 0l0 5.546875q0 0.796875 0.140625 1.390625q0.15625 0.578125 0.484375 0.984375q0.34375 0.40625 0.921875 0.625q0.578125 0.203125 1.40625 0.203125q0.84375 0 1.515625 -0.140625q0.671875 -0.15625 1.296875 -0.390625l0.4375 1.4375q-0.796875 0.28125 -1.671875 0.484375q-0.875 0.203125 -1.984375 0.203125zm7.1812134 -0.28125l0 -17.09375l1.96875 0l0 4.65625l-0.125 2.765625l0.078125 0q0.90625 -0.984375 1.953125 -1.625q1.046875 -0.65625 2.40625 -0.65625q2.09375 0 3.0625 1.1875q0.96875 1.1875 0.96875 3.515625l0 7.25l-1.96875 0l0 -6.984375q0 -1.65625 -0.625 -2.453125q-0.609375 -0.8125 -2.0625 -0.8125q-0.515625 0 -0.96875 0.140625q-0.4375 0.125 -0.875 0.390625q-0.4375 0.265625 -0.890625 0.671875q-0.453125 0.390625 -0.953125 0.90625l0 8.140625l-1.96875 0zm20.087463 0.28125q-1.328125 0 -2.46875 -0.40625q-1.140625 -0.40625 -2.0 -1.1875q-0.84375 -0.796875 -1.34375 -1.9375q-0.484375 -1.140625 -0.484375 -2.609375q0 -1.40625 0.484375 -2.53125q0.5 -1.140625 1.328125 -1.921875q0.828125 -0.796875 1.890625 -1.21875q1.078125 -0.421875 2.25 -0.421875q1.25 0 2.25 0.40625q1.0 0.390625 1.671875 1.109375q0.6875 0.71875 1.046875 1.734375q0.359375 1.0 0.359375 2.21875q0 0.34375 -0.03125 0.65625q-0.015625 0.3125 -0.0625 0.546875l-9.1875 0q0.1875 2.0 1.453125 3.0q1.265625 0.984375 3.078125 0.984375q1.0625 0 1.90625 -0.296875q0.859375 -0.296875 1.65625 -0.8125l0.71875 1.296875q-0.875 0.578125 -1.984375 0.984375q-1.109375 0.40625 -2.53125 0.40625zm-0.296875 -10.671875q-0.71875 0 -1.375 0.25q-0.65625 0.234375 -1.1875 0.671875q-0.53125 0.4375 -0.890625 1.109375q-0.359375 0.671875 -0.5 1.546875l7.4375 0q-0.125 -1.796875 -1.046875 -2.6875q-0.921875 -0.890625 -2.4375 -0.890625z" fill-rule="nonzero"/><path fill="#666666" d="m214.92053 359.75107l0 -11.65625l1.640625 0l0.15625 2.75l0.078125 0q0.90625 -1.40625 2.234375 -2.21875q1.34375 -0.828125 2.96875 -0.828125q0.65625 0 1.203125 0.109375q0.5625 0.109375 1.109375 0.375l-0.453125 1.703125q-0.625 -0.21875 -1.046875 -0.3125q-0.421875 -0.09375 -1.125 -0.09375q-1.3125 0 -2.53125 0.765625q-1.203125 0.75 -2.265625 2.5625l0 6.84375l-1.96875 0zm16.806213 0.28125q-0.8125 0 -1.546875 -0.234375q-0.71875 -0.21875 -1.265625 -0.640625q-0.53125 -0.421875 -0.84375 -1.03125q-0.3125 -0.609375 -0.3125 -1.40625q0 -0.984375 0.46875 -1.703125q0.46875 -0.734375 1.484375 -1.265625q1.03125 -0.53125 2.640625 -0.859375q1.609375 -0.34375 3.859375 -0.53125q-0.015625 -0.59375 -0.1875 -1.125q-0.171875 -0.53125 -0.53125 -0.921875q-0.359375 -0.40625 -0.953125 -0.640625q-0.578125 -0.234375 -1.421875 -0.234375q-1.15625 0 -2.21875 0.4375q-1.046875 0.4375 -1.859375 0.953125l-0.765625 -1.34375q0.421875 -0.296875 1.015625 -0.59375q0.59375 -0.296875 1.25 -0.53125q0.65625 -0.25 1.390625 -0.40625q0.75 -0.15625 1.515625 -0.15625q2.40625 0 3.5625 1.3125q1.171875 1.296875 1.171875 3.484375l0 7.15625l-1.609375 0l-0.171875 -1.578125l-0.0625 0q-0.984375 0.765625 -2.171875 1.3125q-1.1875 0.546875 -2.4375 0.546875zm0.53125 -1.578125q1.0 0 1.96875 -0.4375q0.984375 -0.453125 1.984375 -1.296875l0 -3.0625q-1.875 0.140625 -3.140625 0.40625q-1.25 0.265625 -2.015625 0.640625q-0.75 0.359375 -1.0625 0.828125q-0.3125 0.46875 -0.3125 1.046875q0 0.515625 0.21875 0.859375q0.21875 0.34375 0.5625 0.578125q0.34375 0.21875 0.8125 0.328125q0.46875 0.109375 0.984375 0.109375zm16.259338 1.578125q-1.359375 0 -2.53125 -0.40625q-1.15625 -0.40625 -2.03125 -1.1875q-0.859375 -0.78125 -1.34375 -1.921875q-0.46875 -1.140625 -0.46875 -2.578125q0 -1.453125 0.515625 -2.59375q0.515625 -1.140625 1.40625 -1.9375q0.890625 -0.796875 2.078125 -1.203125q1.1875 -0.40625 2.5 -0.40625q1.4375 0 2.484375 0.515625q1.046875 0.5 1.765625 1.1875l-0.984375 1.28125q-0.71875 -0.625 -1.5 -0.984375q-0.78125 -0.359375 -1.6875 -0.359375q-1.015625 0 -1.859375 0.328125q-0.828125 0.3125 -1.421875 0.921875q-0.59375 0.59375 -0.9375 1.421875q-0.328125 0.828125 -0.328125 1.828125q0 1.015625 0.328125 1.828125q0.328125 0.8125 0.90625 1.40625q0.59375 0.59375 1.421875 0.921875q0.828125 0.3125 1.84375 0.3125q1.078125 0 1.96875 -0.421875q0.90625 -0.421875 1.625 -1.046875l0.890625 1.28125q-0.984375 0.859375 -2.171875 1.34375q-1.171875 0.46875 -2.46875 0.46875zm14.024963 0q-1.328125 0 -2.46875 -0.40625q-1.140625 -0.40625 -2.0 -1.1875q-0.84375 -0.796875 -1.34375 -1.9375q-0.484375 -1.140625 -0.484375 -2.609375q0 -1.40625 0.484375 -2.53125q0.5 -1.140625 1.328125 -1.921875q0.828125 -0.796875 1.890625 -1.21875q1.078125 -0.421875 2.25 -0.421875q1.25 0 2.25 0.40625q1.0 0.390625 1.671875 1.109375q0.6875 0.71875 1.046875 1.734375q0.359375 1.0 0.359375 2.21875q0 0.34375 -0.03125 0.65625q-0.015625 0.3125 -0.0625 0.546875l-9.1875 0q0.1875 2.0 1.453125 3.0q1.265625 0.984375 3.078125 0.984375q1.0625 0 1.90625 -0.296875q0.859375 -0.296875 1.65625 -0.8125l0.71875 1.296875q-0.875 0.578125 -1.984375 0.984375q-1.109375 0.40625 -2.53125 0.40625zm-0.296875 -10.671875q-0.71875 0 -1.375 0.25q-0.65625 0.234375 -1.1875 0.671875q-0.53125 0.4375 -0.890625 1.109375q-0.359375 0.671875 -0.5 1.546875l7.4375 0q-0.125 -1.796875 -1.046875 -2.6875q-0.921875 -0.890625 -2.4375 -0.890625z" fill-rule="nonzero"/><path fill="#000000" fill-opacity="0.0" d="m518.5827 76.031494l402.8346 0l0 387.937l-402.8346 0z" fill-rule="evenodd"/><path fill="#ffffff" d="m527.5827 193.5l316.7992 0l0 28.800003l-316.7992 0l0 -28.800003z" fill-rule="nonzero"/><path fill="#000000" fill-opacity="0.0" d="m527.5827 192.92407l316.7992 0l0 30.167908l-316.7992 0l0 -30.167908z" fill-rule="nonzero"/><path fill="#212121" d="m533.7702 216.54l0 -14.0625l-5.171875 0l0 -1.6875l12.375 0l0 1.6875l-5.1875 0l0 14.0625l-2.015625 0zm15.415588 0.28125q-1.15625 0 -2.203125 -0.40625q-1.046875 -0.40625 -1.84375 -1.1875q-0.78125 -0.78125 -1.25 -1.921875q-0.46875 -1.140625 -0.46875 -2.578125q0 -1.453125 0.46875 -2.59375q0.46875 -1.140625 1.25 -1.9375q0.796875 -0.796875 1.84375 -1.203125q1.046875 -0.40625 2.203125 -0.40625q1.15625 0 2.1875 0.40625q1.046875 0.40625 1.84375 1.203125q0.796875 0.796875 1.25 1.9375q0.46875 1.140625 0.46875 2.59375q0 1.4375 -0.46875 2.578125q-0.453125 1.140625 -1.25 1.921875q-0.796875 0.78125 -1.84375 1.1875q-1.03125 0.40625 -2.1875 0.40625zm0 -1.625q0.84375 0 1.515625 -0.3125q0.6875 -0.328125 1.171875 -0.921875q0.5 -0.59375 0.765625 -1.40625q0.265625 -0.8125 0.265625 -1.828125q0 -1.0 -0.265625 -1.828125q-0.265625 -0.828125 -0.765625 -1.421875q-0.484375 -0.609375 -1.171875 -0.921875q-0.671875 -0.328125 -1.515625 -0.328125q-0.84375 0 -1.53125 0.328125q-0.6875 0.3125 -1.171875 0.921875q-0.484375 0.59375 -0.75 1.421875q-0.265625 0.828125 -0.265625 1.828125q0 1.015625 0.265625 1.828125q0.265625 0.8125 0.75 1.40625q0.484375 0.59375 1.171875 0.921875q0.6875 0.3125 1.53125 0.3125zm13.696838 1.625q-1.140625 0 -2.078125 -0.40625q-0.921875 -0.40625 -1.59375 -1.1875q-0.671875 -0.78125 -1.03125 -1.90625q-0.359375 -1.125 -0.359375 -2.59375q0 -1.40625 0.4375 -2.546875q0.453125 -1.140625 1.1875 -1.9375q0.734375 -0.796875 1.6875 -1.21875q0.96875 -0.4375 2.0 -0.4375q1.046875 0 1.875 0.40625q0.828125 0.390625 1.59375 1.109375l0.078125 0l-0.09375 -2.15625l0 -4.5l1.96875 0l0 17.09375l-1.640625 0l-0.15625 -1.53125l-0.078125 0q-0.71875 0.734375 -1.71875 1.28125q-1.0 0.53125 -2.078125 0.53125zm0.40625 -1.65625q1.734375 0 3.296875 -1.75l0 -5.796875q-0.796875 -0.75 -1.5625 -1.0625q-0.75 -0.3125 -1.515625 -0.3125q-0.765625 0 -1.421875 0.328125q-0.65625 0.328125 -1.15625 0.921875q-0.484375 0.578125 -0.78125 1.390625q-0.28125 0.8125 -0.28125 1.828125q0 2.109375 0.890625 3.28125q0.90625 1.171875 2.53125 1.171875zm13.399963 1.65625q-0.8125 0 -1.546875 -0.234375q-0.71875 -0.21875 -1.265625 -0.640625q-0.53125 -0.421875 -0.84375 -1.03125q-0.3125 -0.609375 -0.3125 -1.40625q0 -0.984375 0.46875 -1.703125q0.46875 -0.734375 1.484375 -1.265625q1.03125 -0.53125 2.640625 -0.859375q1.609375 -0.34375 3.859375 -0.53125q-0.015625 -0.59375 -0.1875 -1.125q-0.171875 -0.53125 -0.53125 -0.921875q-0.359375 -0.40625 -0.953125 -0.640625q-0.578125 -0.234375 -1.421875 -0.234375q-1.15625 0 -2.21875 0.4375q-1.046875 0.4375 -1.859375 0.953125l-0.765625 -1.34375q0.421875 -0.296875 1.015625 -0.59375q0.59375 -0.296875 1.25 -0.53125q0.65625 -0.25 1.390625 -0.40625q0.75 -0.15625 1.515625 -0.15625q2.40625 0 3.5625 1.3125q1.171875 1.296875 1.171875 3.484375l0 7.15625l-1.609375 0l-0.171875 -1.578125l-0.0625 0q-0.984375 0.765625 -2.171875 1.3125q-1.1875 0.546875 -2.4375 0.546875zm0.53125 -1.578125q1.0 0 1.96875 -0.4375q0.984375 -0.453125 1.984375 -1.296875l0 -3.0625q-1.875 0.140625 -3.140625 0.40625q-1.25 0.265625 -2.015625 0.640625q-0.75 0.359375 -1.0625 0.828125q-0.3125 0.46875 -0.3125 1.046875q0 0.515625 0.21875 0.859375q0.21875 0.34375 0.5625 0.578125q0.34375 0.21875 0.8125 0.328125q0.46875 0.109375 0.984375 0.109375zm11.103088 6.3125q-0.859375 0 -1.53125 -0.234375l0.40625 -1.5625q0.234375 0.0625 0.515625 0.109375q0.28125 0.0625 0.546875 0.0625q1.21875 0 1.984375 -0.71875q0.765625 -0.703125 1.203125 -1.78125l0.359375 -0.859375l-5.453125 -11.6875l2.0 0l2.859375 6.453125q0.328125 0.765625 0.703125 1.65625q0.375 0.890625 0.734375 1.71875l0.09375 0q0.3125 -0.828125 0.625 -1.703125q0.328125 -0.890625 0.625 -1.671875l2.546875 -6.453125l1.859375 0l-5.125 12.609375q-0.34375 0.875 -0.78125 1.609375q-0.421875 0.75 -1.03125 1.28125q-0.59375 0.546875 -1.375 0.859375q-0.78125 0.3125 -1.765625 0.3125zm33.237427 -5.015625l0 -10.0625l-5.421875 0l0 -1.59375l7.390625 0l0 11.65625l-1.96875 0zm0.625 -14.109375q-0.671875 0 -1.140625 -0.421875q-0.453125 -0.421875 -0.453125 -1.109375q0 -0.703125 0.453125 -1.125q0.46875 -0.421875 1.140625 -0.421875q0.671875 0 1.125 0.421875q0.453125 0.421875 0.453125 1.125q0 0.6875 -0.453125 1.109375q-0.453125 0.421875 -1.125 0.421875zm13.634338 14.390625q-1.71875 0 -3.1875 -0.53125q-1.46875 -0.546875 -2.546875 -1.28125l0.90625 -1.296875q1.015625 0.71875 2.21875 1.15625q1.21875 0.421875 2.859375 0.421875q1.484375 0 2.203125 -0.53125q0.734375 -0.546875 0.734375 -1.296875q0 -0.328125 -0.125 -0.609375q-0.109375 -0.296875 -0.515625 -0.5625q-0.390625 -0.265625 -1.109375 -0.5q-0.71875 -0.234375 -1.890625 -0.484375q-2.28125 -0.484375 -3.421875 -1.28125q-1.140625 -0.796875 -1.140625 -2.125q0 -0.703125 0.3125 -1.3125q0.3125 -0.609375 0.921875 -1.046875q0.609375 -0.453125 1.515625 -0.703125q0.90625 -0.25 2.09375 -0.25q1.34375 0 2.59375 0.453125q1.25 0.4375 2.109375 1.03125l-0.953125 1.28125q-0.8125 -0.5625 -1.796875 -0.890625q-0.984375 -0.34375 -2.109375 -0.34375q-1.5 0 -2.09375 0.515625q-0.59375 0.5 -0.59375 1.171875q0 0.765625 0.78125 1.171875q0.796875 0.390625 2.59375 0.765625q1.46875 0.3125 2.40625 0.671875q0.9375 0.34375 1.46875 0.78125q0.546875 0.421875 0.75 0.953125q0.203125 0.53125 0.203125 1.203125q0 0.71875 -0.34375 1.34375q-0.328125 0.625 -1.0 1.109375q-0.65625 0.46875 -1.625 0.734375q-0.96875 0.28125 -2.21875 0.28125zm26.018677 4.921875q-0.90625 0 -1.78125 -0.234375q-0.859375 -0.21875 -1.5625 -0.546875l0.65625 -1.46875q0.625 0.3125 1.296875 0.46875q0.6875 0.171875 1.359375 0.171875q0.875 0 1.4375 -0.21875q0.578125 -0.203125 0.90625 -0.609375q0.34375 -0.40625 0.46875 -1.0q0.140625 -0.59375 0.140625 -1.328125l0 -10.5l-5.421875 0l0 -1.59375l7.390625 0l0 11.9375q0 1.09375 -0.234375 1.984375q-0.234375 0.90625 -0.8125 1.5625q-0.5625 0.65625 -1.5 1.015625q-0.921875 0.359375 -2.34375 0.359375zm3.546875 -19.3125q-0.671875 0 -1.140625 -0.421875q-0.453125 -0.421875 -0.453125 -1.109375q0 -0.703125 0.453125 -1.125q0.46875 -0.421875 1.140625 -0.421875q0.671875 0 1.125 0.421875q0.453125 0.421875 0.453125 1.125q0 0.6875 -0.453125 1.109375q-0.453125 0.421875 -1.125 0.421875zm12.103088 14.390625q-2.109375 0 -3.09375 -1.1875q-0.96875 -1.1875 -0.96875 -3.515625l0 -7.234375l2.0 0l0 6.96875q0 1.65625 0.609375 2.46875q0.609375 0.796875 2.078125 0.796875q1.0 0 1.8125 -0.515625q0.828125 -0.515625 1.8125 -1.640625l0 -8.078125l1.96875 0l0 11.65625l-1.609375 0l-0.171875 -2.046875l-0.09375 0q-0.890625 1.03125 -1.9375 1.6875q-1.046875 0.640625 -2.40625 0.640625zm15.931213 0q-1.71875 0 -3.1875 -0.53125q-1.46875 -0.546875 -2.546875 -1.28125l0.90625 -1.296875q1.015625 0.71875 2.21875 1.15625q1.21875 0.421875 2.859375 0.421875q1.484375 0 2.203125 -0.53125q0.734375 -0.546875 0.734375 -1.296875q0 -0.328125 -0.125 -0.609375q-0.109375 -0.296875 -0.515625 -0.5625q-0.390625 -0.265625 -1.109375 -0.5q-0.71875 -0.234375 -1.890625 -0.484375q-2.28125 -0.484375 -3.421875 -1.28125q-1.140625 -0.796875 -1.140625 -2.125q0 -0.703125 0.3125 -1.3125q0.3125 -0.609375 0.921875 -1.046875q0.609375 -0.453125 1.515625 -0.703125q0.90625 -0.25 2.09375 -0.25q1.34375 0 2.59375 0.453125q1.25 0.4375 2.109375 1.03125l-0.953125 1.28125q-0.8125 -0.5625 -1.796875 -0.890625q-0.984375 -0.34375 -2.109375 -0.34375q-1.5 0 -2.09375 0.515625q-0.59375 0.5 -0.59375 1.171875q0 0.765625 0.78125 1.171875q0.796875 0.390625 2.59375 0.765625q1.46875 0.3125 2.40625 0.671875q0.9375 0.34375 1.46875 0.78125q0.546875 0.421875 0.75 0.953125q0.203125 0.53125 0.203125 1.203125q0 0.71875 -0.34375 1.34375q-0.328125 0.625 -1.0 1.109375q-0.65625 0.46875 -1.625 0.734375q-0.96875 0.28125 -2.21875 0.28125zm16.415588 0q-1.265625 0 -2.140625 -0.34375q-0.859375 -0.34375 -1.390625 -0.984375q-0.515625 -0.640625 -0.75 -1.515625q-0.234375 -0.890625 -0.234375 -1.96875l0 -5.53125l-3.28125 0l0 -1.484375l3.359375 -0.109375l0.265625 -3.75l1.625 0l0 3.75l5.734375 0l0 1.59375l-5.734375 0l0 5.546875q0 0.796875 0.140625 1.390625q0.15625 0.578125 0.484375 0.984375q0.34375 0.40625 0.921875 0.625q0.578125 0.203125 1.40625 0.203125q0.84375 0 1.515625 -0.140625q0.671875 -0.15625 1.296875 -0.390625l0.4375 1.4375q-0.796875 0.28125 -1.671875 0.484375q-0.875 0.203125 -1.984375 0.203125zm26.549927 0q-1.15625 0 -2.203125 -0.40625q-1.046875 -0.40625 -1.84375 -1.1875q-0.78125 -0.78125 -1.25 -1.921875q-0.46875 -1.140625 -0.46875 -2.578125q0 -1.453125 0.46875 -2.59375q0.46875 -1.140625 1.25 -1.9375q0.796875 -0.796875 1.84375 -1.203125q1.046875 -0.40625 2.203125 -0.40625q1.15625 0 2.1875 0.40625q1.046875 0.40625 1.84375 1.203125q0.796875 0.796875 1.25 1.9375q0.46875 1.140625 0.46875 2.59375q0 1.4375 -0.46875 2.578125q-0.453125 1.140625 -1.25 1.921875q-0.796875 0.78125 -1.84375 1.1875q-1.03125 0.40625 -2.1875 0.40625zm0 -1.625q0.84375 0 1.515625 -0.3125q0.6875 -0.328125 1.171875 -0.921875q0.5 -0.59375 0.765625 -1.40625q0.265625 -0.8125 0.265625 -1.828125q0 -1.0 -0.265625 -1.828125q-0.265625 -0.828125 -0.765625 -1.421875q-0.484375 -0.609375 -1.171875 -0.921875q-0.671875 -0.328125 -1.515625 -0.328125q-0.84375 0 -1.53125 0.328125q-0.6875 0.3125 -1.171875 0.921875q-0.484375 0.59375 -0.75 1.421875q-0.265625 0.828125 -0.265625 1.828125q0 1.015625 0.265625 1.828125q0.265625 0.8125 0.75 1.40625q0.484375 0.59375 1.171875 0.921875q0.6875 0.3125 1.53125 0.3125zm9.431213 1.34375l0 -11.65625l1.625 0l0.171875 1.984375l0.09375 0q0.921875 -0.984375 1.96875 -1.625q1.0625 -0.65625 2.421875 -0.65625q2.09375 0 3.0625 1.1875q0.96875 1.1875 0.96875 3.515625l0 7.25l-1.96875 0l0 -6.984375q0 -1.65625 -0.625 -2.453125q-0.609375 -0.8125 -2.0625 -0.8125q-0.515625 0 -0.96875 0.140625q-0.4375 0.125 -0.875 0.390625q-0.4375 0.265625 -0.890625 0.671875q-0.453125 0.390625 -0.953125 0.90625l0 8.140625l-1.96875 0zm20.087463 0.28125q-1.328125 0 -2.46875 -0.40625q-1.140625 -0.40625 -2.0 -1.1875q-0.84375 -0.796875 -1.34375 -1.9375q-0.484375 -1.140625 -0.484375 -2.609375q0 -1.40625 0.484375 -2.53125q0.5 -1.140625 1.328125 -1.921875q0.828125 -0.796875 1.890625 -1.21875q1.078125 -0.421875 2.25 -0.421875q1.25 0 2.25 0.40625q1.0 0.390625 1.671875 1.109375q0.6875 0.71875 1.046875 1.734375q0.359375 1.0 0.359375 2.21875q0 0.34375 -0.03125 0.65625q-0.015625 0.3125 -0.0625 0.546875l-9.1875 0q0.1875 2.0 1.453125 3.0q1.265625 0.984375 3.078125 0.984375q1.0625 0 1.90625 -0.296875q0.859375 -0.296875 1.65625 -0.8125l0.71875 1.296875q-0.875 0.578125 -1.984375 0.984375q-1.109375 0.40625 -2.53125 0.40625zm-0.296875 -10.671875q-0.71875 0 -1.375 0.25q-0.65625 0.234375 -1.1875 0.671875q-0.53125 0.4375 -0.890625 1.109375q-0.359375 0.671875 -0.5 1.546875l7.4375 0q-0.125 -1.796875 -1.046875 -2.6875q-0.921875 -0.890625 -2.4375 -0.890625zm27.674927 10.671875q-1.140625 0 -2.078125 -0.40625q-0.921875 -0.40625 -1.59375 -1.1875q-0.671875 -0.78125 -1.03125 -1.90625q-0.359375 -1.125 -0.359375 -2.59375q0 -1.40625 0.4375 -2.546875q0.453125 -1.140625 1.1875 -1.9375q0.734375 -0.796875 1.6875 -1.21875q0.96875 -0.4375 2.0 -0.4375q1.046875 0 1.875 0.40625q0.828125 0.390625 1.59375 1.109375l0.078125 0l-0.09375 -2.15625l0 -4.5l1.96875 0l0 17.09375l-1.640625 0l-0.15625 -1.53125l-0.078125 0q-0.71875 0.734375 -1.71875 1.28125q-1.0 0.53125 -2.078125 0.53125zm0.40625 -1.65625q1.734375 0 3.296875 -1.75l0 -5.796875q-0.796875 -0.75 -1.5625 -1.0625q-0.75 -0.3125 -1.515625 -0.3125q-0.765625 0 -1.421875 0.328125q-0.65625 0.328125 -1.15625 0.921875q-0.484375 0.578125 -0.78125 1.390625q-0.28125 0.8125 -0.28125 1.828125q0 2.109375 0.890625 3.28125q0.90625 1.171875 2.53125 1.171875zm13.399963 1.65625q-0.8125 0 -1.546875 -0.234375q-0.71875 -0.21875 -1.265625 -0.640625q-0.53125 -0.421875 -0.84375 -1.03125q-0.3125 -0.609375 -0.3125 -1.40625q0 -0.984375 0.46875 -1.703125q0.46875 -0.734375 1.484375 -1.265625q1.03125 -0.53125 2.640625 -0.859375q1.609375 -0.34375 3.859375 -0.53125q-0.015625 -0.59375 -0.1875 -1.125q-0.171875 -0.53125 -0.53125 -0.921875q-0.359375 -0.40625 -0.953125 -0.640625q-0.578125 -0.234375 -1.421875 -0.234375q-1.15625 0 -2.21875 0.4375q-1.046875 0.4375 -1.859375 0.953125l-0.765625 -1.34375q0.421875 -0.296875 1.015625 -0.59375q0.59375 -0.296875 1.25 -0.53125q0.65625 -0.25 1.390625 -0.40625q0.75 -0.15625 1.515625 -0.15625q2.40625 0 3.5625 1.3125q1.171875 1.296875 1.171875 3.484375l0 7.15625l-1.609375 0l-0.171875 -1.578125l-0.0625 0q-0.984375 0.765625 -2.171875 1.3125q-1.1875 0.546875 -2.4375 0.546875zm0.53125 -1.578125q1.0 0 1.96875 -0.4375q0.984375 -0.453125 1.984375 -1.296875l0 -3.0625q-1.875 0.140625 -3.140625 0.40625q-1.25 0.265625 -2.015625 0.640625q-0.75 0.359375 -1.0625 0.828125q-0.3125 0.46875 -0.3125 1.046875q0 0.515625 0.21875 0.859375q0.21875 0.34375 0.5625 0.578125q0.34375 0.21875 0.8125 0.328125q0.46875 0.109375 0.984375 0.109375zm11.103088 6.3125q-0.859375 0 -1.53125 -0.234375l0.40625 -1.5625q0.234375 0.0625 0.515625 0.109375q0.28125 0.0625 0.546875 0.0625q1.21875 0 1.984375 -0.71875q0.765625 -0.703125 1.203125 -1.78125l0.359375 -0.859375l-5.453125 -11.6875l2.0 0l2.859375 6.453125q0.328125 0.765625 0.703125 1.65625q0.375 0.890625 0.734375 1.71875l0.09375 0q0.3125 -0.828125 0.625 -1.703125q0.328125 -0.890625 0.625 -1.671875l2.546875 -6.453125l1.859375 0l-5.125 12.609375q-0.34375 0.875 -0.78125 1.609375q-0.421875 0.75 -1.03125 1.28125q-0.59375 0.546875 -1.375 0.859375q-0.78125 0.3125 -1.765625 0.3125zm18.462463 -4.734375q-0.8125 0 -1.390625 -0.546875q-0.5625 -0.546875 -0.5625 -1.46875q0 -0.90625 0.5625 -1.46875q0.578125 -0.5625 1.390625 -0.5625q0.8125 0 1.375 0.5625q0.5625 0.5625 0.5625 1.46875q0 0.921875 -0.5625 1.46875q-0.5625 0.546875 -1.375 0.546875z" fill-rule="nonzero"/><path fill="#000000" fill-opacity="0.0" d="m844.3819 192.92407l14.399963 0l0 30.167908l-14.399963 0l0 -30.167908z" fill-rule="nonzero"/><path fill="#ffffff" d="m527.5827 226.5l345.59912 0l0 28.800003l-345.59912 0l0 -28.800003z" fill-rule="nonzero"/><path fill="#000000" fill-opacity="0.0" d="m527.5827 225.92406l345.59912 0l0 30.167923l-345.59912 0l0 -30.167923z" fill-rule="nonzero"/><path fill="#212121" d="m533.7702 249.54l0 -14.0625l-5.171875 0l0 -1.6875l12.375 0l0 1.6875l-5.1875 0l0 14.0625l-2.015625 0zm15.415588 0.28125q-1.15625 0 -2.203125 -0.40625q-1.046875 -0.40625 -1.84375 -1.1875q-0.78125 -0.78125 -1.25 -1.921875q-0.46875 -1.140625 -0.46875 -2.578125q0 -1.453125 0.46875 -2.59375q0.46875 -1.140625 1.25 -1.9375q0.796875 -0.796875 1.84375 -1.203125q1.046875 -0.40625 2.203125 -0.40625q1.15625 0 2.1875 0.40625q1.046875 0.40625 1.84375 1.203125q0.796875 0.796875 1.25 1.9375q0.46875 1.140625 0.46875 2.59375q0 1.4375 -0.46875 2.578125q-0.453125 1.140625 -1.25 1.921875q-0.796875 0.78125 -1.84375 1.1875q-1.03125 0.40625 -2.1875 0.40625zm0 -1.625q0.84375 0 1.515625 -0.3125q0.6875 -0.328125 1.171875 -0.921875q0.5 -0.59375 0.765625 -1.40625q0.265625 -0.8125 0.265625 -1.828125q0 -1.0 -0.265625 -1.828125q-0.265625 -0.828125 -0.765625 -1.421875q-0.484375 -0.609375 -1.171875 -0.921875q-0.671875 -0.328125 -1.515625 -0.328125q-0.84375 0 -1.53125 0.328125q-0.6875 0.3125 -1.171875 0.921875q-0.484375 0.59375 -0.75 1.421875q-0.265625 0.828125 -0.265625 1.828125q0 1.015625 0.265625 1.828125q0.265625 0.8125 0.75 1.40625q0.484375 0.59375 1.171875 0.921875q0.6875 0.3125 1.53125 0.3125zm8.587463 1.34375l0 -11.65625l1.578125 0l0.171875 1.53125l0.046875 0q0.453125 -0.8125 1.046875 -1.3125q0.609375 -0.515625 1.625 -0.515625q1.703125 0 2.203125 2.015625q0.5 -0.9375 1.109375 -1.46875q0.625 -0.546875 1.625 -0.546875q1.234375 0 1.90625 0.921875q0.6875 0.921875 0.6875 2.671875l0 8.359375l-1.96875 0l0 -8.203125q0 -2.046875 -1.25 -2.046875q-0.625 0 -1.015625 0.453125q-0.375 0.4375 -0.859375 1.34375l0 8.453125l-1.8125 0l0 -8.203125q0 -1.015625 -0.28125 -1.53125q-0.28125 -0.515625 -0.921875 -0.515625q-0.625 0 -1.0625 0.453125q-0.421875 0.4375 -0.859375 1.34375l0 8.453125l-1.96875 0zm20.212463 0.28125q-1.15625 0 -2.203125 -0.40625q-1.046875 -0.40625 -1.84375 -1.1875q-0.78125 -0.78125 -1.25 -1.921875q-0.46875 -1.140625 -0.46875 -2.578125q0 -1.453125 0.46875 -2.59375q0.46875 -1.140625 1.25 -1.9375q0.796875 -0.796875 1.84375 -1.203125q1.046875 -0.40625 2.203125 -0.40625q1.15625 0 2.1875 0.40625q1.046875 0.40625 1.84375 1.203125q0.796875 0.796875 1.25 1.9375q0.46875 1.140625 0.46875 2.59375q0 1.4375 -0.46875 2.578125q-0.453125 1.140625 -1.25 1.921875q-0.796875 0.78125 -1.84375 1.1875q-1.03125 0.40625 -2.1875 0.40625zm0 -1.625q0.84375 0 1.515625 -0.3125q0.6875 -0.328125 1.171875 -0.921875q0.5 -0.59375 0.765625 -1.40625q0.265625 -0.8125 0.265625 -1.828125q0 -1.0 -0.265625 -1.828125q-0.265625 -0.828125 -0.765625 -1.421875q-0.484375 -0.609375 -1.171875 -0.921875q-0.671875 -0.328125 -1.515625 -0.328125q-0.84375 0 -1.53125 0.328125q-0.6875 0.3125 -1.171875 0.921875q-0.484375 0.59375 -0.75 1.421875q-0.265625 0.828125 -0.265625 1.828125q0 1.015625 0.265625 1.828125q0.265625 0.8125 0.75 1.40625q0.484375 0.59375 1.171875 0.921875q0.6875 0.3125 1.53125 0.3125zm10.696838 1.34375l0 -11.65625l1.640625 0l0.15625 2.75l0.078125 0q0.90625 -1.40625 2.234375 -2.21875q1.34375 -0.828125 2.96875 -0.828125q0.65625 0 1.203125 0.109375q0.5625 0.109375 1.109375 0.375l-0.453125 1.703125q-0.625 -0.21875 -1.046875 -0.3125q-0.421875 -0.09375 -1.125 -0.09375q-1.3125 0 -2.53125 0.765625q-1.203125 0.75 -2.265625 2.5625l0 6.84375l-1.96875 0zm14.399963 0l0 -11.65625l1.640625 0l0.15625 2.75l0.078125 0q0.90625 -1.40625 2.234375 -2.21875q1.34375 -0.828125 2.96875 -0.828125q0.65625 0 1.203125 0.109375q0.5625 0.109375 1.109375 0.375l-0.453125 1.703125q-0.625 -0.21875 -1.046875 -0.3125q-0.421875 -0.09375 -1.125 -0.09375q-1.3125 0 -2.53125 0.765625q-1.203125 0.75 -2.265625 2.5625l0 6.84375l-1.96875 0zm18.103088 0.28125q-1.15625 0 -2.203125 -0.40625q-1.046875 -0.40625 -1.84375 -1.1875q-0.78125 -0.78125 -1.25 -1.921875q-0.46875 -1.140625 -0.46875 -2.578125q0 -1.453125 0.46875 -2.59375q0.46875 -1.140625 1.25 -1.9375q0.796875 -0.796875 1.84375 -1.203125q1.046875 -0.40625 2.203125 -0.40625q1.15625 0 2.1875 0.40625q1.046875 0.40625 1.84375 1.203125q0.796875 0.796875 1.25 1.9375q0.46875 1.140625 0.46875 2.59375q0 1.4375 -0.46875 2.578125q-0.453125 1.140625 -1.25 1.921875q-0.796875 0.78125 -1.84375 1.1875q-1.03125 0.40625 -2.1875 0.40625zm0 -1.625q0.84375 0 1.515625 -0.3125q0.6875 -0.328125 1.171875 -0.921875q0.5 -0.59375 0.765625 -1.40625q0.265625 -0.8125 0.265625 -1.828125q0 -1.0 -0.265625 -1.828125q-0.265625 -0.828125 -0.765625 -1.421875q-0.484375 -0.609375 -1.171875 -0.921875q-0.671875 -0.328125 -1.515625 -0.328125q-0.84375 0 -1.53125 0.328125q-0.6875 0.3125 -1.171875 0.921875q-0.484375 0.59375 -0.75 1.421875q-0.265625 0.828125 -0.265625 1.828125q0 1.015625 0.265625 1.828125q0.265625 0.8125 0.75 1.40625q0.484375 0.59375 1.171875 0.921875q0.6875 0.3125 1.53125 0.3125zm9.931213 1.34375l-2.546875 -11.65625l1.96875 0l1.390625 6.765625q0.171875 0.828125 0.28125 1.609375q0.125 0.765625 0.25 1.59375l0.09375 0q0.125 -0.828125 0.296875 -1.609375q0.1875 -0.78125 0.375 -1.59375l1.4375 -6.046875l1.96875 0l1.390625 6.046875q0.203125 0.828125 0.40625 1.609375q0.203125 0.765625 0.328125 1.59375l0.09375 0q0.140625 -0.828125 0.25 -1.59375q0.109375 -0.78125 0.265625 -1.609375l1.40625 -6.765625l1.8125 0l-2.484375 11.65625l-2.546875 0l-1.34375 -5.5625q-0.296875 -1.234375 -0.578125 -3.46875l-0.09375 0q-0.296875 2.234375 -0.578125 3.46875l-1.296875 5.5625l-2.546875 0zm33.643677 0l0 -10.0625l-5.421875 0l0 -1.59375l7.390625 0l0 11.65625l-1.96875 0zm0.625 -14.109375q-0.671875 0 -1.140625 -0.421875q-0.453125 -0.421875 -0.453125 -1.109375q0 -0.703125 0.453125 -1.125q0.46875 -0.421875 1.140625 -0.421875q0.671875 0 1.125 0.421875q0.453125 0.421875 0.453125 1.125q0 0.6875 -0.453125 1.109375q-0.453125 0.421875 -1.125 0.421875zm13.634338 14.390625q-1.71875 0 -3.1875 -0.53125q-1.46875 -0.546875 -2.546875 -1.28125l0.90625 -1.296875q1.015625 0.71875 2.21875 1.15625q1.21875 0.421875 2.859375 0.421875q1.484375 0 2.203125 -0.53125q0.734375 -0.546875 0.734375 -1.296875q0 -0.328125 -0.125 -0.609375q-0.109375 -0.296875 -0.515625 -0.5625q-0.390625 -0.265625 -1.109375 -0.5q-0.71875 -0.234375 -1.890625 -0.484375q-2.28125 -0.484375 -3.421875 -1.28125q-1.140625 -0.796875 -1.140625 -2.125q0 -0.703125 0.3125 -1.3125q0.3125 -0.609375 0.921875 -1.046875q0.609375 -0.453125 1.515625 -0.703125q0.90625 -0.25 2.09375 -0.25q1.34375 0 2.59375 0.453125q1.25 0.4375 2.109375 1.03125l-0.953125 1.28125q-0.8125 -0.5625 -1.796875 -0.890625q-0.984375 -0.34375 -2.109375 -0.34375q-1.5 0 -2.09375 0.515625q-0.59375 0.5 -0.59375 1.171875q0 0.765625 0.78125 1.171875q0.796875 0.390625 2.59375 0.765625q1.46875 0.3125 2.40625 0.671875q0.9375 0.34375 1.46875 0.78125q0.546875 0.421875 0.75 0.953125q0.203125 0.53125 0.203125 1.203125q0 0.71875 -0.34375 1.34375q-0.328125 0.625 -1.0 1.109375q-0.65625 0.46875 -1.625 0.734375q-0.96875 0.28125 -2.21875 0.28125zm27.268677 0q-0.8125 0 -1.546875 -0.234375q-0.71875 -0.21875 -1.265625 -0.640625q-0.53125 -0.421875 -0.84375 -1.03125q-0.3125 -0.609375 -0.3125 -1.40625q0 -0.984375 0.46875 -1.703125q0.46875 -0.734375 1.484375 -1.265625q1.03125 -0.53125 2.640625 -0.859375q1.609375 -0.34375 3.859375 -0.53125q-0.015625 -0.59375 -0.1875 -1.125q-0.171875 -0.53125 -0.53125 -0.921875q-0.359375 -0.40625 -0.953125 -0.640625q-0.578125 -0.234375 -1.421875 -0.234375q-1.15625 0 -2.21875 0.4375q-1.046875 0.4375 -1.859375 0.953125l-0.765625 -1.34375q0.421875 -0.296875 1.015625 -0.59375q0.59375 -0.296875 1.25 -0.53125q0.65625 -0.25 1.390625 -0.40625q0.75 -0.15625 1.515625 -0.15625q2.40625 0 3.5625 1.3125q1.171875 1.296875 1.171875 3.484375l0 7.15625l-1.609375 0l-0.171875 -1.578125l-0.0625 0q-0.984375 0.765625 -2.171875 1.3125q-1.1875 0.546875 -2.4375 0.546875zm0.53125 -1.578125q1.0 0 1.96875 -0.4375q0.984375 -0.453125 1.984375 -1.296875l0 -3.0625q-1.875 0.140625 -3.140625 0.40625q-1.25 0.265625 -2.015625 0.640625q-0.75 0.359375 -1.0625 0.828125q-0.3125 0.46875 -0.3125 1.046875q0 0.515625 0.21875 0.859375q0.21875 0.34375 0.5625 0.578125q0.34375 0.21875 0.8125 0.328125q0.46875 0.109375 0.984375 0.109375zm10.196838 1.296875l0 -11.65625l1.625 0l0.171875 1.984375l0.09375 0q0.921875 -0.984375 1.96875 -1.625q1.0625 -0.65625 2.421875 -0.65625q2.09375 0 3.0625 1.1875q0.96875 1.1875 0.96875 3.515625l0 7.25l-1.96875 0l0 -6.984375q0 -1.65625 -0.625 -2.453125q-0.609375 -0.8125 -2.0625 -0.8125q-0.515625 0 -0.96875 0.140625q-0.4375 0.125 -0.875 0.390625q-0.4375 0.265625 -0.890625 0.671875q-0.453125 0.390625 -0.953125 0.90625l0 8.140625l-1.96875 0zm19.368713 0.28125q-1.15625 0 -2.203125 -0.40625q-1.046875 -0.40625 -1.84375 -1.1875q-0.78125 -0.78125 -1.25 -1.921875q-0.46875 -1.140625 -0.46875 -2.578125q0 -1.453125 0.46875 -2.59375q0.46875 -1.140625 1.25 -1.9375q0.796875 -0.796875 1.84375 -1.203125q1.046875 -0.40625 2.203125 -0.40625q1.15625 0 2.1875 0.40625q1.046875 0.40625 1.84375 1.203125q0.796875 0.796875 1.25 1.9375q0.46875 1.140625 0.46875 2.59375q0 1.4375 -0.46875 2.578125q-0.453125 1.140625 -1.25 1.921875q-0.796875 0.78125 -1.84375 1.1875q-1.03125 0.40625 -2.1875 0.40625zm0 -1.625q0.84375 0 1.515625 -0.3125q0.6875 -0.328125 1.171875 -0.921875q0.5 -0.59375 0.765625 -1.40625q0.265625 -0.8125 0.265625 -1.828125q0 -1.0 -0.265625 -1.828125q-0.265625 -0.828125 -0.765625 -1.421875q-0.484375 -0.609375 -1.171875 -0.921875q-0.671875 -0.328125 -1.515625 -0.328125q-0.84375 0 -1.53125 0.328125q-0.6875 0.3125 -1.171875 0.921875q-0.484375 0.59375 -0.75 1.421875q-0.265625 0.828125 -0.265625 1.828125q0 1.015625 0.265625 1.828125q0.265625 0.8125 0.75 1.40625q0.484375 0.59375 1.171875 0.921875q0.6875 0.3125 1.53125 0.3125zm16.649963 1.625q-1.265625 0 -2.140625 -0.34375q-0.859375 -0.34375 -1.390625 -0.984375q-0.515625 -0.640625 -0.75 -1.515625q-0.234375 -0.890625 -0.234375 -1.96875l0 -5.53125l-3.28125 0l0 -1.484375l3.359375 -0.109375l0.265625 -3.75l1.625 0l0 3.75l5.734375 0l0 1.59375l-5.734375 0l0 5.546875q0 0.796875 0.140625 1.390625q0.15625 0.578125 0.484375 0.984375q0.34375 0.40625 0.921875 0.625q0.578125 0.203125 1.40625 0.203125q0.84375 0 1.515625 -0.140625q0.671875 -0.15625 1.296875 -0.390625l0.4375 1.4375q-0.796875 0.28125 -1.671875 0.484375q-0.875 0.203125 -1.984375 0.203125zm7.1812134 -0.28125l0 -17.09375l1.96875 0l0 4.65625l-0.125 2.765625l0.078125 0q0.90625 -0.984375 1.953125 -1.625q1.046875 -0.65625 2.40625 -0.65625q2.09375 0 3.0625 1.1875q0.96875 1.1875 0.96875 3.515625l0 7.25l-1.96875 0l0 -6.984375q0 -1.65625 -0.625 -2.453125q-0.609375 -0.8125 -2.0625 -0.8125q-0.515625 0 -0.96875 0.140625q-0.4375 0.125 -0.875 0.390625q-0.4375 0.265625 -0.890625 0.671875q-0.453125 0.390625 -0.953125 0.90625l0 8.140625l-1.96875 0zm20.087463 0.28125q-1.328125 0 -2.46875 -0.40625q-1.140625 -0.40625 -2.0 -1.1875q-0.84375 -0.796875 -1.34375 -1.9375q-0.484375 -1.140625 -0.484375 -2.609375q0 -1.40625 0.484375 -2.53125q0.5 -1.140625 1.328125 -1.921875q0.828125 -0.796875 1.890625 -1.21875q1.078125 -0.421875 2.25 -0.421875q1.25 0 2.25 0.40625q1.0 0.390625 1.671875 1.109375q0.6875 0.71875 1.046875 1.734375q0.359375 1.0 0.359375 2.21875q0 0.34375 -0.03125 0.65625q-0.015625 0.3125 -0.0625 0.546875l-9.1875 0q0.1875 2.0 1.453125 3.0q1.265625 0.984375 3.078125 0.984375q1.0625 0 1.90625 -0.296875q0.859375 -0.296875 1.65625 -0.8125l0.71875 1.296875q-0.875 0.578125 -1.984375 0.984375q-1.109375 0.40625 -2.53125 0.40625zm-0.296875 -10.671875q-0.71875 0 -1.375 0.25q-0.65625 0.234375 -1.1875 0.671875q-0.53125 0.4375 -0.890625 1.109375q-0.359375 0.671875 -0.5 1.546875l7.4375 0q-0.125 -1.796875 -1.046875 -2.6875q-0.921875 -0.890625 -2.4375 -0.890625zm10.274963 10.390625l0 -11.65625l1.640625 0l0.15625 2.75l0.078125 0q0.90625 -1.40625 2.234375 -2.21875q1.34375 -0.828125 2.96875 -0.828125q0.65625 0 1.203125 0.109375q0.5625 0.109375 1.109375 0.375l-0.453125 1.703125q-0.625 -0.21875 -1.046875 -0.3125q-0.421875 -0.09375 -1.125 -0.09375q-1.3125 0 -2.53125 0.765625q-1.203125 0.75 -2.265625 2.5625l0 6.84375l-1.96875 0zm31.799927 0.28125q-1.140625 0 -2.078125 -0.40625q-0.921875 -0.40625 -1.59375 -1.1875q-0.671875 -0.78125 -1.03125 -1.90625q-0.359375 -1.125 -0.359375 -2.59375q0 -1.40625 0.4375 -2.546875q0.453125 -1.140625 1.1875 -1.9375q0.734375 -0.796875 1.6875 -1.21875q0.96875 -0.4375 2.0 -0.4375q1.046875 0 1.875 0.40625q0.828125 0.390625 1.59375 1.109375l0.078125 0l-0.09375 -2.15625l0 -4.5l1.96875 0l0 17.09375l-1.640625 0l-0.15625 -1.53125l-0.078125 0q-0.71875 0.734375 -1.71875 1.28125q-1.0 0.53125 -2.078125 0.53125zm0.40625 -1.65625q1.734375 0 3.296875 -1.75l0 -5.796875q-0.796875 -0.75 -1.5625 -1.0625q-0.75 -0.3125 -1.515625 -0.3125q-0.765625 0 -1.421875 0.328125q-0.65625 0.328125 -1.15625 0.921875q-0.484375 0.578125 -0.78125 1.390625q-0.28125 0.8125 -0.28125 1.828125q0 2.109375 0.890625 3.28125q0.90625 1.171875 2.53125 1.171875zm13.399963 1.65625q-0.8125 0 -1.546875 -0.234375q-0.71875 -0.21875 -1.265625 -0.640625q-0.53125 -0.421875 -0.84375 -1.03125q-0.3125 -0.609375 -0.3125 -1.40625q0 -0.984375 0.46875 -1.703125q0.46875 -0.734375 1.484375 -1.265625q1.03125 -0.53125 2.640625 -0.859375q1.609375 -0.34375 3.859375 -0.53125q-0.015625 -0.59375 -0.1875 -1.125q-0.171875 -0.53125 -0.53125 -0.921875q-0.359375 -0.40625 -0.953125 -0.640625q-0.578125 -0.234375 -1.421875 -0.234375q-1.15625 0 -2.21875 0.4375q-1.046875 0.4375 -1.859375 0.953125l-0.765625 -1.34375q0.421875 -0.296875 1.015625 -0.59375q0.59375 -0.296875 1.25 -0.53125q0.65625 -0.25 1.390625 -0.40625q0.75 -0.15625 1.515625 -0.15625q2.40625 0 3.5625 1.3125q1.171875 1.296875 1.171875 3.484375l0 7.15625l-1.609375 0l-0.171875 -1.578125l-0.0625 0q-0.984375 0.765625 -2.171875 1.3125q-1.1875 0.546875 -2.4375 0.546875zm0.53125 -1.578125q1.0 0 1.96875 -0.4375q0.984375 -0.453125 1.984375 -1.296875l0 -3.0625q-1.875 0.140625 -3.140625 0.40625q-1.25 0.265625 -2.015625 0.640625q-0.75 0.359375 -1.0625 0.828125q-0.3125 0.46875 -0.3125 1.046875q0 0.515625 0.21875 0.859375q0.21875 0.34375 0.5625 0.578125q0.34375 0.21875 0.8125 0.328125q0.46875 0.109375 0.984375 0.109375zm11.103088 6.3125q-0.859375 0 -1.53125 -0.234375l0.40625 -1.5625q0.234375 0.0625 0.515625 0.109375q0.28125 0.0625 0.546875 0.0625q1.21875 0 1.984375 -0.71875q0.765625 -0.703125 1.203125 -1.78125l0.359375 -0.859375l-5.453125 -11.6875l2.0 0l2.859375 6.453125q0.328125 0.765625 0.703125 1.65625q0.375 0.890625 0.734375 1.71875l0.09375 0q0.3125 -0.828125 0.625 -1.703125q0.328125 -0.890625 0.625 -1.671875l2.546875 -6.453125l1.859375 0l-5.125 12.609375q-0.34375 0.875 -0.78125 1.609375q-0.421875 0.75 -1.03125 1.28125q-0.59375 0.546875 -1.375 0.859375q-0.78125 0.3125 -1.765625 0.3125zm18.462463 -4.734375q-0.8125 0 -1.390625 -0.546875q-0.5625 -0.546875 -0.5625 -1.46875q0 -0.90625 0.5625 -1.46875q0.578125 -0.5625 1.390625 -0.5625q0.8125 0 1.375 0.5625q0.5625 0.5625 0.5625 1.46875q0 0.921875 -0.5625 1.46875q-0.5625 0.546875 -1.375 0.546875z" fill-rule="nonzero"/><path fill="#000000" fill-opacity="0.0" d="m873.1818 225.92406l14.399963 0l0 30.167923l-14.399963 0l0 -30.167923z" fill-rule="nonzero"/><path fill="#ffffff" d="m527.5827 259.5l374.39905 0l0 28.799988l-374.39905 0l0 -28.799988z" fill-rule="nonzero"/><path fill="#000000" fill-opacity="0.0" d="m527.5827 258.92407l374.39905 0l0 30.167908l-374.39905 0l0 -30.167908z" fill-rule="nonzero"/><path fill="#212121" d="m533.7702 282.54l0 -14.0625l-5.171875 0l0 -1.6875l12.375 0l0 1.6875l-5.1875 0l0 14.0625l-2.015625 0zm14.118713 0.28125q-0.8125 0 -1.546875 -0.234375q-0.71875 -0.21875 -1.265625 -0.640625q-0.53125 -0.421875 -0.84375 -1.03125q-0.3125 -0.609375 -0.3125 -1.40625q0 -0.984375 0.46875 -1.703125q0.46875 -0.734375 1.484375 -1.265625q1.03125 -0.53125 2.640625 -0.859375q1.609375 -0.34375 3.859375 -0.53125q-0.015625 -0.59375 -0.1875 -1.125q-0.171875 -0.53125 -0.53125 -0.921875q-0.359375 -0.40625 -0.953125 -0.640625q-0.578125 -0.234375 -1.421875 -0.234375q-1.15625 0 -2.21875 0.4375q-1.046875 0.4375 -1.859375 0.953125l-0.765625 -1.34375q0.421875 -0.296875 1.015625 -0.59375q0.59375 -0.296875 1.25 -0.53125q0.65625 -0.25 1.390625 -0.40625q0.75 -0.15625 1.515625 -0.15625q2.40625 0 3.5625 1.3125q1.171875 1.296875 1.171875 3.484375l0 7.15625l-1.609375 0l-0.171875 -1.578125l-0.0625 0q-0.984375 0.765625 -2.171875 1.3125q-1.1875 0.546875 -2.4375 0.546875zm0.53125 -1.578125q1.0 0 1.96875 -0.4375q0.984375 -0.453125 1.984375 -1.296875l0 -3.0625q-1.875 0.140625 -3.140625 0.40625q-1.25 0.265625 -2.015625 0.640625q-0.75 0.359375 -1.0625 0.828125q-0.3125 0.46875 -0.3125 1.046875q0 0.515625 0.21875 0.859375q0.21875 0.34375 0.5625 0.578125q0.34375 0.21875 0.8125 0.328125q0.46875 0.109375 0.984375 0.109375zm10.509338 1.296875l0 -17.09375l1.96875 0l0 11.578125l0.09375 0l6.28125 -6.140625l2.265625 0l-4.65625 4.578125l5.28125 7.078125l-2.21875 0l-4.296875 -5.875l-2.75 2.703125l0 3.171875l-1.96875 0zm19.774963 0.28125q-1.328125 0 -2.46875 -0.40625q-1.140625 -0.40625 -2.0 -1.1875q-0.84375 -0.796875 -1.34375 -1.9375q-0.484375 -1.140625 -0.484375 -2.609375q0 -1.40625 0.484375 -2.53125q0.5 -1.140625 1.328125 -1.921875q0.828125 -0.796875 1.890625 -1.21875q1.078125 -0.421875 2.25 -0.421875q1.25 0 2.25 0.40625q1.0 0.390625 1.671875 1.109375q0.6875 0.71875 1.046875 1.734375q0.359375 1.0 0.359375 2.21875q0 0.34375 -0.03125 0.65625q-0.015625 0.3125 -0.0625 0.546875l-9.1875 0q0.1875 2.0 1.453125 3.0q1.265625 0.984375 3.078125 0.984375q1.0625 0 1.90625 -0.296875q0.859375 -0.296875 1.65625 -0.8125l0.71875 1.296875q-0.875 0.578125 -1.984375 0.984375q-1.109375 0.40625 -2.53125 0.40625zm-0.296875 -10.671875q-0.71875 0 -1.375 0.25q-0.65625 0.234375 -1.1875 0.671875q-0.53125 0.4375 -0.890625 1.109375q-0.359375 0.671875 -0.5 1.546875l7.4375 0q-0.125 -1.796875 -1.046875 -2.6875q-0.921875 -0.890625 -2.4375 -0.890625zm27.081177 10.671875q-0.8125 0 -1.546875 -0.234375q-0.71875 -0.21875 -1.265625 -0.640625q-0.53125 -0.421875 -0.84375 -1.03125q-0.3125 -0.609375 -0.3125 -1.40625q0 -0.984375 0.46875 -1.703125q0.46875 -0.734375 1.484375 -1.265625q1.03125 -0.53125 2.640625 -0.859375q1.609375 -0.34375 3.859375 -0.53125q-0.015625 -0.59375 -0.1875 -1.125q-0.171875 -0.53125 -0.53125 -0.921875q-0.359375 -0.40625 -0.953125 -0.640625q-0.578125 -0.234375 -1.421875 -0.234375q-1.15625 0 -2.21875 0.4375q-1.046875 0.4375 -1.859375 0.953125l-0.765625 -1.34375q0.421875 -0.296875 1.015625 -0.59375q0.59375 -0.296875 1.25 -0.53125q0.65625 -0.25 1.390625 -0.40625q0.75 -0.15625 1.515625 -0.15625q2.40625 0 3.5625 1.3125q1.171875 1.296875 1.171875 3.484375l0 7.15625l-1.609375 0l-0.171875 -1.578125l-0.0625 0q-0.984375 0.765625 -2.171875 1.3125q-1.1875 0.546875 -2.4375 0.546875zm0.53125 -1.578125q1.0 0 1.96875 -0.4375q0.984375 -0.453125 1.984375 -1.296875l0 -3.0625q-1.875 0.140625 -3.140625 0.40625q-1.25 0.265625 -2.015625 0.640625q-0.75 0.359375 -1.0625 0.828125q-0.3125 0.46875 -0.3125 1.046875q0 0.515625 0.21875 0.859375q0.21875 0.34375 0.5625 0.578125q0.34375 0.21875 0.8125 0.328125q0.46875 0.109375 0.984375 0.109375zm28.862427 1.578125q-1.140625 0 -2.078125 -0.40625q-0.921875 -0.40625 -1.59375 -1.1875q-0.671875 -0.78125 -1.03125 -1.90625q-0.359375 -1.125 -0.359375 -2.59375q0 -1.40625 0.4375 -2.546875q0.453125 -1.140625 1.1875 -1.9375q0.734375 -0.796875 1.6875 -1.21875q0.96875 -0.4375 2.0 -0.4375q1.046875 0 1.875 0.40625q0.828125 0.390625 1.59375 1.109375l0.078125 0l-0.09375 -2.15625l0 -4.5l1.96875 0l0 17.09375l-1.640625 0l-0.15625 -1.53125l-0.078125 0q-0.71875 0.734375 -1.71875 1.28125q-1.0 0.53125 -2.078125 0.53125zm0.40625 -1.65625q1.734375 0 3.296875 -1.75l0 -5.796875q-0.796875 -0.75 -1.5625 -1.0625q-0.75 -0.3125 -1.515625 -0.3125q-0.765625 0 -1.421875 0.328125q-0.65625 0.328125 -1.15625 0.921875q-0.484375 0.578125 -0.78125 1.390625q-0.28125 0.8125 -0.28125 1.828125q0 2.109375 0.890625 3.28125q0.90625 1.171875 2.53125 1.171875zm15.415588 1.65625q-1.328125 0 -2.46875 -0.40625q-1.140625 -0.40625 -2.0 -1.1875q-0.84375 -0.796875 -1.34375 -1.9375q-0.484375 -1.140625 -0.484375 -2.609375q0 -1.40625 0.484375 -2.53125q0.5 -1.140625 1.328125 -1.921875q0.828125 -0.796875 1.890625 -1.21875q1.078125 -0.421875 2.25 -0.421875q1.25 0 2.25 0.40625q1.0 0.390625 1.671875 1.109375q0.6875 0.71875 1.046875 1.734375q0.359375 1.0 0.359375 2.21875q0 0.34375 -0.03125 0.65625q-0.015625 0.3125 -0.0625 0.546875l-9.1875 0q0.1875 2.0 1.453125 3.0q1.265625 0.984375 3.078125 0.984375q1.0625 0 1.90625 -0.296875q0.859375 -0.296875 1.65625 -0.8125l0.71875 1.296875q-0.875 0.578125 -1.984375 0.984375q-1.109375 0.40625 -2.53125 0.40625zm-0.296875 -10.671875q-0.71875 0 -1.375 0.25q-0.65625 0.234375 -1.1875 0.671875q-0.53125 0.4375 -0.890625 1.109375q-0.359375 0.671875 -0.5 1.546875l7.4375 0q-0.125 -1.796875 -1.046875 -2.6875q-0.921875 -0.890625 -2.4375 -0.890625zm14.696838 10.671875q-1.328125 0 -2.46875 -0.40625q-1.140625 -0.40625 -2.0 -1.1875q-0.84375 -0.796875 -1.34375 -1.9375q-0.484375 -1.140625 -0.484375 -2.609375q0 -1.40625 0.484375 -2.53125q0.5 -1.140625 1.328125 -1.921875q0.828125 -0.796875 1.890625 -1.21875q1.078125 -0.421875 2.25 -0.421875q1.25 0 2.25 0.40625q1.0 0.390625 1.671875 1.109375q0.6875 0.71875 1.046875 1.734375q0.359375 1.0 0.359375 2.21875q0 0.34375 -0.03125 0.65625q-0.015625 0.3125 -0.0625 0.546875l-9.1875 0q0.1875 2.0 1.453125 3.0q1.265625 0.984375 3.078125 0.984375q1.0625 0 1.90625 -0.296875q0.859375 -0.296875 1.65625 -0.8125l0.71875 1.296875q-0.875 0.578125 -1.984375 0.984375q-1.109375 0.40625 -2.53125 0.40625zm-0.296875 -10.671875q-0.71875 0 -1.375 0.25q-0.65625 0.234375 -1.1875 0.671875q-0.53125 0.4375 -0.890625 1.109375q-0.359375 0.671875 -0.5 1.546875l7.4375 0q-0.125 -1.796875 -1.046875 -2.6875q-0.921875 -0.890625 -2.4375 -0.890625zm9.009338 15.3125l0 -16.578125l1.625 0l0.171875 1.484375l0.078125 0q0.8125 -0.765625 1.875 -1.265625q1.078125 -0.515625 2.15625 -0.515625q1.171875 0 2.0625 0.421875q0.90625 0.421875 1.515625 1.203125q0.625 0.78125 0.921875 1.875q0.3125 1.078125 0.3125 2.453125q0 1.484375 -0.4375 2.65625q-0.421875 1.15625 -1.15625 1.984375q-0.734375 0.8125 -1.6875 1.234375q-0.953125 0.40625 -2.015625 0.40625q-0.8125 0 -1.765625 -0.390625q-0.953125 -0.390625 -1.71875 -1.109375l-0.0625 0l0.09375 2.203125l0 3.9375l-1.96875 0zm5.078125 -6.296875q1.59375 0 2.59375 -1.21875q1.015625 -1.21875 1.015625 -3.40625q0 -0.953125 -0.203125 -1.75q-0.1875 -0.796875 -0.578125 -1.359375q-0.390625 -0.5625 -1.015625 -0.875q-0.625 -0.3125 -1.5 -0.3125q-0.765625 0 -1.640625 0.421875q-0.875 0.421875 -1.78125 1.328125l0 5.8125q0.84375 0.75 1.671875 1.0625q0.84375 0.296875 1.4375 0.296875zm29.174927 1.65625q-0.84375 0 -1.828125 -0.40625q-0.96875 -0.421875 -1.796875 -1.171875l-0.078125 0l-0.171875 1.296875l-1.578125 0l0 -17.09375l1.96875 0l0 4.65625l-0.078125 2.265625l0.078125 0q0.78125 -0.8125 1.828125 -1.296875q1.046875 -0.484375 2.078125 -0.484375q1.171875 0 2.078125 0.421875q0.921875 0.421875 1.53125 1.203125q0.625 0.78125 0.921875 1.875q0.3125 1.078125 0.3125 2.421875q0 1.5 -0.4375 2.671875q-0.421875 1.171875 -1.15625 2.0q-0.734375 0.8125 -1.6875 1.234375q-0.953125 0.40625 -1.984375 0.40625zm-0.3125 -1.65625q0.765625 0 1.40625 -0.3125q0.65625 -0.328125 1.125 -0.90625q0.484375 -0.59375 0.75 -1.453125q0.265625 -0.875 0.265625 -1.953125q0 -0.953125 -0.203125 -1.75q-0.1875 -0.796875 -0.578125 -1.359375q-0.390625 -0.5625 -1.015625 -0.875q-0.625 -0.3125 -1.5 -0.3125q-0.765625 0 -1.640625 0.421875q-0.875 0.421875 -1.78125 1.328125l0 5.8125q0.84375 0.75 1.6875 1.0625q0.859375 0.296875 1.484375 0.296875zm10.524963 1.375l0 -11.65625l1.640625 0l0.15625 2.75l0.078125 0q0.90625 -1.40625 2.234375 -2.21875q1.34375 -0.828125 2.96875 -0.828125q0.65625 0 1.203125 0.109375q0.5625 0.109375 1.109375 0.375l-0.453125 1.703125q-0.625 -0.21875 -1.046875 -0.3125q-0.421875 -0.09375 -1.125 -0.09375q-1.3125 0 -2.53125 0.765625q-1.203125 0.75 -2.265625 2.5625l0 6.84375l-1.96875 0zm18.821838 0.28125q-1.328125 0 -2.46875 -0.40625q-1.140625 -0.40625 -2.0 -1.1875q-0.84375 -0.796875 -1.34375 -1.9375q-0.484375 -1.140625 -0.484375 -2.609375q0 -1.40625 0.484375 -2.53125q0.5 -1.140625 1.328125 -1.921875q0.828125 -0.796875 1.890625 -1.21875q1.078125 -0.421875 2.25 -0.421875q1.25 0 2.25 0.40625q1.0 0.390625 1.671875 1.109375q0.6875 0.71875 1.046875 1.734375q0.359375 1.0 0.359375 2.21875q0 0.34375 -0.03125 0.65625q-0.015625 0.3125 -0.0625 0.546875l-9.1875 0q0.1875 2.0 1.453125 3.0q1.265625 0.984375 3.078125 0.984375q1.0625 0 1.90625 -0.296875q0.859375 -0.296875 1.65625 -0.8125l0.71875 1.296875q-0.875 0.578125 -1.984375 0.984375q-1.109375 0.40625 -2.53125 0.40625zm-0.296875 -10.671875q-0.71875 0 -1.375 0.25q-0.65625 0.234375 -1.1875 0.671875q-0.53125 0.4375 -0.890625 1.109375q-0.359375 0.671875 -0.5 1.546875l7.4375 0q-0.125 -1.796875 -1.046875 -2.6875q-0.921875 -0.890625 -2.4375 -0.890625zm12.681213 10.671875q-0.8125 0 -1.546875 -0.234375q-0.71875 -0.21875 -1.265625 -0.640625q-0.53125 -0.421875 -0.84375 -1.03125q-0.3125 -0.609375 -0.3125 -1.40625q0 -0.984375 0.46875 -1.703125q0.46875 -0.734375 1.484375 -1.265625q1.03125 -0.53125 2.640625 -0.859375q1.609375 -0.34375 3.859375 -0.53125q-0.015625 -0.59375 -0.1875 -1.125q-0.171875 -0.53125 -0.53125 -0.921875q-0.359375 -0.40625 -0.953125 -0.640625q-0.578125 -0.234375 -1.421875 -0.234375q-1.15625 0 -2.21875 0.4375q-1.046875 0.4375 -1.859375 0.953125l-0.765625 -1.34375q0.421875 -0.296875 1.015625 -0.59375q0.59375 -0.296875 1.25 -0.53125q0.65625 -0.25 1.390625 -0.40625q0.75 -0.15625 1.515625 -0.15625q2.40625 0 3.5625 1.3125q1.171875 1.296875 1.171875 3.484375l0 7.15625l-1.609375 0l-0.171875 -1.578125l-0.0625 0q-0.984375 0.765625 -2.171875 1.3125q-1.1875 0.546875 -2.4375 0.546875zm0.53125 -1.578125q1.0 0 1.96875 -0.4375q0.984375 -0.453125 1.984375 -1.296875l0 -3.0625q-1.875 0.140625 -3.140625 0.40625q-1.25 0.265625 -2.015625 0.640625q-0.75 0.359375 -1.0625 0.828125q-0.3125 0.46875 -0.3125 1.046875q0 0.515625 0.21875 0.859375q0.21875 0.34375 0.5625 0.578125q0.34375 0.21875 0.8125 0.328125q0.46875 0.109375 0.984375 0.109375zm17.415588 1.578125q-1.265625 0 -2.140625 -0.34375q-0.859375 -0.34375 -1.390625 -0.984375q-0.515625 -0.640625 -0.75 -1.515625q-0.234375 -0.890625 -0.234375 -1.96875l0 -5.53125l-3.28125 0l0 -1.484375l3.359375 -0.109375l0.265625 -3.75l1.625 0l0 3.75l5.734375 0l0 1.59375l-5.734375 0l0 5.546875q0 0.796875 0.140625 1.390625q0.15625 0.578125 0.484375 0.984375q0.34375 0.40625 0.921875 0.625q0.578125 0.203125 1.40625 0.203125q0.84375 0 1.515625 -0.140625q0.671875 -0.15625 1.296875 -0.390625l0.4375 1.4375q-0.796875 0.28125 -1.671875 0.484375q-0.875 0.203125 -1.984375 0.203125zm7.1812134 -0.28125l0 -17.09375l1.96875 0l0 4.65625l-0.125 2.765625l0.078125 0q0.90625 -0.984375 1.953125 -1.625q1.046875 -0.65625 2.40625 -0.65625q2.09375 0 3.0625 1.1875q0.96875 1.1875 0.96875 3.515625l0 7.25l-1.96875 0l0 -6.984375q0 -1.65625 -0.625 -2.453125q-0.609375 -0.8125 -2.0625 -0.8125q-0.515625 0 -0.96875 0.140625q-0.4375 0.125 -0.875 0.390625q-0.4375 0.265625 -0.890625 0.671875q-0.453125 0.390625 -0.953125 0.90625l0 8.140625l-1.96875 0zm17.446838 5.109375l-0.546875 -1.25q1.484375 -0.671875 2.21875 -1.625q0.75 -0.9375 0.796875 -2.375q-0.125 0.046875 -0.234375 0.046875q-0.09375 0 -0.21875 0q-0.765625 0 -1.328125 -0.4375q-0.546875 -0.453125 -0.546875 -1.359375q0 -0.890625 0.578125 -1.359375q0.578125 -0.46875 1.34375 -0.46875q1.078125 0 1.609375 0.828125q0.546875 0.828125 0.546875 2.25q0 2.109375 -1.125 3.5625q-1.109375 1.453125 -3.09375 2.1875zm26.659302 -0.09375q-0.859375 0 -1.53125 -0.234375l0.40625 -1.5625q0.234375 0.0625 0.515625 0.109375q0.28125 0.0625 0.546875 0.0625q1.21875 0 1.984375 -0.71875q0.765625 -0.703125 1.203125 -1.78125l0.359375 -0.859375l-5.453125 -11.6875l2.0 0l2.859375 6.453125q0.328125 0.765625 0.703125 1.65625q0.375 0.890625 0.734375 1.71875l0.09375 0q0.3125 -0.828125 0.625 -1.703125q0.328125 -0.890625 0.625 -1.671875l2.546875 -6.453125l1.859375 0l-5.125 12.609375q-0.34375 0.875 -0.78125 1.609375q-0.421875 0.75 -1.03125 1.28125q-0.59375 0.546875 -1.375 0.859375q-0.78125 0.3125 -1.765625 0.3125zm18.462463 -4.734375q-1.15625 0 -2.203125 -0.40625q-1.046875 -0.40625 -1.84375 -1.1875q-0.78125 -0.78125 -1.25 -1.921875q-0.46875 -1.140625 -0.46875 -2.578125q0 -1.453125 0.46875 -2.59375q0.46875 -1.140625 1.25 -1.9375q0.796875 -0.796875 1.84375 -1.203125q1.046875 -0.40625 2.203125 -0.40625q1.15625 0 2.1875 0.40625q1.046875 0.40625 1.84375 1.203125q0.796875 0.796875 1.25 1.9375q0.46875 1.140625 0.46875 2.59375q0 1.4375 -0.46875 2.578125q-0.453125 1.140625 -1.25 1.921875q-0.796875 0.78125 -1.84375 1.1875q-1.03125 0.40625 -2.1875 0.40625zm0 -1.625q0.84375 0 1.515625 -0.3125q0.6875 -0.328125 1.171875 -0.921875q0.5 -0.59375 0.765625 -1.40625q0.265625 -0.8125 0.265625 -1.828125q0 -1.0 -0.265625 -1.828125q-0.265625 -0.828125 -0.765625 -1.421875q-0.484375 -0.609375 -1.171875 -0.921875q-0.671875 -0.328125 -1.515625 -0.328125q-0.84375 0 -1.53125 0.328125q-0.6875 0.3125 -1.171875 0.921875q-0.484375 0.59375 -0.75 1.421875q-0.265625 0.828125 -0.265625 1.828125q0 1.015625 0.265625 1.828125q0.265625 0.8125 0.75 1.40625q0.484375 0.59375 1.171875 0.921875q0.6875 0.3125 1.53125 0.3125zm13.103088 1.625q-2.109375 0 -3.09375 -1.1875q-0.96875 -1.1875 -0.96875 -3.515625l0 -7.234375l2.0 0l0 6.96875q0 1.65625 0.609375 2.46875q0.609375 0.796875 2.078125 0.796875q1.0 0 1.8125 -0.515625q0.828125 -0.515625 1.8125 -1.640625l0 -8.078125l1.96875 0l0 11.65625l-1.609375 0l-0.171875 -2.046875l-0.09375 0q-0.890625 1.03125 -1.9375 1.6875q-1.046875 0.640625 -2.40625 0.640625zm14.368713 -8.6875l-0.671875 -1.140625q1.140625 -0.625 1.78125 -1.578125q0.640625 -0.953125 0.71875 -2.21875q-0.28125 0.140625 -0.625 0.140625q-0.765625 0 -1.234375 -0.46875q-0.46875 -0.46875 -0.46875 -1.234375q0 -0.84375 0.5 -1.359375q0.515625 -0.515625 1.28125 -0.515625q0.953125 0 1.546875 0.78125q0.609375 0.765625 0.609375 2.125q0 1.796875 -0.921875 3.21875q-0.90625 1.421875 -2.515625 2.25zm14.665588 8.40625l-4.921875 -11.65625l2.0 0l2.6875 6.609375q0.359375 0.890625 0.671875 1.75q0.328125 0.84375 0.640625 1.6875l0.09375 0q0.3125 -0.84375 0.609375 -1.6875q0.3125 -0.859375 0.671875 -1.75l2.6875 -6.609375l1.890625 0l-4.8125 11.65625l-2.21875 0zm16.181213 0.28125q-1.328125 0 -2.46875 -0.40625q-1.140625 -0.40625 -2.0 -1.1875q-0.84375 -0.796875 -1.34375 -1.9375q-0.484375 -1.140625 -0.484375 -2.609375q0 -1.40625 0.484375 -2.53125q0.5 -1.140625 1.328125 -1.921875q0.828125 -0.796875 1.890625 -1.21875q1.078125 -0.421875 2.25 -0.421875q1.25 0 2.25 0.40625q1.0 0.390625 1.671875 1.109375q0.6875 0.71875 1.046875 1.734375q0.359375 1.0 0.359375 2.21875q0 0.34375 -0.03125 0.65625q-0.015625 0.3125 -0.0625 0.546875l-9.1875 0q0.1875 2.0 1.453125 3.0q1.265625 0.984375 3.078125 0.984375q1.0625 0 1.90625 -0.296875q0.859375 -0.296875 1.65625 -0.8125l0.71875 1.296875q-0.875 0.578125 -1.984375 0.984375q-1.109375 0.40625 -2.53125 0.40625zm-0.296875 -10.671875q-0.71875 0 -1.375 0.25q-0.65625 0.234375 -1.1875 0.671875q-0.53125 0.4375 -0.890625 1.109375q-0.359375 0.671875 -0.5 1.546875l7.4375 0q-0.125 -1.796875 -1.046875 -2.6875q-0.921875 -0.890625 -2.4375 -0.890625z" fill-rule="nonzero"/><path fill="#000000" fill-opacity="0.0" d="m901.98175 258.92407l14.399963 0l0 30.167908l-14.399963 0l0 -30.167908z" fill-rule="nonzero"/><path fill="#ffffff" d="m527.5827 292.5l129.59967 0l0 28.799988l-129.59967 0l0 -28.799988z" fill-rule="nonzero"/><path fill="#000000" fill-opacity="0.0" d="m527.5827 291.92407l129.59967 0l0 30.167908l-129.59967 0l0 -30.167908z" fill-rule="nonzero"/><path fill="#212121" d="m534.6921 320.915q-2.578125 0 -3.984375 -0.84375q-1.390625 -0.828125 -1.390625 -2.390625q0 -0.703125 0.484375 -1.375q0.5 -0.671875 1.421875 -1.21875l0 -0.09375q-0.46875 -0.265625 -0.828125 -0.71875q-0.359375 -0.46875 -0.359375 -1.203125q0 -0.5625 0.359375 -1.140625q0.359375 -0.59375 1.03125 -1.046875l0 -0.09375q-0.609375 -0.453125 -1.03125 -1.203125q-0.40625 -0.765625 -0.40625 -1.828125q0 -0.953125 0.359375 -1.71875q0.375 -0.765625 1.0 -1.3125q0.625 -0.546875 1.453125 -0.84375q0.828125 -0.296875 1.765625 -0.296875q0.953125 0 1.734375 0.296875l4.8125 0l0 1.59375l-3.015625 0q0.40625 0.421875 0.6875 1.046875q0.296875 0.609375 0.296875 1.3125q0 0.9375 -0.359375 1.6875q-0.34375 0.734375 -0.953125 1.25q-0.609375 0.515625 -1.4375 0.796875q-0.828125 0.265625 -1.765625 0.265625q-0.453125 0 -0.96875 -0.09375q-0.515625 -0.109375 -1.0 -0.328125q-0.90625 0.578125 -0.90625 1.34375q0 0.6875 0.625 1.015625q0.640625 0.328125 1.796875 0.328125l2.609375 0q2.265625 0 3.34375 0.625q1.09375 0.625 1.09375 2.109375q0 0.8125 -0.453125 1.546875q-0.453125 0.75 -1.296875 1.296875q-0.84375 0.5625 -2.046875 0.890625q-1.1875 0.34375 -2.671875 0.34375zm-0.125 -10.390625q1.125 0 1.90625 -0.734375q0.78125 -0.75 0.78125 -2.03125q0 -0.59375 -0.21875 -1.09375q-0.21875 -0.515625 -0.578125 -0.875q-0.359375 -0.359375 -0.859375 -0.5625q-0.484375 -0.203125 -1.03125 -0.203125q-0.546875 0 -1.046875 0.203125q-0.484375 0.203125 -0.84375 0.5625q-0.359375 0.359375 -0.578125 0.875q-0.21875 0.5 -0.21875 1.09375q0 1.28125 0.78125 2.03125q0.796875 0.734375 1.90625 0.734375zm0.265625 8.953125q1.0 0 1.8125 -0.203125q0.828125 -0.1875 1.40625 -0.515625q0.578125 -0.3125 0.875 -0.734375q0.296875 -0.421875 0.296875 -0.875q0 -0.84375 -0.671875 -1.140625q-0.65625 -0.28125 -2.0 -0.28125l-2.265625 0q-0.515625 0 -0.96875 -0.03125q-0.4375 -0.03125 -0.8125 -0.15625q-0.84375 0.453125 -1.171875 0.9375q-0.3125 0.5 -0.3125 1.0q0 0.921875 0.96875 1.453125q0.96875 0.546875 2.84375 0.546875zm14.353088 -3.65625q-1.15625 0 -2.203125 -0.40625q-1.046875 -0.40625 -1.84375 -1.1875q-0.78125 -0.78125 -1.25 -1.921875q-0.46875 -1.140625 -0.46875 -2.578125q0 -1.453125 0.46875 -2.59375q0.46875 -1.140625 1.25 -1.9375q0.796875 -0.796875 1.84375 -1.203125q1.046875 -0.40625 2.203125 -0.40625q1.15625 0 2.1875 0.40625q1.046875 0.40625 1.84375 1.203125q0.796875 0.796875 1.25 1.9375q0.46875 1.140625 0.46875 2.59375q0 1.4375 -0.46875 2.578125q-0.453125 1.140625 -1.25 1.921875q-0.796875 0.78125 -1.84375 1.1875q-1.03125 0.40625 -2.1875 0.40625zm0 -1.625q0.84375 0 1.515625 -0.3125q0.6875 -0.328125 1.171875 -0.921875q0.5 -0.59375 0.765625 -1.40625q0.265625 -0.8125 0.265625 -1.828125q0 -1.0 -0.265625 -1.828125q-0.265625 -0.828125 -0.765625 -1.421875q-0.484375 -0.609375 -1.171875 -0.921875q-0.671875 -0.328125 -1.515625 -0.328125q-0.84375 0 -1.53125 0.328125q-0.6875 0.3125 -1.171875 0.921875q-0.484375 0.59375 -0.75 1.421875q-0.265625 0.828125 -0.265625 1.828125q0 1.015625 0.265625 1.828125q0.265625 0.8125 0.75 1.40625q0.484375 0.59375 1.171875 0.921875q0.6875 0.3125 1.53125 0.3125zm16.649963 1.625q-1.265625 0 -2.140625 -0.34375q-0.859375 -0.34375 -1.390625 -0.984375q-0.515625 -0.640625 -0.75 -1.515625q-0.234375 -0.890625 -0.234375 -1.96875l0 -5.53125l-3.28125 0l0 -1.484375l3.359375 -0.109375l0.265625 -3.75l1.625 0l0 3.75l5.734375 0l0 1.59375l-5.734375 0l0 5.546875q0 0.796875 0.140625 1.390625q0.15625 0.578125 0.484375 0.984375q0.34375 0.40625 0.921875 0.625q0.578125 0.203125 1.40625 0.203125q0.84375 0 1.515625 -0.140625q0.671875 -0.15625 1.296875 -0.390625l0.4375 1.4375q-0.796875 0.28125 -1.671875 0.484375q-0.875 0.203125 -1.984375 0.203125zm28.799927 0q-1.265625 0 -2.140625 -0.34375q-0.859375 -0.34375 -1.390625 -0.984375q-0.515625 -0.640625 -0.75 -1.515625q-0.234375 -0.890625 -0.234375 -1.96875l0 -5.53125l-3.28125 0l0 -1.484375l3.359375 -0.109375l0.265625 -3.75l1.625 0l0 3.75l5.734375 0l0 1.59375l-5.734375 0l0 5.546875q0 0.796875 0.140625 1.390625q0.15625 0.578125 0.484375 0.984375q0.34375 0.40625 0.921875 0.625q0.578125 0.203125 1.40625 0.203125q0.84375 0 1.515625 -0.140625q0.671875 -0.15625 1.296875 -0.390625l0.4375 1.4375q-0.796875 0.28125 -1.671875 0.484375q-0.875 0.203125 -1.984375 0.203125zm7.1812134 -0.28125l0 -17.09375l1.96875 0l0 4.65625l-0.125 2.765625l0.078125 0q0.90625 -0.984375 1.953125 -1.625q1.046875 -0.65625 2.40625 -0.65625q2.09375 0 3.0625 1.1875q0.96875 1.1875 0.96875 3.515625l0 7.25l-1.96875 0l0 -6.984375q0 -1.65625 -0.625 -2.453125q-0.609375 -0.8125 -2.0625 -0.8125q-0.515625 0 -0.96875 0.140625q-0.4375 0.125 -0.875 0.390625q-0.4375 0.265625 -0.890625 0.671875q-0.453125 0.390625 -0.953125 0.90625l0 8.140625l-1.96875 0zm19.743713 0l0 -10.0625l-5.421875 0l0 -1.59375l7.390625 0l0 11.65625l-1.96875 0zm0.625 -14.109375q-0.671875 0 -1.140625 -0.421875q-0.453125 -0.421875 -0.453125 -1.109375q0 -0.703125 0.453125 -1.125q0.46875 -0.421875 1.140625 -0.421875q0.671875 0 1.125 0.421875q0.453125 0.421875 0.453125 1.125q0 0.6875 -0.453125 1.109375q-0.453125 0.421875 -1.125 0.421875zm13.634338 14.390625q-1.71875 0 -3.1875 -0.53125q-1.46875 -0.546875 -2.546875 -1.28125l0.90625 -1.296875q1.015625 0.71875 2.21875 1.15625q1.21875 0.421875 2.859375 0.421875q1.484375 0 2.203125 -0.53125q0.734375 -0.546875 0.734375 -1.296875q0 -0.328125 -0.125 -0.609375q-0.109375 -0.296875 -0.515625 -0.5625q-0.390625 -0.265625 -1.109375 -0.5q-0.71875 -0.234375 -1.890625 -0.484375q-2.28125 -0.484375 -3.421875 -1.28125q-1.140625 -0.796875 -1.140625 -2.125q0 -0.703125 0.3125 -1.3125q0.3125 -0.609375 0.921875 -1.046875q0.609375 -0.453125 1.515625 -0.703125q0.90625 -0.25 2.09375 -0.25q1.34375 0 2.59375 0.453125q1.25 0.4375 2.109375 1.03125l-0.953125 1.28125q-0.8125 -0.5625 -1.796875 -0.890625q-0.984375 -0.34375 -2.109375 -0.34375q-1.5 0 -2.09375 0.515625q-0.59375 0.5 -0.59375 1.171875q0 0.765625 0.78125 1.171875q0.796875 0.390625 2.59375 0.765625q1.46875 0.3125 2.40625 0.671875q0.9375 0.34375 1.46875 0.78125q0.546875 0.421875 0.75 0.953125q0.203125 0.53125 0.203125 1.203125q0 0.71875 -0.34375 1.34375q-0.328125 0.625 -1.0 1.109375q-0.65625 0.46875 -1.625 0.734375q-0.96875 0.28125 -2.21875 0.28125zm14.165588 0q-0.8125 0 -1.390625 -0.546875q-0.5625 -0.546875 -0.5625 -1.46875q0 -0.90625 0.5625 -1.46875q0.578125 -0.5625 1.390625 -0.5625q0.8125 0 1.375 0.5625q0.5625 0.5625 0.5625 1.46875q0 0.921875 -0.5625 1.46875q-0.5625 0.546875 -1.375 0.546875z" fill-rule="nonzero"/><path fill="#000000" fill-opacity="0.0" d="m657.1824 291.92407l0 0l0 30.167908l0 0l0 -30.167908z" fill-rule="nonzero"/></g></svg>