<svg version="1.1" viewBox="0.0 0.0 960.0 540.0" fill="none" stroke="none" stroke-linecap="square" stroke-miterlimit="10" xmlns:xlink="http://www.w3.org/1999/xlink" xmlns="http://www.w3.org/2000/svg"><clipPath id="g753dc8fe9c_0_67.0"><path d="m0 0l960.0 0l0 540.0l-960.0 0l0 -540.0z" clip-rule="nonzero"/></clipPath><g clip-path="url(#g753dc8fe9c_0_67.0)"><path fill="#00fdc8" d="m0 0l960.0 0l0 540.0l-960.0 0z" fill-rule="evenodd"/><path fill="#ffffff" d="m294.25198 84.25197l371.49606 0l0 371.49603l-371.49606 0z" fill-rule="evenodd"/><path fill="#212121" d="m325.66388 254.7525q-0.703125 0 -1.125 -0.59375q-0.40625 -0.609375 -0.40625 -1.515625l0.125 -10.75q0.1875 -7.8125 0.1875 -12.09375q0 -14.90625 -1.65625 -22.84375q0.953125 -1.46875 2.421875 -1.46875q2.375 0 4.328125 1.0625q1.953125 1.046875 3.234375 2.828125q2.484375 3.71875 2.484375 8.328125q0 4.796875 -2.046875 8.578125q-2.046875 3.765625 -5.953125 5.890625l0.140625 6.453125l0.125 3.390625q0.0625 1.09375 0.0625 3.140625q0.1875 4.296875 0.1875 6.984375q0 1.203125 -0.515625 1.90625q-0.5 0.703125 -1.59375 0.703125zm1.46875 -25.65625q2.5 -2.375 3.6875 -4.953125q1.1875 -2.59375 1.1875 -5.859375l0 -0.0625q0 -1.484375 -0.328125 -3.71875q-0.1875 -0.765625 -0.703125 -1.53125q-0.515625 -0.765625 -0.578125 -0.90625q-0.453125 -0.640625 -2.359375 -1.984375l-1.671875 -1.203125q0 3.265625 0.390625 10.109375l0.375 10.109375zm25.543243 25.921875q-1.46875 0 -2.1875 -0.453125q-0.703125 -0.4375 -0.703125 -1.65625q0 -1.921875 -0.640625 -6.53125l-0.25 -1.34375l-6.328125 -0.96875q-0.390625 1.484375 -1.09375 5.953125q-0.390625 3.140625 -1.21875 4.171875q-0.453125 0.5625 -1.28125 0.5625q-0.765625 0 -1.40625 -0.46875q-0.640625 -0.484375 -0.640625 -1.1875l0.125 -0.3125l0.0625 -0.265625q4.234375 -16.453125 6.40625 -32.453125q0 -0.25 0.0625 -0.859375q0.0625 -0.609375 0.125 -1.75q0.203125 -2.375 0.421875 -3.78125q0.21875 -1.40625 0.734375 -2.109375l2.171875 0q0.90625 0 1.546875 0.421875q0.640625 0.40625 0.640625 1.171875q0 4.859375 1.34375 14.46875q1.28125 9.859375 1.28125 13.828125q0 0.375 0.3125 1.96875q0.3125 1.484375 0.3125 1.921875q0 0.453125 0.640625 3.84375q0.578125 3.078125 0.578125 3.96875l0 0.0625q0 1.40625 -1.015625 1.796875zm-4.234375 -12.296875q-0.1875 -0.953125 -0.1875 -2.359375q0 -5.765625 -1.015625 -14.71875l-0.640625 -6.65625q-2.75 15.03125 -3.78125 22.71875q0.953125 0.640625 5.625 1.015625zm28.229706 11.90625q-0.765625 0 -1.15625 -0.40625q-0.375 -0.421875 -0.578125 -1.4375l-0.375 -1.21875l0 -0.140625l0 -0.1875q0 -2.109375 -4.390625 -14.390625q-4.375 -12.296875 -6.875 -18.1875l0 32.203125l0.25 0.4375q0.0625 0.125 0.25 0.453125q0.203125 0.3125 0.203125 0.640625q0 0.828125 -0.578125 1.40625q-0.578125 0.578125 -1.40625 0.578125q-2.046875 0 -2.046875 -3.90625l-0.0625 -10.9375q-0.0625 -4.9375 -0.0625 -11.015625q0 -2.046875 0.1875 -5.953125q0.1875 -4.03125 0.1875 -5.953125q0 -3.0 2.3125 -4.734375l0 0.390625q0.375 -0.125 0.515625 -0.125q1.46875 0 3.703125 5.109375q1.796875 4.09375 3.234375 8.640625q1.4375 4.546875 3.8125 12.9375l0.640625 2.296875q1.46875 5.1875 2.234375 7.421875q1.28125 -13.75 1.28125 -32.515625l0 -0.828125q-0.0625 -0.375 -0.0625 -0.828125q0 -1.921875 1.53125 -1.921875q0.90625 0 1.375 0.703125q0.484375 0.703125 0.484375 1.796875l0 4.796875q-0.125 9.859375 -0.765625 21.375q-0.640625 11.515625 -1.53125 13.0q-1.859375 0.5 -2.3125 0.5zm15.23407 0.203125q-1.671875 0 -1.671875 -8.390625l0.140625 -10.109375q0.0625 -4.484375 0.0625 -10.046875q0 -2.046875 -0.390625 -6.34375q-0.3125 -4.671875 -0.3125 -5.6875q0 -0.84375 0.703125 -1.46875q0.703125 -0.640625 1.53125 -0.640625q2.234375 0 4.3125 1.0q2.09375 0.984375 3.6875 2.765625q3.390625 3.90625 4.484375 8.578125q0.578125 2.375 0.578125 4.671875q0 0.828125 -0.0625 1.53125l-0.078125 1.734375l0 3.515625q0 4.09375 -0.25 6.46875q-0.390625 3.203125 -1.46875 5.6875q-1.28125 2.703125 -3.71875 4.8125q-1.140625 0.953125 -2.9375 1.921875l-4.609375 0zm2.8125 -3.265625q1.28125 0 2.359375 -0.671875q1.09375 -0.671875 1.859375 -1.828125q0.640625 -1.03125 1.1875 -2.59375q0.546875 -1.5625 0.796875 -3.046875q0.578125 -2.875 0.71875 -5.875q0.0625 -0.765625 0.0625 -2.25q0 -19.328125 -7.5 -20.15625q-0.4375 2.875 -0.4375 6.65625q0 4.03125 0.5 14.078125q0.453125 8.90625 0.453125 14.140625l0 1.546875zm20.222107 3.703125q-0.828125 0 -1.5 -0.578125q-0.671875 -0.5625 -0.734375 -1.40625l0 -1.65625l0 -1.28125q-0.0625 -0.578125 -0.0625 -1.34375q0 -1.34375 -0.1875 -4.09375l-0.140625 -4.09375q0 -3.140625 0.203125 -9.34375q0.25 -5.578125 0.25 -9.34375q0 -0.90625 -0.1875 -2.703125q-0.203125 -1.84375 -0.203125 -2.6875q0 -4.53125 2.6875 -4.53125q2.125 0 4.90625 0.828125q2.78125 0.828125 2.78125 1.984375q0 0.640625 -0.546875 1.1875q-0.546875 0.53125 -1.3125 0.859375q-2.6875 -0.953125 -4.859375 -1.28125q0.0625 0.953125 0.0625 2.75q0 2.5625 -0.0625 4.609375q-0.1875 3.078125 -0.1875 4.609375l0.1875 1.03125l1.015625 -0.078125q0.515625 -0.0625 1.28125 -0.0625q3.078125 0 3.078125 1.796875q0 0.703125 -0.578125 1.1875q-0.578125 0.46875 -1.46875 0.46875q-1.15625 0 -1.796875 -0.125l-1.59375 0q0.125 1.671875 0.125 4.875q0 3.1875 -0.0625 5.75q-0.1875 3.90625 -0.1875 5.828125q0 3.578125 0.125 3.578125l2.109375 -0.0625q1.09375 -0.0625 2.625 -0.0625q2.4375 0 2.4375 1.53125q0 0.90625 -0.8125 1.375q-0.796875 0.484375 -1.953125 0.484375l-5.4375 0zm41.03534 2.5q-1.984375 0 -1.984375 -3.96875l0 -4.09375l0 -4.09375q0 -3.203125 -0.453125 -8.390625q-0.515625 -5.828125 -0.515625 -8.0l0.125 -3.96875q0.140625 -1.71875 0.140625 -3.90625q-0.265625 0.84375 -2.125 8.84375q-1.84375 7.734375 -3.828125 14.328125q-1.921875 6.34375 -3.140625 6.34375q-1.21875 0 -1.953125 -0.734375q-0.734375 -0.75 -0.734375 -2.03125q0 -2.8125 -2.28125 -11.953125q-2.265625 -9.15625 -4.125 -14.984375l-0.375 7.234375q-0.515625 9.15625 -0.703125 15.234375q-0.140625 5.890625 -0.140625 8.0625q0 0.515625 0.078125 0.953125l0 0.90625q0 1.078125 -0.453125 1.625q-0.453125 0.546875 -1.671875 0.546875q-0.640625 0 -1.21875 -0.484375q-0.5625 -0.484375 -0.5625 -1.046875q0 -6.53125 0.953125 -19.59375q0.96875 -13.046875 0.96875 -19.578125q-0.390625 -0.578125 -0.390625 -1.21875q0 -0.765625 0.734375 -1.171875q0.734375 -0.421875 1.765625 -0.421875q0.828125 0 3.0625 6.015625q2.25 6.015625 4.484375 13.640625q2.234375 7.609375 2.875 11.0q0.515625 -1.734375 0.84375 -3.203125l0.375 -1.53125q2.046875 -8.96875 4.09375 -16.203125q1.21875 -4.40625 2.375 -6.90625q1.15625 -2.6875 2.109375 -2.6875q0.890625 0 1.625 0.484375q0.75 0.46875 0.75 1.234375q0 4.609375 0.375 13.828125q0.453125 8.578125 0.453125 13.3125l-0.0625 3.390625l-0.125 3.390625q0 0.765625 0.1875 2.3125l0.1875 2.234375q0.0625 0.578125 0.09375 0.90625q0.03125 0.3125 0.03125 0.375q0.328125 0.828125 0.328125 1.21875q0 1.078125 -0.640625 1.90625q-0.640625 0.84375 -1.53125 0.84375zm13.310181 -3.390625q-5.578125 0 -5.578125 -1.921875q0 -1.53125 1.984375 -1.53125l0.703125 0l0.640625 0.0625q0.515625 0 0.703125 -0.3125q0.203125 -0.328125 0.203125 -1.15625q0 -1.09375 -0.140625 -3.390625q-0.1875 -1.546875 -0.4375 -5.515625q-0.578125 -9.78125 -0.578125 -14.78125q0 -1.796875 0.0625 -3.265625l0.0625 -3.265625q0 -2.109375 -0.1875 -3.515625q-1.03125 0.25 -1.46875 0.25q-1.546875 0 -1.546875 -1.53125q0 -0.765625 0.953125 -1.34375q0.96875 -0.578125 2.4375 -0.828125q2.5625 -0.515625 4.546875 -0.515625q0.765625 0 1.3125 0.546875q0.546875 0.546875 0.546875 1.25q0 0.703125 -0.421875 1.21875q-0.40625 0.5 -1.046875 0.5q-0.390625 0 -0.640625 -0.0625l-0.515625 0q-0.640625 0 -0.9375 0.296875q-0.28125 0.28125 -0.28125 1.046875q0 6.21875 0.765625 18.6875q0.140625 2.3125 0.515625 6.78125q0.328125 2.953125 0.328125 6.015625l0 2.4375q0.375 -0.0625 1.28125 -0.0625q2.6875 0 2.6875 2.234375l0 0.390625l-1.609375 1.09375q-0.0625 0 -0.421875 0.03125q-0.34375 0.03125 -1.296875 0.03125q-2.046875 0.125 -2.625 0.125zm19.83899 0.953125q-1.40625 0 -2.984375 -0.421875q-1.5625 -0.40625 -2.390625 -0.921875q-4.296875 -2.75 -4.296875 -15.03125l0 -1.734375l0 -1.984375l0 -1.53125q0 -2.5625 0.0625 -4.578125q0.0625 -2.015625 0.265625 -4.390625q0.1875 -2.484375 0.5625 -4.046875q0.390625 -1.578125 1.28125 -3.5625q0.78125 -1.859375 1.890625 -2.875q1.125 -1.03125 2.921875 -1.734375q1.59375 -0.703125 3.96875 -0.703125q0.953125 0 1.46875 0.453125q0.515625 0.4375 0.515625 1.140625q0 0.640625 -0.421875 1.15625q-0.421875 0.515625 -0.984375 0.578125l-3.015625 0q-1.28125 0 -2.25 1.609375q-0.953125 1.59375 -1.328125 4.15625q-0.84375 4.734375 -0.84375 7.671875l0 0.328125l-0.125 6.140625q-0.125 2.75 -0.125 6.203125q0 2.4375 0.1875 3.96875q0.328125 2.3125 1.09375 3.84375q0.765625 1.734375 2.625 2.5q0.953125 0.375 2.109375 0.375q0.703125 0 1.40625 -0.515625q0.828125 0 1.375 0.359375q0.546875 0.359375 0.546875 1.0625q0 2.484375 -3.515625 2.484375zm12.605957 -21.375q-0.828125 0 -1.46875 -0.53125q-0.640625 -0.546875 -0.640625 -1.328125q0 -0.765625 1.53125 -1.34375q2.171875 -0.828125 7.546875 -1.140625q2.046875 -0.125 2.625 -0.125q0.828125 0 1.46875 0.546875q0.640625 0.53125 0.640625 1.296875q0 0.765625 -1.53125 1.34375q-2.171875 0.84375 -7.546875 1.15625q-2.046875 0.125 -2.625 0.125zm23.737366 21.0q-2.9375 0 -2.9375 -1.609375l0.125 -7.859375l0.125 -7.875q0 -4.296875 -0.1875 -13.0q-0.1875 -8.640625 -0.1875 -12.984375l0 -0.390625q0 -1.65625 0.3125 -3.0625q0.390625 -1.734375 2.046875 -1.734375q4.484375 0 7.109375 2.890625q2.625 2.875 2.625 7.609375q0 2.875 -1.546875 6.015625q-1.53125 3.125 -3.640625 4.671875q3.71875 2.5 5.46875 6.4375q1.765625 3.921875 1.765625 8.65625q0 2.25 -1.53125 5.578125q-1.859375 3.96875 -5.0625 5.6875q-1.921875 0.96875 -4.21875 0.96875l-0.265625 0zm0.640625 -28.296875q1.671875 -0.375 2.8125 -2.75q0.96875 -1.78125 1.796875 -4.34375q0.1875 -0.703125 0.640625 -1.796875l0 -2.234375q0 -1.921875 -1.40625 -3.71875q-1.40625 -1.796875 -3.203125 -1.796875q-0.890625 0 -0.890625 1.984375q0 4.234375 0.125 7.5625l0.125 7.09375zm0.265625 24.96875q3.125 -0.453125 4.984375 -2.875q1.859375 -2.4375 1.859375 -5.828125q0 -2.953125 -0.484375 -5.40625q-0.484375 -2.46875 -1.25 -3.75q-0.703125 -1.21875 -1.40625 -2.046875q-0.703125 -0.828125 -1.21875 -1.09375l-0.5 -0.1875l-2.3125 0q0.328125 7.359375 0.328125 21.1875zm27.455322 3.90625q-1.40625 0 -2.5625 -3.078125q-1.34375 -3.328125 -1.984375 -6.84375l-0.453125 -2.1875q-1.859375 -9.140625 -2.359375 -10.421875l-0.78125 0q0 1.859375 -0.0625 3.390625l0 3.515625q0 8.578125 1.21875 13.375l-0.703125 1.734375l-1.796875 0l-0.828125 -0.96875l0.0625 -4.28125q0 -5.765625 -0.578125 -17.46875q-0.5 -12.484375 -0.5 -17.46875q0 -3.078125 2.109375 -3.078125q3.453125 0 5.65625 1.796875q2.21875 1.78125 2.21875 4.984375l0 4.484375q0 0.953125 -0.328125 2.203125q-0.3125 1.25 -0.703125 2.015625l-1.21875 2.3125l-1.015625 1.921875l0.3125 1.53125l0.90625 4.546875q0.890625 4.921875 1.71875 8.0q0.828125 3.0625 2.046875 5.5625l0.390625 0.765625q0.640625 1.28125 0.640625 2.046875q0 0.640625 -0.390625 1.125q-0.375 0.484375 -1.015625 0.484375zm-7.875 -25.671875q1.40625 -0.703125 2.390625 -3.859375q1.0 -3.171875 1.0 -5.859375q0 -2.0625 -0.515625 -3.84375q-0.3125 -1.03125 -1.0625 -1.5625q-0.734375 -0.546875 -1.8125 -0.546875l-0.125 0.3125l-0.140625 0.578125l0.140625 7.546875q0.125 3.328125 0.125 7.234375zm28.161194 25.15625q-1.46875 0 -2.1875 -0.453125q-0.703125 -0.4375 -0.703125 -1.65625q0 -1.921875 -0.640625 -6.53125l-0.25 -1.34375l-6.328125 -0.96875q-0.390625 1.484375 -1.09375 5.953125q-0.390625 3.140625 -1.21875 4.171875q-0.453125 0.5625 -1.28125 0.5625q-0.765625 0 -1.40625 -0.46875q-0.640625 -0.484375 -0.640625 -1.1875l0.125 -0.3125l0.0625 -0.265625q4.234375 -16.453125 6.40625 -32.453125q0 -0.25 0.0625 -0.859375q0.0625 -0.609375 0.125 -1.75q0.203125 -2.375 0.421875 -3.78125q0.21875 -1.40625 0.734375 -2.109375l2.171875 0q0.90625 0 1.546875 0.421875q0.640625 0.40625 0.640625 1.171875q0 4.859375 1.34375 14.46875q1.28125 9.859375 1.28125 13.828125q0 0.375 0.3125 1.96875q0.3125 1.484375 0.3125 1.921875q0 0.453125 0.640625 3.84375q0.578125 3.078125 0.578125 3.96875l0 0.0625q0 1.40625 -1.015625 1.796875zm-4.234375 -12.296875q-0.1875 -0.953125 -0.1875 -2.359375q0 -5.765625 -1.015625 -14.71875l-0.640625 -6.65625q-2.75 15.03125 -3.78125 22.71875q0.953125 0.640625 5.625 1.015625zm13.964111 11.65625q-5.578125 0 -5.578125 -1.921875q0 -1.53125 1.984375 -1.53125l0.703125 0l0.640625 0.0625q0.515625 0 0.703125 -0.3125q0.203125 -0.328125 0.203125 -1.15625q0 -1.09375 -0.140625 -3.390625q-0.1875 -1.546875 -0.4375 -5.515625q-0.578125 -9.78125 -0.578125 -14.78125q0 -1.796875 0.0625 -3.265625l0.0625 -3.265625q0 -2.109375 -0.1875 -3.515625q-1.03125 0.25 -1.46875 0.25q-1.546875 0 -1.546875 -1.53125q0 -0.765625 0.953125 -1.34375q0.96875 -0.578125 2.4375 -0.828125q2.5625 -0.515625 4.546875 -0.515625q0.765625 0 1.3125 0.546875q0.546875 0.546875 0.546875 1.25q0 0.703125 -0.421875 1.21875q-0.40625 0.5 -1.046875 0.5q-0.390625 0 -0.640625 -0.0625l-0.515625 0q-0.640625 0 -0.9375 0.296875q-0.28125 0.28125 -0.28125 1.046875q0 6.21875 0.765625 18.6875q0.140625 2.3125 0.515625 6.78125q0.328125 2.953125 0.328125 6.015625l0 2.4375q0.375 -0.0625 1.28125 -0.0625q2.6875 0 2.6875 2.234375l0 0.390625l-1.609375 1.09375q-0.0625 0 -0.421875 0.03125q-0.34375 0.03125 -1.296875 0.03125q-2.046875 0.125 -2.625 0.125zm28.729614 0.25q-0.765625 0 -1.15625 -0.40625q-0.375 -0.421875 -0.578125 -1.4375l-0.375 -1.21875l0 -0.140625l0 -0.1875q0 -2.109375 -4.390625 -14.390625q-4.375 -12.296875 -6.875 -18.1875l0 32.203125l0.25 0.4375q0.0625 0.125 0.25 0.453125q0.203125 0.3125 0.203125 0.640625q0 0.828125 -0.578125 1.40625q-0.578125 0.578125 -1.40625 0.578125q-2.046875 0 -2.046875 -3.90625l-0.0625 -10.9375q-0.0625 -4.9375 -0.0625 -11.015625q0 -2.046875 0.1875 -5.953125q0.1875 -4.03125 0.1875 -5.953125q0 -3.0 2.3125 -4.734375l0 0.390625q0.375 -0.125 0.515625 -0.125q1.46875 0 3.703125 5.109375q1.796875 4.09375 3.234375 8.640625q1.4375 4.546875 3.8125 12.9375l0.640625 2.296875q1.46875 5.1875 2.234375 7.421875q1.28125 -13.75 1.28125 -32.515625l0 -0.828125q-0.0625 -0.375 -0.0625 -0.828125q0 -1.921875 1.53125 -1.921875q0.90625 0 1.375 0.703125q0.484375 0.703125 0.484375 1.796875l0 4.796875q-0.125 9.859375 -0.765625 21.375q-0.640625 11.515625 -1.53125 13.0q-1.859375 0.5 -2.3125 0.5zm18.04657 0.84375q-0.828125 0 -1.46875 -0.71875q-0.640625 -0.703125 -0.640625 -1.59375q0 -0.953125 0.703125 -1.71875q0.703125 -0.78125 1.671875 -0.78125q0.890625 0 1.59375 0.78125q0.703125 0.765625 0.703125 1.65625q0 1.03125 -0.734375 1.703125q-0.734375 0.671875 -1.828125 0.671875z" fill-rule="nonzero"/><path fill="#212121" d="m371.36322 331.3775q-5.5 0 -5.5 -1.921875q0 -1.53125 1.90625 -1.53125l0.78125 0q0.25 0.0625 0.5625 0.0625q0.515625 0 0.734375 -0.3125q0.234375 -0.328125 0.234375 -1.15625q0 -5.453125 -0.640625 -14.859375q-0.578125 -9.78125 -0.578125 -14.78125q0 -1.796875 0.0625 -3.265625l0.0625 -3.265625q0 -2.109375 -0.1875 -3.515625q-0.703125 0.25 -1.46875 0.25q-1.46875 0 -1.46875 -1.53125q0 -0.765625 0.921875 -1.34375q0.921875 -0.578125 2.40625 -0.828125q2.6875 -0.453125 4.53125 -0.453125q0.78125 0 1.3125 0.515625q0.546875 0.515625 0.546875 1.21875q0 0.703125 -0.421875 1.21875q-0.40625 0.5 -1.046875 0.5q-0.390625 0 -0.640625 -0.0625l-0.515625 0q-0.640625 0 -0.9375 0.296875q-0.28125 0.28125 -0.28125 1.046875q0 6.796875 0.84375 18.6875q0.765625 12.484375 0.765625 18.75l0 2.4375q0.4375 -0.0625 1.28125 -0.0625q2.6875 0 2.6875 2.234375l0 0.390625l-1.609375 1.09375q-0.0625 0 -0.390625 0.03125q-0.3125 0.03125 -1.265625 0.03125q-2.171875 0.125 -2.6875 0.125zm16.057343 -0.96875l-0.0625 -2.484375q-0.0625 -1.09375 -0.0625 -2.4375l0.0625 -2.171875q-0.1875 -0.703125 -0.953125 -14.015625q-0.765625 -13.3125 -0.90625 -17.09375q-3.703125 -0.125 -4.734375 -0.765625q-0.703125 -0.515625 -0.703125 -1.15625q0 -0.5 0.671875 -0.921875q0.671875 -0.421875 1.375 -0.421875q1.796875 0 4.359375 0.265625q2.421875 0.3125 4.34375 0.3125l0.515625 0l0.515625 0q1.984375 0 1.984375 1.53125q0 0.78125 -0.640625 1.265625q-0.640625 0.46875 -1.46875 0.46875q-0.578125 0 -1.671875 -0.1875l-1.28125 -0.265625l-0.0625 0.328125l-0.0625 0.3125q0 5.703125 1.09375 18.1875q1.015625 11.703125 1.015625 18.171875q0 0.765625 -0.671875 1.34375q-0.671875 0.578125 -1.5 0.578125l-1.15625 -0.84375zm15.555847 -32.765625q-0.515625 -0.125 -0.515625 -1.140625q0 -1.34375 0.703125 -4.609375q0.703125 -3.265625 1.921875 -6.21875q1.28125 -3.265625 2.625 -3.265625q1.15625 0 1.15625 1.421875q0 2.6875 -0.9375 5.984375q-0.921875 3.296875 -2.328125 5.59375q-1.46875 2.234375 -2.625 2.234375zm16.902222 34.6875q-1.15625 -0.1875 -1.96875 -0.828125q-0.796875 -0.640625 -0.921875 -1.65625l0.703125 -1.09375q0.390625 0 1.21875 0.25q0.96875 0.203125 1.46875 0.203125q1.15625 0 2.078125 -1.015625q0.9375 -1.03125 1.390625 -2.703125q0.828125 -3.078125 0.828125 -5.5q0 -4.234375 -2.6875 -8.90625l-0.703125 -1.203125q-1.21875 -2.125 -2.0625 -3.78125q-0.828125 -1.671875 -1.390625 -3.578125q-0.78125 -2.5 -0.78125 -5.0q0 -2.8125 1.28125 -5.890625q0.640625 -1.46875 1.828125 -2.390625q1.1875 -0.9375 2.65625 -0.9375q1.15625 0 2.140625 0.75q1.0 0.734375 1.0 1.75q0 0.578125 -0.453125 0.90625q-0.453125 0.3125 -1.09375 0.3125q-0.703125 0 -1.34375 -0.390625q-1.40625 0.0625 -2.234375 2.5q-0.703125 2.234375 -0.703125 3.71875q0 1.84375 0.578125 3.734375q0.578125 1.890625 1.46875 3.421875l1.40625 2.5625l2.25 4.234375q0.890625 1.78125 1.421875 4.15625q0.546875 2.359375 0.546875 4.796875q0 3.90625 -1.78125 7.421875q-0.90625 1.796875 -2.53125 2.890625q-1.625 1.078125 -3.609375 1.078125l0 0.1875zm38.973053 -0.3125q-1.46875 0 -2.1875 -0.453125q-0.703125 -0.4375 -0.703125 -1.65625q0 -1.921875 -0.640625 -6.53125l-0.25 -1.34375l-6.328125 -0.96875q-0.390625 1.484375 -1.09375 5.953125q-0.390625 3.140625 -1.21875 4.171875q-0.453125 0.5625 -1.28125 0.5625q-0.765625 0 -1.40625 -0.46875q-0.640625 -0.484375 -0.640625 -1.1875l0.125 -0.3125l0.0625 -0.265625q4.234375 -16.453125 6.40625 -32.453125q0 -0.25 0.0625 -0.859375q0.0625 -0.609375 0.125 -1.75q0.203125 -2.375 0.421875 -3.78125q0.21875 -1.40625 0.734375 -2.109375l2.171875 0q0.90625 0 1.546875 0.421875q0.640625 0.40625 0.640625 1.171875q0 4.859375 1.34375 14.46875q1.28125 9.859375 1.28125 13.828125q0 0.375 0.3125 1.96875q0.3125 1.484375 0.3125 1.921875q0 0.453125 0.640625 3.84375q0.578125 3.078125 0.578125 3.96875l0 0.0625q0 1.40625 -1.015625 1.796875zm-4.234375 -12.296875q-0.1875 -0.953125 -0.1875 -2.359375q0 -5.765625 -1.015625 -14.71875l-0.640625 -6.65625q-2.75 15.03125 -3.78125 22.71875q0.953125 0.640625 5.625 1.015625zm26.051086 10.6875l-0.0625 -2.484375q-0.0625 -1.09375 -0.0625 -2.4375l0.0625 -2.171875q-0.1875 -0.703125 -0.953125 -14.015625q-0.765625 -13.3125 -0.90625 -17.09375q-3.703125 -0.125 -4.734375 -0.765625q-0.703125 -0.515625 -0.703125 -1.15625q0 -0.5 0.671875 -0.921875q0.671875 -0.421875 1.375 -0.421875q1.796875 0 4.359375 0.265625q2.421875 0.3125 4.34375 0.3125l0.515625 0l0.515625 0q1.984375 0 1.984375 1.53125q0 0.78125 -0.640625 1.265625q-0.640625 0.46875 -1.46875 0.46875q-0.578125 0 -1.671875 -0.1875l-1.28125 -0.265625l-0.0625 0.328125l-0.0625 0.3125q0 5.703125 1.09375 18.1875q1.015625 11.703125 1.015625 18.171875q0 0.765625 -0.671875 1.34375q-0.671875 0.578125 -1.5 0.578125l-1.15625 -0.84375zm24.071472 1.03125q-2.1875 0 -2.1875 -10.5625l0.078125 -3.640625l0.0625 -2.953125l0 -0.1875l0 -0.640625q0.0625 -0.515625 0.0625 -1.21875q0 -0.125 -0.203125 -0.3125q-0.1875 -0.203125 -0.1875 -0.328125l0 -0.0625q-0.3125 0.125 -1.15625 0.125q-0.828125 0 -2.046875 -0.25q-0.375 -0.0625 -2.046875 -0.328125l0 7.375q0 1.65625 0.203125 5.234375q0.1875 3.53125 0.1875 5.25q0 0.96875 -0.515625 1.671875q-0.515625 0.703125 -1.34375 0.703125q-1.21875 0 -1.71875 -2.375q-0.515625 -2.421875 -0.515625 -6.328125l0.125 -5.1875q0.0625 -2.171875 0.0625 -4.609375l0 -1.09375l0 -0.890625q0 -1.015625 -0.0625 -1.34375l0 -0.3125l0.1875 -3.71875q0 -2.4375 -0.1875 -7.234375q-0.1875 -4.796875 -0.1875 -7.234375q0 -0.765625 0.5 -1.34375q0.515625 -0.578125 1.28125 -0.578125q2.046875 0 2.046875 3.84375l-0.125 7.9375q-0.125 3.578125 -0.125 8.0q0.953125 0.328125 3.453125 0.328125l2.375 0q0.125 -0.390625 0.125 -0.78125q0 -3.0625 -0.390625 -9.078125q-0.4375 -5.640625 -0.4375 -9.15625q0 -0.703125 0.53125 -1.171875q0.546875 -0.484375 1.328125 -0.484375q0.4375 0 1.265625 0.3125l0.578125 0.25q0 9.09375 0.640625 24.265625l0.578125 16.1875q0 0.890625 -0.671875 1.40625q-0.671875 0.515625 -1.5625 0.515625zm13.12146 -0.0625q-5.578125 0 -5.578125 -1.921875q0 -1.53125 1.984375 -1.53125l0.703125 0l0.640625 0.0625q0.515625 0 0.703125 -0.3125q0.203125 -0.328125 0.203125 -1.15625q0 -1.09375 -0.140625 -3.390625q-0.1875 -1.546875 -0.4375 -5.515625q-0.578125 -9.78125 -0.578125 -14.78125q0 -1.796875 0.0625 -3.265625l0.0625 -3.265625q0 -2.109375 -0.1875 -3.515625q-1.03125 0.25 -1.46875 0.25q-1.546875 0 -1.546875 -1.53125q0 -0.765625 0.953125 -1.34375q0.96875 -0.578125 2.4375 -0.828125q2.5625 -0.515625 4.546875 -0.515625q0.765625 0 1.3125 0.546875q0.546875 0.546875 0.546875 1.25q0 0.703125 -0.421875 1.21875q-0.40625 0.5 -1.046875 0.5q-0.390625 0 -0.640625 -0.0625l-0.515625 0q-0.640625 0 -0.9375 0.296875q-0.28125 0.28125 -0.28125 1.046875q0 6.21875 0.765625 18.6875q0.140625 2.3125 0.515625 6.78125q0.328125 2.953125 0.328125 6.015625l0 2.4375q0.375 -0.0625 1.28125 -0.0625q2.6875 0 2.6875 2.234375l0 0.390625l-1.609375 1.09375q-0.0625 0 -0.421875 0.03125q-0.34375 0.03125 -1.296875 0.03125q-2.046875 0.125 -2.625 0.125zm28.729614 0.25q-0.765625 0 -1.15625 -0.40625q-0.375 -0.421875 -0.578125 -1.4375l-0.375 -1.21875l0 -0.140625l0 -0.1875q0 -2.109375 -4.390625 -14.390625q-4.375 -12.296875 -6.875 -18.1875l0 32.203125l0.25 0.4375q0.0625 0.125 0.25 0.453125q0.203125 0.3125 0.203125 0.640625q0 0.828125 -0.578125 1.40625q-0.578125 0.578125 -1.40625 0.578125q-2.046875 0 -2.046875 -3.90625l-0.0625 -10.9375q-0.0625 -4.9375 -0.0625 -11.015625q0 -2.046875 0.1875 -5.953125q0.1875 -4.03125 0.1875 -5.953125q0 -3.0 2.3125 -4.734375l0 0.390625q0.375 -0.125 0.515625 -0.125q1.46875 0 3.703125 5.109375q1.796875 4.09375 3.234375 8.640625q1.4375 4.546875 3.8125 12.9375l0.640625 2.296875q1.46875 5.1875 2.234375 7.421875q1.28125 -13.75 1.28125 -32.515625l0 -0.828125q-0.0625 -0.375 -0.0625 -0.828125q0 -1.921875 1.53125 -1.921875q0.90625 0 1.374939 0.703125q0.484375 0.703125 0.484375 1.796875l0 4.796875q-0.125 9.859375 -0.765625 21.375q-0.64056396 11.515625 -1.531189 13.0q-1.859375 0.5 -2.3125 0.5zm21.499634 0.328125q-1.78125 0 -3.265625 -0.671875q-1.46875 -0.671875 -2.484375 -1.765625q-0.84375 -0.890625 -1.546875 -2.609375q-0.703125 -1.734375 -1.015625 -3.34375q-0.328125 -1.21875 -0.515625 -3.515625q-0.1875 -2.3125 -0.25 -3.96875l0 -3.71875l0 -2.546875q0 -3.71875 0.125 -6.09375q0.125 -2.875 0.828125 -6.078125q0.578125 -2.875 1.984375 -5.046875q1.34375 -2.1875 3.78125 -3.015625q1.15625 -0.4375 2.6875 -0.4375q2.75 0 2.75 1.59375q0 0.765625 -0.609375 1.25q-0.609375 0.484375 -1.4375 0.484375q-0.390625 0 -0.703125 -0.078125q-0.265625 -0.0625 -0.640625 -0.0625q-1.09375 0 -1.921875 1.15625q-0.828125 1.15625 -1.40625 3.203125q-1.03125 3.96875 -1.40625 8.640625q-0.265625 4.34375 -0.265625 6.46875q0 2.171875 0.203125 5.9375q0.25 3.53125 1.078125 6.15625q0.453125 1.53125 1.0625 2.46875q0.609375 0.921875 1.5625 1.5625q1.09375 0.703125 2.25 0.703125q3.0625 0 3.0625 -10.25l0 -2.9375q-0.4375 -0.1875 -1.46875 -0.1875l-0.578125 0l-0.703125 0q-2.234375 0 -2.234375 -1.46875q0 -0.90625 0.609375 -1.375q0.609375 -0.484375 1.5625 -0.484375l0 0.0625l0.890625 0q5.765625 0 5.765625 1.984375q0 0.578125 -0.328125 2.296875q-0.375 1.546875 -0.375 2.3125q0 1.078125 0.1875 3.390625l0.125 3.390625q0 3.0625 -2.140625 4.828125q-2.140625 1.765625 -5.21875 1.765625zm18.690857 0.515625q-0.828125 0 -1.46875 -0.71875q-0.640625 -0.703125 -0.640625 -1.59375q0 -0.953125 0.703125 -1.71875q0.703125 -0.78125 1.671875 -0.78125q0.890625 0 1.59375 0.78125q0.703125 0.765625 0.703125 1.65625q0 1.03125 -0.734375 1.703125q-0.734375 0.671875 -1.828125 0.671875z" fill-rule="nonzero"/></g></svg>